<mxfile host="65bd71144e">
    <diagram id="8qIm5_xP0X11Z5UCmzhN" name="Page-1">
        <mxGraphModel dx="1133" dy="467" grid="1" gridSize="10" guides="1" tooltips="1" connect="1" arrows="1" fold="1" page="1" pageScale="1" pageWidth="827" pageHeight="1169" math="0" shadow="0">
            <root>
                <mxCell id="0"/>
                <mxCell id="1" parent="0"/>
                <mxCell id="2" value="" style="shape=image;verticalLabelPosition=bottom;labelBackgroundColor=#ffffff;verticalAlign=top;aspect=fixed;imageAspect=0;image=data:image/png,iVBORw0KGgoAAAANSUhEUgAAAqAAAAW6CAYAAAAj1tC2AAAMbWlDQ1BJQ0MgUHJvZmlsZQAASImVVwdYU8kWnluSkJDQAhGQEnoTRGoAKSG0ANKLYCMkgYQSY0JQsZdFBdcuImBDV0UU2wqIHbuyKPa+WFBR1kVdbKi8CQnouq9873zf3PvnzJn/lDuTew8A2h94UmkeqgNAvqRAlhAezBydls4kPQVEQAEIIAEGjy+XsuPiogGUgfvf5d0NaAnlqrOS65/z/1X0BEI5HwBkLMSZAjk/H+LjAOBVfKmsAACiUm81uUCqxLMh1pfBACFepcTZKrxdiTNV+HC/TVICB+LLAGhQeTxZNgBa96CeWcjPhjxanyF2lQjEEgC0h0EcwBfxBBArYx+Wnz9Ricshtof2UohhPICV+R1n9t/4Mwf5ebzsQazKq180QsRyaR5v6v9Zmv8t+XmKAR+2cFBFsogEZf6whrdyJ0YpMRXiLklmTKyy1hB/EAtUdQcApYgUEckqe9SEL+fA+gEGxK4CXkgUxCYQh0nyYqLV+swscRgXYrhb0CniAm4SxIYQLxTKQxPVNhtlExPUvtD6LBmHrdaf48n6/Sp9PVDkJrPV/G9EQq6aH9MqEiWlQkyB2LpQnBIDsRbELvLcxCi1zcgiESdmwEamSFDGbw1xglASHqzixwqzZGEJavuSfPlAvthGkZgbo8b7CkRJEar6YKf4vP74YS7YZaGEnTzAI5SPjh7IRSAMCVXljj0XSpIT1TwfpAXBCaq1OEWaF6e2xy2FeeFKvSXEHvLCRPVaPKUAbk4VP54lLYhLUsWJF+XwIuNU8eDLQDTggBDABAo4MsFEkAPErV0NXfCXaiYM8IAMZAMhcFZrBlak9s9I4DURFIE/IBIC+eC64P5ZISiE+i+DWtXVGWT1zxb2r8gFTyHOB1EgD/5W9K+SDHpLAU+gRvwP7zw4+DDePDiU8/9eP6D9pmFDTbRaoxjwyNQesCSGEkOIEcQwogNujAfgfng0vAbB4YazcJ+BPL7ZE54S2giPCNcJ7YTbE8RzZT9EOQq0Q/4wdS0yv68Fbgs5PfFg3B+yQ2acgRsDZ9wD+mHjgdCzJ9Ry1HErq8L8gftvGXz3NNR2ZFcySh5CDiLb/7hSy1HLc5BFWevv66OKNXOw3pzBmR/9c76rvgDeo360xBZi+7Gz2AnsPHYYawBM7BjWiLVgR5R4cHc96d9dA94S+uPJhTzif/gbeLLKSspda107XT+r5gqEUwqUB48zUTpVJs4WFTDZ8O0gZHIlfJdhTDdXNzcAlO8a1d/X2/j+dwjCaPmmm/c7AP7H+vr6Dn3TRR4DYK83PP4Hv+nsWQDoagJw7iBfIStU6XDlhQD/JbThSTMCZsAK2MN83IAX8ANBIBREgliQBNLAeBi9CO5zGZgMpoM5oBiUgmVgNagAG8BmsB3sAvtAAzgMToAz4CK4DK6Du3D3dICXoBu8A70IgpAQGkJHjBBzxAZxQtwQFhKAhCLRSAKShmQg2YgEUSDTkXlIKbICqUA2ITXIXuQgcgI5j7Qht5GHSCfyBvmEYigV1UdNUVt0OMpC2WgUmoSOQ7PRSWgROh9dgpaj1ehOtB49gV5Er6Pt6Eu0BwOYJsbALDBnjIVxsFgsHcvCZNhMrAQrw6qxOqwJPuerWDvWhX3EiTgdZ+LOcAdH4Mk4H5+Ez8QX4xX4drweP4VfxR/i3fhXAo1gQnAi+BK4hNGEbMJkQjGhjLCVcIBwGp6lDsI7IpHIINoRveFZTCPmEKcRFxPXEXcTjxPbiI+JPSQSyYjkRPInxZJ4pAJSMWktaSfpGOkKqYP0QUNTw1zDTSNMI11DojFXo0xjh8ZRjSsazzR6yTpkG7IvOZYsIE8lLyVvITeRL5E7yL0UXYodxZ+SRMmhzKGUU+oopyn3KG81NTUtNX004zXFmrM1yzX3aJ7TfKj5kapHdaRyqGOpCuoS6jbqcept6lsajWZLC6Kl0wpoS2g1tJO0B7QPWnQtFy2ulkBrllalVr3WFa1X2mRtG2229njtIu0y7f3al7S7dMg6tjocHZ7OTJ1KnYM6N3V6dOm6I3RjdfN1F+vu0D2v+1yPpGerF6on0Juvt1nvpN5jOka3onPofPo8+hb6aXqHPlHfTp+rn6Nfqr9Lv1W/20DPwMMgxWCKQaXBEYN2BsawZXAZeYyljH2MG4xPQ0yHsIcIhywaUjfkypD3hkMNgwyFhiWGuw2vG34yYhqFGuUaLTdqMLpvjBs7GscbTzZeb3zauGuo/lC/ofyhJUP3Db1jgpo4miSYTDPZbNJi0mNqZhpuKjVda3rStMuMYRZklmO2yuyoWac53TzAXGy+yvyY+QumAZPNzGOWM08xuy1MLCIsFBabLFotei3tLJMt51rutrxvRbFiWWVZrbJqtuq2NrceZT3dutb6jg3ZhmUjslljc9bmva2dbartAtsG2+d2hnZcuyK7Wrt79jT7QPtJ9tX21xyIDiyHXId1DpcdUUdPR5FjpeMlJ9TJy0nstM6pbRhhmM8wybDqYTedqc5s50LnWueHLgyXaJe5Lg0ur4ZbD08fvnz42eFfXT1d81y3uN4doTcicsTcEU0j3rg5uvHdKt2uudPcw9xnuTe6v/Zw8hB6rPe45Un3HOW5wLPZ84uXt5fMq86r09vaO8O7yvsmS58Vx1rMOudD8An2meVz2Oejr5dvge8+3z/9nP1y/Xb4PR9pN1I4csvIx/6W/jz/Tf7tAcyAjICNAe2BFoG8wOrAR0FWQYKgrUHP2A7sHPZO9qtg12BZ8IHg9xxfzgzO8RAsJDykJKQ1VC80ObQi9EGYZVh2WG1Yd7hn+LTw4xGEiKiI5RE3uaZcPreG2x3pHTkj8lQUNSoxqiLqUbRjtCy6aRQ6KnLUylH3YmxiJDENsSCWG7sy9n6cXdykuEPxxPi4+Mr4pwkjEqYnnE2kJ05I3JH4Lik4aWnS3WT7ZEVyc4p2ytiUmpT3qSGpK1LbRw8fPWP0xTTjNHFaYzopPSV9a3rPmNAxq8d0jPUcWzz2xji7cVPGnR9vPD5v/JEJ2hN4E/ZnEDJSM3ZkfObF8qp5PZnczKrMbj6Hv4b/UhAkWCXoFPoLVwifZflnrch6nu2fvTK7UxQoKhN1iTniCvHrnIicDTnvc2Nzt+X25aXm7c7XyM/IPyjRk+RKTk00mzhlYpvUSVosbZ/kO2n1pG5ZlGyrHJGPkzcW6MOP+haFveInxcPCgMLKwg+TUybvn6I7RTKlZarj1EVTnxWFFf0yDZ/Gn9Y83WL6nOkPZ7BnbJqJzMyc2TzLatb8WR2zw2dvn0OZkzvnt7muc1fM/Wte6rym+abzZ89//FP4T7XFWsWy4psL/BZsWIgvFC9sXeS+aO2iryWCkgulrqVlpZ8X8xdf+HnEz+U/9y3JWtK61Gvp+mXEZZJlN5YHLt++QndF0YrHK0etrF/FXFWy6q/VE1afL/Mo27CGskaxpr08urxxrfXaZWs/V4gqrlcGV+6uMqlaVPV+nWDdlfVB6+s2mG4o3fBpo3jjrU3hm+qrbavLNhM3F25+uiVly9lfWL/UbDXeWrr1yzbJtvbtCdtP1XjX1Oww2bG0Fq1V1HbuHLvz8q6QXY11znWbdjN2l+4BexR7XuzN2HtjX9S+5v2s/XW/2vxadYB+oKQeqZ9a390gamhvTGtsOxh5sLnJr+nAIZdD2w5bHK48YnBk6VHK0flH+44VHes5Lj3edSL7xOPmCc13T44+ee1U/KnW01Gnz50JO3PyLPvssXP+5w6f9z1/8ALrQsNFr4v1LZ4tB37z/O1Aq1dr/SXvS42XfS43tY1sO3ol8MqJqyFXz1zjXrt4PeZ6243kG7dujr3Zfktw6/ntvNuv7xTe6b07+x7hXsl9nftlD0weVP/u8Pvudq/2Iw9DHrY8Snx09zH/8csn8iefO+Y/pT0te2b+rOa52/PDnWGdl1+MedHxUvqyt6v4D90/ql7Zv/r1z6A/W7pHd3e8lr3ue7P4rdHbbX95/NXcE9fz4F3+u973JR+MPmz/yPp49lPqp2e9kz+TPpd/cfjS9DXq672+/L4+KU/G6/8UwOBAs7IAeLMNAFoaAHTYt1HGqHrBfkFU/Ws/Av8Jq/rFfvECoA5+v8d3wa+bmwDs2QLbL8ivDXvVOBoAST4AdXcfHGqRZ7m7qbiosE8hPOjrewt7NtJKAL4s6+vrre7r+7IZBgt7x+MSVQ+qFCLsGTbGfMnMzwT/RlT96Xc5/ngHygg8wI/3fwHmlJC8488jZQAAAIplWElmTU0AKgAAAAgABAEaAAUAAAABAAAAPgEbAAUAAAABAAAARgEoAAMAAAABAAIAAIdpAAQAAAABAAAATgAAAAAAAACQAAAAAQAAAJAAAAABAAOShgAHAAAAEgAAAHigAgAEAAAAAQAAAqCgAwAEAAAAAQAABboAAAAAQVNDSUkAAABTY3JlZW5zaG90rEQE1wAAAAlwSFlzAAAWJQAAFiUBSVIk8AAAAddpVFh0WE1MOmNvbS5hZG9iZS54bXAAAAAAADx4OnhtcG1ldGEgeG1sbnM6eD0iYWRvYmU6bnM6bWV0YS8iIHg6eG1wdGs9IlhNUCBDb3JlIDYuMC4wIj4KICAgPHJkZjpSREYgeG1sbnM6cmRmPSJodHRwOi8vd3d3LnczLm9yZy8xOTk5LzAyLzIyLXJkZi1zeW50YXgtbnMjIj4KICAgICAgPHJkZjpEZXNjcmlwdGlvbiByZGY6YWJvdXQ9IiIKICAgICAgICAgICAgeG1sbnM6ZXhpZj0iaHR0cDovL25zLmFkb2JlLmNvbS9leGlmLzEuMC8iPgogICAgICAgICA8ZXhpZjpQaXhlbFlEaW1lbnNpb24+MTQ2NjwvZXhpZjpQaXhlbFlEaW1lbnNpb24+CiAgICAgICAgIDxleGlmOlBpeGVsWERpbWVuc2lvbj42NzI8L2V4aWY6UGl4ZWxYRGltZW5zaW9uPgogICAgICAgICA8ZXhpZjpVc2VyQ29tbWVudD5TY3JlZW5zaG90PC9leGlmOlVzZXJDb21tZW50PgogICAgICA8L3JkZjpEZXNjcmlwdGlvbj4KICAgPC9yZGY6UkRGPgo8L3g6eG1wbWV0YT4K23aRhgAAABxpRE9UAAAAAgAAAAAAAALdAAAAKAAAAt0AAALdAACwUxdLiqMAAEAASURBVHgB7J0HvB1F3b/npkKCIEpCMxAUaaGG4osoJCAEIQQFiVSlBwzqX7qF/voqVX0lUlRAepMSyktEJFKlKiUQmkBCKKEjCZD6n++GvezdszuzZ8+ePe2Zz+fec3Zndsozc3a/+5vWNWPGjIUGBwEIQAACEIAABCAAgZIIdCFASyJNMhCAAAQgAAEIQAACAQEEKA0BAhCAAAQgAAEIQKBUAgjQUnGTGAQgAAEIQAACEIAAApQ2AAEIQAACEIAABCBQKgEEaKm4SQwCEIAABCAAAQhAAAFKG4AABCAAAQhAAAIQKJUAArRU3CQGAQhAAAIQgAAEIIAApQ1AAAIQgAAEIAABCJRKAAFaKm4SgwAEIAABCEAAAhBAgNIGIAABCEAAAhCAAARKJYAALRU3iUEAAhCAAAQgAAEIIEBpAxCAAAQgAAEIQAACpRJAgJaKm8QgAAEIQAACEIAABBCgtAEIQAACEIAABCAAgVIJIEBLxU1iEIAABCAAAQhAAAIIUNoABCAAAQhAAAIQgECpBBCgpeImMQhAAAIQgAAEIAABBChtAAIQgAAEIAABCECgVAII0FJxkxgEIAABCEAAAhCAAAKUNgABCEAAAhCAAAQgUCoBBGipuEkMAhCAAAQgAAEIQAABShuAAAQgAAEIQAACECiVAAK0VNwkBgEIQAACEIAABCCAAKUNQAACEIAABCAAAQiUSgABWipuEoMABCAAAQhAAAIQQIDSBiAAAQhAAAIQgAAESiVQswBduHChefPNN81//vMf89FHH5mll17afOYznzF9+/ZNLMgHH3wQhF1sscXMkksumRimESc//PDDIF/9+vUL8tXV1VVzNsRm9uzZ5u233zYq9xJLLBHw6d+/v6k1/nnz5plZs2YZfQ4cONCIZyPc/PnzA27Kx6c+9SmjsuVxCxYsCBiJ14ABA4Iy5YmHayAAAQhAAAIQaH4CNQnQF1980Tz66KOB8IwXVeLyK1/5SiAmon5PPfWUeeyxx8xyyy0X+Ef9Gvn92WefNVOmTAkE4n/9138ZCdFa3Ouvv27+9a9/mffee89IiEbd8ssvb9ZZZ52aBLhE7RNPPBHEv/rqq5vPf/7z0SRK+67yqQ3oJWT48OFmyJAhudLWy8uTTz5p1KZWXnlls/766+eKh4sgAAEIQAACEGh+ArkF6COPPGKeeeaZ7hLK4inrpyyhsvbJ9e7d22y22WZm8ODB3eE6QYC+8MILgZiShVJOYlxWvXfffdfI0ipBKmvoJptsEliLu+FU8QUBWgUsgkIAAhCAAAQg0FQEcgnQ6dOnm/vuuy8oiLrbN95446D7NSyZxNHdd98diK1evXqZMWPGmD59+gTe7S5A1ZV81113GVlAZQ1cY401AjZhl/sbb7xh/vnPfwZidN111zVDhw7NZW1FgIatjU8IQAACEIAABFqNQNUCVALr+uuvNxr7J6veNtts0y0uo4WfO3euueGGG4zCqzt11VVXDbzjAlRjByXKZDWVpVCCNhRr0fii39Xtqy7fxRdfvHtMZdQ//l151TX60zjFpZZaKrDORsO5uuBVlnfeeSewXOp6jbdMy6Py9fDDDwflkfX3s5/9bDSZ4Lu6mp977jnz6U9/2qy33no9xHsYWGMh33rrrSCfChdPMy5AJWRlcZWVVXnTNaqftHwqnTlz5gTlUve3yiWrbPiiEOYj+inL7fvvvx+MaVU41ZXiSOqCj471VdzxfKhsqntZzWU9z9oFLwu72kvWuo/mn+8QgAAEIAABCDQHgaoF6CuvvBJYN5X97bffPhACaUV5/PHHzdSpUwNhs+222wbBogJUAkbjGKNOoumrX/1qoiiTcHv66aeNBGHUaQzksGHDjKytUafubqWvcYXRayTmdM0Xv/jF7uBpAlTX3XnnnYHo0gSbzTffPMhbXFCFEb388svBGFeJQZVj0KBBoVemz2nTpgVllFiWeA/d5z73uaCMEnNyUQGqNFTWV199NQweiDqJUpUzPkFJ4k9cXnvtteBFIrxIYnDNNdc0GqMaL5+GFajuJEDDMa0SgSuttFIglCXQo2NAVU+qfw2/+PKXv1xRNzfeeGMgOsVzmWWWCYSsawyo8qshHxK8YfrK92qrrWbWWmstp3AOy8cnBCAAAQhAAALNQaBqAfrggw8aiREJxe22267qUoQCVONDZZmU1U1CVGJIVjA5nQsFa5iALIbqupZT2hItEkMSU3KahCMBFDrFJRGk9JSWrKsSYrJQSsRokpGuWXvttYNLkgRoKD4lrhTeJz4VkfKk4QkSiOFkoyQLYJjP6KfEq0SbxKdmtivPErKKU2JUYk4WU1lwQwEqbnKySCq8nPIr66LyLIGmYQChk4VUQu+ll14KRKquUTilqbQUt0SoBG/oNORC1yiMwsq6KhGouEJhr/TrJUD//e9/BxO6xCCse+VVda98rLLKKmaDDTaoELlh/vmEAAQgAAEIQKC5CFQtQP/+9793j2/80pe+VHVpQgGqCyWONA4ydLJwaXKT3MiRI7u7ryUab7/99uD8RhttZGTZC52E1D/+8Y/gcKuttgq6dCW+ZsyYYR544IFAsGjGeTg7OypMJba22GKLQFTFBaisqaHlU13ECpdVSMpap/hklZT4lRBdccUVAwEpARe3LirzEncS9xJVX/jCFwLLpcSWXFSYirnikviT9VgW6dByucIKKwThJUAlGMVA5Vb5FZfyI/7ivOyyywYWVYl/OYlc5VsvF7JqSpjrGqWjLnYJXXGXmNULgtzMmTMDwaw8i1E9BKjinjx5ciDAFb/EZshP5ZPYlzBVe1FZQr8gg/yDAAQgAAEIQKApCVQtQG+55ZZArMgSF+3Czlq6UIDKYrbjjjv2EAyyiF577bVBVJrYpOV45MIZ9xJAEqBxpwlPEmISRxJOGn+opZ50Tpa8DTfcsMcl8lc+JFYkaGQFjApQpX3//fcH1lIJK1k+FaYacaNxihKIEs8ql5yul0iS8JYAFIPQycqnPCk95VeiMurkLzGm5at0rQSj4pcwVD2o3GH+JMhUHglHhZWf4lOetNSURLhYSWhGXSh0la+wK17DFyRMJchV59EVDXSt4pN1WpbIeghQ1aMEs4S0uMSHWdx7772BQBfTKINoufgOAQhAAAIQgEBzEahagP7lL38JrHUacymRUq0LBaiE2JZbbllxuaxdEkqy2mn8otzf/va3QHwpPQmquJNIev755wNLoyb+SJzdc889gfCTaImLpvj1Og4FqIRmOGlJQkyWz2rFZzR+WQk1rlPjMyX8wvGLElQSTOpql9OaoSqHJmvJAhoftxmNU9/DLnh9xsezyl+WYXXnKx6NkRQDdaVL0OmchHc4nlTh5WSFlQU0FKgKEwpMWV2VTmj9XHSFCQSwwmhyUD0EqNqDRLzSlviOO7FV3atdJI01jYfnGAIQgAAEIACBxhOoWoCqW1pWt7wLyYcCNO16LWEksRYVoNdcc02PCTlp2MKxo+o2/utf/xqIJQnSuGhKuj4UoOGYRoXRJBuJZH3W6iQ8ZcFU+SVKNUwgFI4ShLLiqtwayyjLZNQ6mpR2KEAlGhVPfCH60JqpLv9QgKqMsiaHIjgpXp3TNbIoykr60EMPBaJUcUgYyy/q1N0vS6vyUw8Bet111wUvBL48q461IkPcQhrNK98hAAEIQAACEGgOAlULUFnqJGQ0I3yHHXZwlkKWNIlBiQJNGpLLI0DVLS+rpKym4bjIpIRlTZRwVZqymirspptu2j05J+ma8FxUgMoyqEku6sqWUNa4S3WNF+VkhZTVTvnTkAJN6pHFVkMG1M2toQe+9PIIUHWVS4BKRMqqGxeTYfmUtsaTauxqKEBDsRzfalP5kACVEK1GgGqJLk0G882CnzhxYjDRSUMI9CIQDjMI8xp+qu6TVkII/fmEAAQgAAEIQKB5CFQtQCU4brvttqAEEg+u7m1NEFG3b7S7PY8A1QQkdcNKTKor2OfUBa+xgbJmyqIoIeVzoQCVwBoxYkRgpdSse8Uh658sgj6rpNLQAvQSr7LISVgmXSNLp4SgxqJqu1KJcx2rC36oHeeqMZ0+q2seAapueYlfiU91/2sSls+FE6rUxS2LaLzbXpZWjUVVmZMEqMJrcljUMimmWoZJLxUa4uBahkmT3jQkQ7tGaTxvmgD1lQN/CEAAAhCAAASah0DVAlRZDyciSVRsvfXWFaJEYWQRUze4nMbmhTO08whQiSZdJ7Er0Rt3GgeoLlpZKyUgNdtb4x8lfsOxgeE1CieBqsXiNUNdVjNZ10IBqu/hXvCy9spSKaEk8SshGxVSYZzRT4lW5Uf5kOVU8cWdZqjLGikLqMaoSgi+YMde6rysrroutBjrWp3TOEt13UugavyoBJ+EXzVd8OHEKJVfFk11qUedxnFK2CpfoXgOl2CStVIbCugFICoCQ0biEhWgEruayKW8a0mt6DAICW1ZVuXnE6Aqt+pePCTW4/yVP8WjevaNm42Wle8QgAAEIAABCDSOQC4Bqi7uW2+9Nci1umsl4iTO1A0q8SeBIdEoJ1EwevTo4Lv+5RGg0fQknKKzndVtrfGTcpqkpLxIMMrKqOWZ1M0soRVOmNIOQ+oyluVOwk/WTlkpkwSohI3GvMr6KtGlpX50TVSABQlH/mlpIJVdIk9MlNdwEpPyJeGpWd2yfsqqqj8xUr60bJREosSUhhIoLeUhek0ohCXwqxWgGhIRro0qYSwmyqPKI0Era6cEtyzWsvpK0Ou8RKY46wVA12h3J12jsIpPZVU7iApQiVm9gKjMEo8qj0St+Gi5KZVLzidAw+EUikesVL96cZBTnmTpVlyyzsrPVTfBRfyDAAQgAAEIQKDhBHIJUOVaAk4CLxQSOifrVPRYAkq7AUUtU3kEaJiexknKSYCoa1fCR5N55NRlPWrUqO4ub3Xzyqqorm2JEolM5UPXyAqq7xJZ4eSdJAGqeCWoNZ5UglECW4I1Wh6FiTsJXKUtq6GcrKHKg45DPtq9SBbFUJwqnISuxJ6skGIpS6SuUVmUZ40NlQCUNTFPF7zSiApNpaG86VPllMgTJ83EFxudl9OwAlmUlT85lV/5Ud50va6TiwpQHYfjWhU26lR3Etxi4RsDquuiQjOse5VDdR/WpSYgpY1pjabNdwhAAAIQgAAEGk8gtwBV1mXlkhVO3aBRJ6Gm8XpRS2XoHwpQWd40Qz3uwjU9o7PgwzDq1pX1UOIrFHLyU5e0xnrGBYgEUrhMjyxpchJVEkCyloXDAnReVkaJLFn/1AUejUuz1zU7X/FJBEo4uiYJKW/KqyyKYhQVYBJvYiNrngRm3Ensac1PrTSg9OSUloSyhGE4NlQM1GWvcsn6pyWToi5pFnzoLxH+ghXIyqOEXJg/cdH406RZ+MqPRLostBLEcmKlfMmqKXEqAaqyhU7hJKjDIRISj7KiKpzGEcsiGxWg4qV8hYzDePSpNFT3qgvlN8yz0lN9+F4KonHxHQIQgAAEIACBxhKoSYCGWZcYkIVQgkkWvdByFvoX/an0JLxkVZTYTZroE01T4WUtk9VNAi4qLqPh6vFdTEKRJ8ulxGSWbmKJWF0n0SZxVQ+m4iIRqD/lK0s6EpWylip8aNn1cQvbh9hnKbsrvmrr3hUXfhCAAAQgAAEINIZAIQK0MVknVQhAAAIQgAAEIACBViSAAG3FWiPPEIAABCAAAQhAoIUJIEBbuPLIOgQgAAEIQAACEGhFAgjQVqw18gwBCEAAAhCAAARamAACtIUrj6xDAAIQgAAEIACBViSAAG3FWiPPEIAABCAAAQhAoIUJIEBbuPLIOgQgAAEIQAACEGhFAlUJUK37qHUpcRCAAAQgAAEIQAACrUNAuxZq3e9mcVUJUO3lnbR7T7MUhnxAAAIQgAAEIAABCFQS0GY877zzTqVHg84gQBsEnmQhAAEIQAACEIBAWQQQoGWRJh0IQAACEIAABCAAgYAAApSGAAEIQAACEIAABCBQKgEEaKm4SQwCEIAABCAAAQhAAAFKG4AABCAAAQhAAAIQKJUAArRU3CQGAQhAAAIQgAAEIIAApQ1AAAIQgAAEIAABCJRKAAFaKm4SgwAEIAABCEAAAhBAgNIGINDBBP7zn/+YN996yzz11NM9dqRYZ521zSpDh3YwGYoOAQhAAAL1JIAArSdd4oZAExJYuHCh+fsdd5jbb59sHnzoQfPyy69U5PJTn/qUGTFihDnisEONvuMgAAEIQAACRRJAgBZJk7gg0OQEbp882Zx19jnmmWeeyZRTic/vfmcvs+8++5iurq5M1xAIAhCAAAQg4COAAPURwh8CbUDgqaefNr/45S/NI488mqs0O++0k/nZT3+S61ouggAEIAABCMQJIEDjRDiGQJsRuPSyy83Z55xjNN6zFnf0UUeab48dW0sUXAsBCEAAAhAICCBAaQgQaGMCRxx1tPnrX//qLeHyyy9vVlhhhSDcyy+/bF55pXJc6GqrrWYuuehC06dPH298BIAABCAAAQi4CCBAXXTwg0CLEnjttdfMf//P/5i77ro7tQQSlHvsvrsZs8PoijCXXX6FuejiiyuE6GmnnmK22nLLivCcgAAEIAABCFRDAAFaDS3CQqAFCGi8548OPaxCPIZZ18SiA/bfz+y1557hqcTP9957z4w7+Htm6tSp3f7jxh1oDjrwwO5jvkAAAhCAAATyEECA5qHGNRBoUgLqPt//wHGp4nOLLbYwRx5+WHd3u68YDz38sNn/gE8E5957f9f88Pvf912GPwQgAAEIQMBJAAHqxIMnBFqHgMTnrrvvkTrZaP/99jPjv3dw1QXaYMONuq9Zc801zaUXX9R9zBcIQAACEIBAHgII0DzUuAYCTUbA1e0+cOBAc8gh482uOWewf3effc2jjy5avmnkyBHmjNNOa7LSkx0IQAACEGg1AgjQVqsx8guBGIE5c+aYb439tpk+fXrMxwS7GP3+3HPM6nbCUV6nLv2HHnoouJwxoHkpch0EIAABCEQJIECjNPgOgRYjMGvWLPOzY48zk+0OR3G3wgrLmxOOP95stOGGca+qjhGgVeEiMAQgAAEIZCCAAM0AiSAQaFYCl1x6mTnt9NMrsqeZ7rVaPsNIx9tJR/fcc29w+OOjjzZjd/lW6MUnBCAAAQhAIBcBBGgubFwEgcYTuOfee834QypnpEt8Xn7pJZlnuvtKcqRdzP7Wjxezl6it1aLqSw9/CEAAAhBofwII0PavY0rYhgS0reYOO37DvPvuuz1K16tXL3O6nSTUv38/c9fdd5unnnrarLjiiuaLX1zVjNh88+B7V1dXj2t8B//v0EPN3/9+RzCe9MaJ15sll1zSdwn+EIAABCAAAScBBKgTD54QaE4CP/zRj8wdd9xZkbnDDjvU7Gl3N9Ks+FNPO938+9//Nm+//XZ3OG25ue2225r/+tImZp211zaLL754t1/al3AM6No2/EV/uiAtGOchAAEIQAACmQkgQDOjIiAEmoPA7XbC0aGHHV6RmQ3tZKM/2C7yuJt8xx3muuuut1bMv/fw6urqZfbdZ2+z45gdzJAhQ3r4RQ/2swvRP2wXpGcGfJQK3yEAAQhAoBYCCNBa6HEtBEomoMXmteTSBx980CNlzXi//NJLg27yHh6RgzfffNP861+PmMuuuKJ7WSV5q9t+5MiRZq89djfrrbde5AoTLGq/+YiRRt32N914g1l+ueV6+HMAAQhAAAIQyEMAAZqHGtdAoEEEfmQtn0lLLp1/3h/N+jHx6Mric889Z669/nozceINPXZO2mSTTcxxx/ysewLTxBtuNMfZpZy22WZrc/IvfuGKEj8IQAACEIBAZgII0MyoCAiBxhKY9JdbzdE//nFFJrTL0X777FNxPssJTWa65LLLzE033WReemlG9yVH2P3id99tN/OgXYD++BNONJddcrHTutp9IV8gAAEIQAACGQggQDNAIggEGk1AQvGAceOCWe3RvKjr/fprrzV9+vSJnq76+8yZM819DzxgTrMTl957773gek1W+snRRwVd9NrOEwcBCEAAAhAoigACtCiSxAOBOhL443nnmzMnTKhIYcKZvzVf3nTTivN5T7z66qvmpJ//j114/p4gih122MGcePxxeaPjOghAAAIQgEAiAQRoIhZOQqB5CGji0a6779FjrKZyt9tuu5ojD6+cDV9Ezo+wi8//9ePF5zW7foUVVjAr2CWcVl99Nbuv/Or2ePkikiEOCEAAAhDoUAII0A6teIrdOgR+esyx5uabb+6RYe12dM3VV5llllmmx/kiDzQ2VF3ycmussYZZsGCBedquLyonUbrKKquYzaz1dcSILYJz/IMABCAAAQhkJYAAzUqKcBBoAIFHHn3UHHDgODN37tweqY+z40EPOvCAHufqcXD2ueeac84513zL7v/+g/HjgzGoE2+80Tz66CPmxRenBUlKjB7zs5+alVdaqR5ZaMk43581y9xgOT355NQg/5tsvJEZvf32LVkWMg0BCECgHgQQoPWgSpwQKIjAobaL/fbbJ/eIbejQoeaKyy41/fr163G+Xgen2K09L7vscnPTDRO7l2dSWhoacN3Eieb3v/9DkPSWW25pTj/1lHployXi1WSxv972NzuO9udmobUYR93hdmWBPezKAjgIQAACEDAGAUorgECTEtASSLJ+xt2pVuR9zYq9spxElbbj3NzuJT/+4IMqkn3iySfNb8+cYP7xj3+YtdceZv77pJM60hoqQa51WqdPn2a+9KX/MmvaYQtLLbWUef/9/5g/XXiR+fSnP20mXndtBT9OQAACEOhEAgjQTqx1ytwSBJIWnV9ttdUC62fZBZC42nf//c1vfv1rOwlptcTkNWb0rLPONvPnzzff/c53zEHjDkwM144ntT3qccefEIyNVbnjjI61fjfccIP550MPtmPxKRMEWo7Ah3ZU0+w5C1su30VkuG9vYz61WFcRUdUUBwK0JnxcDIH6EHjKTvbZdbfdKyI/4/TTzMgRIyrOl3HiyKN/bO6//35z6cUX9eiKj6YtoXraGb+ywwZuD2bKn2B3Udpw+PBgK89ouHb5rvL+6jf/a+677z7z05/82IzaZpuKoj308MNm/wMONMsuu6y55eabKvw5AQEIlE/g8Wnzzctvd6YAXXqJLrPxF6wKbbBDgDa4AkgeAkkE1PWuLvioa5T1M8xDuC3nCCuAtRyTZuJv/pWvmCFDhoRBuj+V91PtDHrNml/eLt+05x57mM02+3Jbdc3L4qsJWloh4Ef/74dBl3sI4MMPPzT32iEJd951l13O6rbAKnzW7yaYdddZJwzCJwQg0EACCFAEaLz5dc2YMSPzK4nGVA0YMCAeB8cQaGkC06dPN98a+20zZ86cHuU4+Ze/MNtsvXWPc2UePPPMM+bbdj3S6OQa/f4+97nPmXXWWdust+56ZofRn8z0nvn668FM8Kuuutq89tprZrHFFrNjIzcxG2+8sRkzenTLbu15thWd6nLX2M7dd9+9oiwSpn/843nm7bffDqpHa6bKEryRXS0ABwEINAcBBCgCNN4SEaBxIhx3HAFZDi+1IibqZGW8/NJLGv7CdcRRRwUWPc3o1uSkB+5/wEx54gnz0UcfBdlddtnBZjNrFd3ObuOprvfQTZ061Zz5u7Ps8k2Pdi+oP3z4Bubr237drL/+embVL3whDNqUnyrrRDuGM6yX3e3wiD12/2RGu/xl9T3t9NPt6gCvBGUYPHiwGW0F+UEHHmj69u3blOUiUxDoVAIIUARovO0jQONEOO4oAq9aS+HYb+/aLdLCwo+zE1skZBrtbrr5/8zPjjnGRLfolPi64867zG1/u83cddfd3WuWrrnmmmbXb48NxouG1j+F/fM115p77r3XSJTqWE7DC7621VZmgw3WN2vZ65qhZ0MW6L/ZsayT/nKreciKy+WWW84OJdg9GIOr4QehU5jf/+GPQXl0bskllzT77buP+eY3vtGyVt6wbHxCoF0JIEARoPG2jQCNE+G4owhcd/1Ec8KJJ/Yos8SO1uCMip4eAUo8kGDcfocxwbhOrUUady+++KJ5+J//MjfddJPR5JvQrWQXqV977bWtKNuxuyv6jTffDJZukqjVEk6hGzRoGbPyykPN5+1OS8OGDTPDrShVN38ZTpOKHnzoYTP57383U6Y8bmbOfN187WtfM9t9fdsg39E6kIi+4E8XBlbd0AI8ZswYs6e1jH7xi18sI7ukAQEI5CSAAEWAxpsOAjROhOOOITBv3jyzz377mccfn9KjzDvvvJP52U9+0uNcIw+0JqgmF/3uzN8GojItL/965BFz1tnnBDPno2FGjRplfnDI+B4z6SVsNfP/+edfMI89/riZbMdYhtbR8FrtuKQJTSuuuELQZS9LqZy6uvv06RMGy/QpS/MCu1zUk9YK+8yzz5oHH3zIvPLKy0H3udJYx04W2uzLX7bWzi16CH/lSQL1vPPPt/X0eJCWRKnqaJedd+5RpkwZIRAEINAQAghQBGi84SFA40Q47hgC4XI98QJf++erjXY/ahYX7hGfdVjAtGnTzGVXXGEeeOBB89xzzwXF6NWrl9nebk05auuv2YlJX6oQkLIoPvPMs+aue+62k33et93bT1mL5BSj2eVxJwG4xBJLxE87jzUpSnvbh26TTTa2gnMz85WvbGYGLbNMD9GpMOqOv/Hmm80VV1wZiO/wurG77BKsd7r00kuHp/iEAARagAACFAEab6YI0DgRjjuGQLhYebTAmqjzx9//Pnqq4d/fe+8/ZouRI4NF1/9w7jlV5UdiVMs5XXnVVd0Wzt69e5vtttvOCsBNzda2u1viNM198MEHwQz0efPmB0sbycq6cGHPhTPmzZtrrZmv9lgeSvvUDxo0KIj2Tdv1L/Gp48UXXywY05lmQZXF87LLr7Bd7X8ySjt0q6++hvnJ0UeaddddNzzFZwEEXpi5wMz6qGd9FhBtjygGL9XLDFqy8Ytwh5nylXmVwb3MgP6V+X39vYVm5rufvESF8YWfadeF/p3+iQBFgMZ/AwjQOBGOO4KALH5bbb2NmTVrVo/yHmFnm+/ehPuHbzd6ByvyXqnYH75H5h0Hsmr+4777AyGqmfHhGEpZM9XVvvlXvxIIQy21VraTtVPDAK6feEOPoQBaRmr99dcPJlZtYbclxRVP4Pgr55ipL6WLqiJSHDeqjxk5rLohG0WkmxaHr8y/3b9/omCeMGmOuXNKOqtjdulrhg1pvMhIK3ejz//ng4Vmbjq+RmevrumzE1IyXgRoMhfOtjmBO+++2/zgBz+sKOXldqJPfFtHBZJlLjohpuLCOp841S43dOmll5kidmbSZKR77rnXTvyZHIwXnTVrdnfuNfRAC98vtlh/OxlpAzNw4MCAh6ymRbqXXnrJTH3qqWA2/7333mPeeOPN7ug1JnS3XXc121sr7Wc+Q1d7N5g6fPGJsSKSRIAWQZE4IFA7AXZCqp0hMUCgZgJJ+77LEpjWxX3AuHHm9+dU1/1dcyYjEWgh9kMPOzywzspKW5TTGM/r7XqbWvboySenGgnDJKdueglTCdI17K5MSyzxqWAJpz5WmEowRp3Euv7k/mMtr0899bR5f9aicaU6rwlPcac4Vl99dbs01JaB8Iz7c1wfAgjQSq5YQCuZcKY9CCBA26MeKUULE3jfdrtvb7u033vvvR6lOPyww3osdh711Ex0Cb8k62g0XL2+S7h92y7G3mWHpt1kBWM9nMZp/utfjxiNG3115mvB5B9NRlIXucZxJjlZhbWmaNS98MILqeHDcFpAX939W47c0u7UtJHZwHa148ongACtZI4ArWTCmfYggABtj3qkFC1MIFzcPV6ESy++yGgx9ySnCUva4rGRi9Of/qtfm4svvthcY2fpr2K7ystyGi/69tvvmFmzZwUz5T/66EO7CP7fAivno48+1mN2ezxPXVYxa9vQvn372XGmX7XW0uUCwaqZ782w+H08v512jACtrHEEaCUTzrQHAQRoe9QjpWhhAocefoS53e6mE3Wy4iUt9B6GkQB92C70fuPE68NTpX9q0XZZQTfaaCPzq9NPKz19X4KaHf/oY4/ZfehnmpXsVqZrrLG67xL8G0wAAVpZAQjQSiacaQ8CCND2qEdK0aIE1JU9esyOFd3v++27rzlk/PdSS/U7u8D75Zdf3vAdkjQUQOM1jz3mZ8HWk6kZxgMCGQj4BOhOm/ZOnBGeIeruIGvbmeHNtAyTr8wI0O6q40ubEUCAtlmFUpzWIhBO5onnWtbP+FjGaBitpXnc8cebtFny0bD1/H7iz39urrV7u8sVMSO+nnkl7uYn4BNj7bi0kK/MCNDmb7fkMB8BBGg+blwFgUII/M8vfmmuuvrqHnEtt9xy5v9uurHHufiBupeHb7SxybobUfz6oo6nT3/JjPnGN4LotBuRhPMKK6xQVPQV8cy2i5TP+mjR6YH9TeIC3RUX1eGEFgGXqyUPzVKWOuDJHaVPjCFAP0HLOqCfsOBbaxJAgLZmvZHrNiHwlc23qFh8frvtvm5+ftJJ3hLuuvvuZu7ceebPV13pDVvPABN+d5a54sorg0lAmhil5aGKEqFTps83U+zC5E9MX2imvb7AzP5YfEbLs9KgLrPy4C6z1ud6mS+t2rsqUXrjw/PMg8+mr0Z9/Nh+3UlJdF5571zzkA0fzcdXh/Uy40d9Eq77gtgXCU6ll1aWAVZQrzSol9lo1UXlaKZu4lhR6nZYtgDVLkQXTJ6XWp61hnSZsZv2TfWPeijvaW7AYsYcOSa5jfjKjAU0jSrnW50AArTVa5D8tyyBf/7rX2bf/favyP/pp51mlwMaUXE+fuIsOw70XLtN5+/tdpgb2TVDG+m0c9ARRx5lJ/y8FszOr1WESnhede/8qnfFWcZusbi5FYSjh/fJJER9VqTLD7XKwToJx4tThIpPgEq4TrhlbtVlUbwSP50kRH1irGgLqNrZSVfNTf3p+Oo2euGuZ3wYPezxXe3yTLujUZLzlRkBmkSNc+1AAAHaDrVIGVqSwNnWUnjOuT33edc6lpdfqm7snoupJxVQE5i232FMMFY0bcH6pOvqdS5cG1RbdH5tq63MqaecnCspWRmvseKzFqcH/nHWeukTb1kE6O1T5plzJqVbyVwiRcL1mnvn9bCYVlsuTbzJaoWrNu5mC+8TYwjQT2rM13aLZvVJynyDQDEEEKDFcCQWCFRN4MCDDjIPPPBgj+tcux/1CPjxwa9+8xtz4YUXNXwsaJi3p55+2hxgZ8ZLjOaZlHTB5LnmlodrE59hXtSlfewu/czQwb3CUxWfvoe4LKCH/OEj88bHYz4rIrAn0gRoEUI6TK9TRCgCNKzxTz6xgH7Cgm/tRQAB2l71SWlaiMBWW29j3nrrrR453tXuOX7UEYf3OOc7+NbYbwe7BV1+6SXm85//vC943f21RukNdnck31qm8YwUKdjCuGUJPWWvfqnd8T4Bqn3DXdZPpZMkQOtRlr1G9DHb26EF7ewQoJW1iwCtZFLEmcenzTcvv71oMmER8bVSHEsv0WU2/kLvhmcZAdrwKiADnUhghl3EfbTtPo+7k0480Yzefrv4aefxCy++aL65085mUff9JYVNAHIm6vDUAvVaH1Rd8b/4n5+bbUeNcoRe5KVxkt+3lkafG2InHA21E47kXn/XZBpX6bIe+gSorKjRCUdJ+YsL0KxlUdyftQJ5YP+u1AlW8fR+uafbohsP32rHCNDKGkOAVjIp4gwCFAEab0ddM2bMyPxKor2b2T4vjpDjViBw+RVXmJNPObUiq+ef90ez/nrrVZz3nbj1r7eZo44+Otha8ozTT2/YHvFhPtUVv/see5rlllvWXHzhhWbppZcOvRI/fUJwZSs8v2MtgMPsIuJRJ7F36vVzrIBLv224JoD40o2mpe/hTPXwvLrm17QzpaOz4H1d9srPwdayuoodGjDAis/QaUb2Tf+cZ+6ckj4rfw070z86Mz+8Nu+nxrfW6opc2N0nQFX+QUvly7FWSRg5rKcFmUlI+Vi2w1UI0J730kbUKRbQRlAnzY4n8NNjjjU333xzDw5auuiqK68wAxZfvMf5rAenWuF56aWXBROYzpowway00kpZL61LuNN/9Su7V/wl5oc//IHZ+zvfcabhEm2+bvRZdnkjWU9dlsq8VqQw06FojAvg0D/89E1YkpDW5Kio8AyvDT993fdFTi5xzdwO8+P71DCFuLDzXZPm7xOgaddlOR+3VOsaBGgWcu0ZBgGKAI23bCygcSIctyWBcAvLaOHWWmstc8lFF0ZPVf397HPPNeecc67p27evGXfggWa/ffepOo6iLnhx2jTzjW/uZLq6uszdd95hFk8R1hKQ9z8738iaKadPda/LycIoy+cmdn1Pl/NZMtNEm+86pekTwNF8uQSU4skyM1/xueLZdnhvs/eIbGtTRvOW9B0ByjJMSe2iE84hQN331DLaABbQMiiTBgQiBDQ2UhOH9OOLujE77GBOOP646Klc30NLqC4+/PDDzI5jxpglBg7MFVetF31n733MY489FuRjj912qzW61Ot9QrIWAZpmPY1nRkJ6vwnp41iTLHDxOMJjlyVVQjZtTcnw+qyfCFAEaNa20m7hEKAI0HibxgIaJ8Jx2xHQ+Mhdd9u9oly/O/O3ZtNNN604n+dEVIRuu+225idHHxVMUsoTVy3XhHvWVzsjvpo0ZTE9we5C41oqKa8ArUY0yop7xsT0Rc3T8pBUVpXJNSnrvPH9nd34SXEmnUOAIkCT2kUnnEOAIkDj7RwBGifCcdsRCEVZvGAnnXSiGb7++sHpd95913x6qaXMkvYvr/Uy7I5XhMsuO9jsvPPO5oD99osnW9fjDz74wIy1ls8ZL80wV1x+mfniqqvWlJ6E2awPF5rn7bac+p62rWU8kTTx57OcVjO+0Td2c087lEB7x2d1ruWffmmXlhpqt+2s1SFAEaC1tqFWvR4BigCNt10EaJwIx21H4Nf/+7/mT3+qHOu51VZbmnfeeTdYxP1payWVW3LJJc1A233eu3dv85WvfMUstdSS9m+pQMh9bsUV7Szz5Zx8TrMTgSZePzGIUwG10P0PDhlv1l13Xed1RXoebrfovO2228w+++xt0z4kU9TaN/15Oyv8gecWCc0XZy50Wjh9keYVoGnXJaXnE7NJ1+Q9V40wdqWhyV+1uixjdLOm4Rr7mjWOtHBJ1mwmIaXRav/zCFAEaLyVI0DjRDhuOwLhQu3Rgn3mM58xt936l+5TV//5GvOP++4z99xzj5EVMYtbbLHFzNZbb90j6KeWWMLss/fe5ni7vujdd9/d7bfNNtuYXceONRtssMji2u1Rhy+hxXedddYxF15wvjMFWTVvsttX3jFlvnNWuzOSBM80IekTjWnXJSThnDiUFL6Wc0UJ0FryUI9rfQK0mvrIkj8EaBZK7Rlmpr3X/Gd2+vJt7VnqRaVazPbErLh07T0otTJiElKtBLkeAlUSGPONb5rp06f3uMq1Bad+pE9OnWoWLlxoXn75FfPyKy+b1157zdx//wOBZVPbXi6//PLd8UmIjhw5IpgJv8Xmm5s111gj8HvwoYeCvecffPCT7T+19JPS/rpdLP7zn1/FdtUv2x1PUV+U/82+unkQ3R2Tb08di1rEvulpeU4TLgjQNGKNOY8AreSeNgmuyLZbmSpnIFB/AgjQ+jMmBQj0ILDBhhv1ONbBhvbcH849u+K878TtkyebQw873Fx+2aWZF59/6ulnzES7Veajjz5qHn/88e4kevXqFQjQoUOHmvXWW9dsOHx4t5++rGstmP369etxLuvB7nvuZZ588klz3LHHmG/suGPFZb7xkxUXRE5ocfhBdmb4i47F6BGgEWBN/BUBWlk5CNBKJpxpDwII0PaoR0rRIgTmzJljvrTplyty++MfH23GfutbFeeznPjNb38bjLE8+3e/q3obzrffftvcMukv5vEpU8ykSZNM//79gy5/WVvT3IgRIwKxu9FGGwaf2gLU5/52++3msMOPMDvYpaZOjC015ZvxHY1bSxCtZLfiHGw/taj7KnYizlC7o5BPwJYhQH0WKW0JWpTbxO7jrHK3m0OAVtYoArSSCWfagwACtD3qkVK0CIEnnnjC7LFX5a5AJ5xwvBkzenTuUmhc6XPPPWetqOekLvjui1yL4++267eNtrh9/fXXjfaYl5Ol9IUXppk5cz4yb775Zo9oVlxxBTPa5ltrfLqE6EszZpgdxuxohgwZYiZed22POHzCTRZOLb4+enif1KWHmkGAnj95rpn08PweZYsepAmJaJhO/95sAnTDVXuZI8Zks/q7VhRwrd3qK3Nau/H9btJeujq9jVH+5iGAAG2euiAnHUBA4zAPsEIv7moVoIpvz+98NxgneurJv6zaEqp8/e9vz3ROEpL19o033jDPv/CCeeWVV81tf7vNitPHggX1JT61kP747x2cKoC3G72Dve4V88+HPhmDqnz7tuHMsntQMwhQ1+LxKieCQBTczifGimbom4TkEo7RktQSj6/MCNAoab63EwEEaDvVJmVpegJpAvSM008zI23Xdi1Ok5G+bRe4f+utt8zYsbuY7+y5p1lmmWW8Ueq6Y48/3uyx++5mIzshqRqna0874wxz++2TgwlRK6ywvDnyiCOMJj/F3fjvf9/O6r/XXG8toCtZS6hcUbsHnTpxjnno2QXxJLuP04RLkVYk31CCIrfQ7C5Ym33xibG0esyLwVdnijdNAEbT9LUjl5D1lTktfV+aRbOKlpfvECiCAAK0CIrEAYGMBO5/4AEz7qCDK0LfdMPEqq2WFZHYEy+//LI5+9zfmxvsJKPBgwebb37jG+agcQcmBe0+p+77++yST5P+7+buc9V+UboTb7wx2Ide1yaN9QwXxv+9HSYQCl2fAMi63JDLiqr8pD2Mi36IH3nRR2ZaymQoDSU4ea/+wYQp5cnlZFE7a9I8O+TAdA87GLSUsQvZdwXnRg7rkykeVxrN6OcTY2n1mLcsvhcgxevrhvdZPxUHAlQUcBDoSQAB2pMHRxCoK4ErrrzS/PLkUyrSKEqAhhFfeeVV5oILLwy6vNdcc01z6cUXhV49Pi+8+GLzq1/92orUcWbcgQf08MtzIAuvZuXLMrrfvvuaQ8Z/rzua6+yC+CfY9UiPsPvT7/7xvvA+AZrFaujrflcG0oRL0QLUl5eV7MSp48f26xaV3XAiX7QI/5EXpW8tKlF63vjFIle0z9eyBajI+V5eFEbtcHs7BlmrLURd1qXDEKBRanyHwCICCFBaAgRKJHCOtU6efc45FSkWLUCVgKyShx1xpJlq1xCNj7uU/6uvvmq232FMsNPSpZdcbLSzUui0X71EpCyV+nRNMAqvCT8n/eUv5ugf/yS45oLz/mjXF/184BUOPxhnLbIHHfiJVdY1ecNnNfQJvjBPZQlQWdS0h/tsxwZDEiMHj+pjhg2pnBUfWj5d+9on7egTlrPVPxshQH2Tx0Kmaosr2VUXZIlW/T45fYGznsPr9IkAjdLgOwQWEUCA0hIgUCKBsBs6nmQ9BKjSkHjUuNCf//dJZoOP95kP0/7thAnmvPPOr+guv9PumPTTn/7MLGa3y/jLLbeEwav61JjSG2640exo1/w83q79KTdt2jSz4zd3Mltssbn5tR03Gjqf6FA4ia6N7dJD2kt9ln34v2D3gr9jyoLM23OWJUCVV1nFLp48T1+dTqJEf9UKmrQxgc7EWsTT1xbS6rGW4mXpQs8Sv6zbacMvEKBZCBKm0wggQDutxilvQwmULUDff/99o9nnl196ScUY013tpKOnnnranG+tlOuvt17A5TG7MP34Q74fCNe1117bXPSnC3Lx0pjSg743PrCCSlyHFlQtwq/dl3QudFkFWxg+6VMPeJfVME24FN0FH+bNF28YrtpPrSU6dtO+1V7WMuEbIUAFx5euD6BekOTutC9FSQ4BmkSFc51OAAHa6S2A8pdKoGwBGnZ7x7vgJTS/8929zWqrrWausLsoyc2aNcscYMeCPvnk1OB4//33M+MPrpwwFXhm+Bfu+BTdpSlJgKrb+ijHmMcMSQVjPE+6am5q0LIFqMp0wpVzUi1iqRl1eLS7+FTRfUIwrR4d2DJ5aSzyUXYCmWvoRFpEEpdaKkzDQRCgaZQ4D4FKAgjQSiacgUDdCJQtQE857TRz4403Ge3BHnUTbff4cbabfP/997ci86DA66xzzjXnnntu8F1bbt584w3ms5/9bPSyqr5rXdIpdoclrXE6costgms3HzGywgIqDwkACTaXFTMt8T1H9DFfWrV3MPYyLUyacPFZKtOuS0snfj7r+ML4dfHjThCfKnOjBKjSfmHmAnPiVXOqEqGh+NTkJFdbwgIqws3lps5YYO87yRbr5spp8blZemCXWXulyjHoxafkjhEB6uaDLwQKJXDV1Veb//nFLyviLGId0Hik8+fPN9rdaEm7SPxvfv2rHt4/sjPVJ0+ebP50wfnBHu933XW3+fFPf2rUZS+3r53B/v3IDPYeF2c8UNoP2VnxEqCfWmKJYNtOTXqKd8GH0UmEnnp9dquhJoUcNKqv2cSKT99s+jQh6RINylfadWGes3ze/+x8c6EdE5pHXK/xuV5mF9vtnjRhKUvarRamkQJUrKp5EVLdjN+2b/fMeFdbQoA2X0t8fNp88/Lb6VsON1+Oi8vR0kt0BWPqi4sxX0wI0HzcuAoCuQiEXeLxi4vYCSke5zPPPGPG7rpbIACj23xqYpKEoPZ9v3XSLea1114Lut6nT38piGLxxRc31/75arPsssvGo6zqWMtNXf3nP5srLr8s2G/+mzuOCdJNE6Bh5BJsk5+Yb6amzDLWg3+tIV09tuZUl/cFdivMNLf9Bn0S907X7kVPvJRuBUm7Li0d13lNdlG5Xpi50ExPWStU1w+xk1k2tltADrPl7BThGXLTeOAX7QSzNFdkfaSlofNhG5xm6yr64iAhuaZteyPWqnwpcLUlrd+694jksbu+Mu9jrxtgr487V3oKWxareL5a5RgBigU03la7ZsyYkfmVRHtWDxgwIB4HxxBoWgLar/1bY79dkb+NN97YnHv2WRXnazlx4003m2OOPdZoiaU111ijO6pQBIfLIR159I/Nrbfe2u2/93e/a374g+93H+f9cru1sF5y6WXBup9aG/SE448LtiHdbLPNzJn/+5tM0WpNzOdt16jc4KV6BbPgkx7GmSJrskCyts18d1HZJFAGLmZnxFuBg4MABOpPAAGKAI23MgRonAjHbUcgnJwTLZhmicfHaUb983xXF/hLL70UjOXs1WvRLF3Fc8JJ/23utkst/fEPvzc3WZF6zsfjPuUn6+cN119X09hPxSMnS+sfzjtvUZx2zGkoQOsx3GBRivyHAAQgkI0AAhQBGm8pCNA4EY7bjsChhx8e7J0eL5gEaLhcUdyv2uPLLr/cnHLqaYHoG7PDDj0u32bbr5sNhw83WmbptNNP7+EXWkV7nKzxQFt9arzpMT/7me2Kv8WcfuqpNcbI5RCAAARqI4AARYDGWxACNE6E47YjMOF3vzN/+ON5FeWShTAuFisCZTjx1ltvmW/stHMgZrX+Z1TUapH5H/zgh2brrbfu0e2uaKNLMmVIJnMQWUKv/vM1ZtdvjzVdXV12gfv23EYyMxACQgACDSeAAEWAxhshAjROhOO2I/DX224zRxx5VEW5RowYYX51+mkV56s9IYvjDTfcULHDkeL53iGHmEcffSxY8zMe72V2rOgakbGicX+OIQABCLQLAQQoAjTelhGgcSIctx2BV155xWw/ZkezcEHP2b6yVCbtWFQtAI39fNru5X7dtdeYzyy9dPflmhAU73IPPQ884ABz8EHjwkM+IQABCLQ1AQQoAjTewBGgcSIctyWBcB3OeOF++MMfmL2/85346aqOvzf+ELPt17c10aWXLrnsMnOOXWhe3eFxp2WR/nT+eWaZZZaJe3EMAQhAoC0JzHh7gXn7/cyL7rQVg8X7dZkvLPvJxNRGFY51QBtFnnQ7msBE20V+nO0qj7ull/60uf7aa3uM24yH8R1r+SNZU7X00e/PPceccOJJdnvNJ1MvU5iNNtww1R8PCEAAAhCAQNEEEKBFEyU+CGQgIEvkaNsN/95771WE3vprXzOnnFy5W1JFQMeJm//vFnPffffZcaCjg7U4NQs9yY0evb056YRKIZwUlnMQgAAEIACBogggQIsiSTwQqJJAOFko6bLDDz/M7LHbbkleVZ17yo4F/dGhhxmNO407WUmvufoqut7jYDiGAAQgAIG6E0CA1h0xCUAgmcB/7L7rO+38LfPGG28kBtjdCtAjrBDN67QN5oTfnWXeeeedxCiKErmJkXMSAhCAAAQg4CCAAHXAwQsC9SZw3fUT7RjNE1OTGXfggeagcQem+qd5uGa865oll1zSXH7ZpWb55ZZLi4LzEIAABCAAgboRQIDWDS0RQ8BPQFbQ/Q84MFg2KS30+uuvb35+0olGs9WzuJN+/nNzzTXXOoOecvLJZuuvbeUMgycEIAABCECgXgQQoPUiS7wQyEjg3//+tznE7k6UNE4zGsUWW2xudhwzJpixHt3dKAyj8Z6XXHqpXYT+xvBU4mc9tttMTIiTEIAABCAAgRQCCNAUMJyGQJkE7n/gQTPuoIMyJSnxqW0z5Xr1WrSW25w5c8wjjzzivX733e240sPyjyv1JkAACEAAAhCAQAYCCNAMkAgCgTIIaKmkn/zsGPPBBx/UJTnEZ12wEikEIAABCOQggADNAY1LIFAvAk9OnWoOO/wIb3d8tenT7V4tMcJDAAIQgEA9CSBA60mXuCGQg8A///lPM+Gss81DDz2U4+rKS7B8VjLhDAQgAAEINJYAArSx/EkdAokEZs6caS68+GJz7bXXGf1I87q9997b/PD7h+S9nOsgAAEIQAACdSGAAK0LViKFQDEEXnzxRStELzG33nqr0fadWZ0mKWn90JEjRmS9hHAQgAAEIACB0gggQEtDTUIQyE/g1ddeM/ff/4C53U5UevXVV42WXFq4YEGPCNdZZx2zzjprB8s0ITx7oOEAAhCAAASajAACtMkqhOxAIAuBl19+uSJY1oXqKy7kBAQgAAEIQKBkAgjQkoGTHAQgAAEIQAACEOh0AgjQTm8BlB8CEIAABCAAAQiUTAABWjJwkoMABCAAAQhAAAKdTgAB2uktgPJDAAIQgAAEIACBkgkgQEsGTnIQgAAEIAABCECg0wkgQDu9BVB+CEAAAhCAAAQgUDIBBGjJwEkOAhCAAAQgAAEIdDoBBGintwDKDwEIQAACEIAABEomgAAtGTjJQQACEIAABCAAgU4ngADt9BZA+SEAAQhAAAIQgEDJBBCgJQMnOQhAAAIQgAAEINDpBBCgnd4CKD8EIAABCEAAAhAomQACtGTgJAcBCEAAAhCAAAQ6nQACtNNbAOWHAAQgAAEIQAACJRNAgJYMnOQgAAEIQAACEIBApxNAgHZ6C6D8EIAABCAAAQhAoGQCCNCSgZMcBCAAAQhAAAIQ6HQCCNBObwGUHwIQgAAEIAABCJRMAAFaMnCSgwAEIAABCEAAAp1OAAHa6S2A8kMAAhCAAAQgAIGSCSBASwZOchCAAAQgAAEIQKDTCSBAO70FUH4IQAACEIAABCBQMgEEaMnASQ4CEIAABCAAAQh0OgEEaKe3AMoPAQhAAAIQgAAESiaAAC0ZOMlBAAIQgAAEIACBTieAAO30FkD5IQABCEAAAhCAQMkEEKAlAyc5CEAAAhCAAAQg0OkEEKCd3gIoPwQgAAEIQAACECiZAAK0ZOAkBwEIQAACEIAABDqdAAK001sA5YcABCAAAQhAAAIlE0CAlgypP9GmAABAAElEQVSc5CAAAQhAAAIQgECnE0CAdnoLoPwQgAAEIAABCECgZAII0JKBkxwEIAABCEAAAhDodAII0E5vAZQfAhCAAAQgAAEIlEwAAVoycJKDAAQgAAEIQAACnU4AAdrpLYDyQwACEIAABCAAgZIJIEBLBk5yEIAABCAAAQhAoNMJIEA7vQVQfghAAAIQgAAEIFAyAQRoycBJDgIQgAAEIAABCHQ6AQRop7cAyg8BCEAAAhCAAARKJoAALRk4yUEAAhCAAAQgAIFOJ4AA7fQWQPkhAAEIQAACEIBAyQQQoCUDJzkIQAACEIAABCDQ6QQQoJ3eAig/BCAAAQhAAAIQKJkAArRk4CQHAQhAAAIQgAAEOp0AArTTWwDlhwAEIAABCEAAAiUTQICWDJzkIAABCEAAAhCAQKcTQIB2egug/BCAAAQgAAEIQKBkAgjQkoGTHAQgAAEIQAACEOh0AgjQTm8BlB8CEIAABCAAAQiUTAABWjJwkoMABCAAAQhAAAKdTgAB2uktgPJDAAIQgAAEIACBkgkgQEsGTnIQgAAEIAABCECg0wkgQDu9BVB+CEAAAhCAAAQgUDIBBGjJwEkOAhCAAAQgAAEIdDoBBGintwDKDwEIQAACEIAABEomgAAtGTjJQQACEIAABCAAgU4ngADt9BZA+SEAAQhAAAIQgEDJBBCgJQMnOQhAAAIQgAAEINDpBBCgnd4CKD8EIAABCEAAAhAomQACtGTgJAcBCEAAAhCAAAQ6nQACtNNbAOWHAAQgAAEIQAACJRNAgJYMnOQgAAEIQAACEIBApxNAgHZ6C6D8EIAABCAAAQhAoGQCCNCSgZMcBCAAAQhAAAIQ6HQCCNBObwGUHwIQgAAEIAABCJRMAAFaMnCSgwAEIAABCEAAAp1OAAHa6S2A8kMAAhCAAAQgAIGSCSBASwZOchCAAAQgAAEIQKDTCSBAO70FUH4IQAACEIAABCBQMgEEaMnASQ4CEIAABCAAAQh0OgEEaKe3AMoPAQhAAAIQgAAESiaAAC0ZOMlBAAIQgAAEIACBTieAAO30FkD5IQABCEAAAhCAQMkEEKAlAyc5CEAAAhCAAAQg0OkEEKCd3gIoPwQgAAEIQAACECiZAAK0ZOAkBwEIQAACEIAABDqdAAK001sA5YcABCAAAQhAAAIlE0CAlgyc5CAAAQhAAAIQgECnE0CAdnoLoPwQgAAEIAABCECgZAII0JKBkxwEIAABCEAAAhDodAII0E5vAZQfAhCAAAQgAAEIlEwAAVoycJKDAAQgAAEIQAACnU4AAdrpLYDyQwACEIAABCAAgZIJIEBLBk5yEIAABCAAAQhAoNMJIEA7vQVQfghAAAIQgAAEIFAyAQRoycBJDgIQgAAEIAABCHQ6AQRop7cAyg8BCEAAAhCAAARKJoAALRk4yUEAAhCAAAQgAIFOJ4AA7fQWQPkhAAEIQAACEIBAyQQQoCUDJ7nqCbwwc4F5/vUF5vX3FgZ/YQwD+3eZZZbsMqsMsn+De5kB9rgWN/ujhWbWR+kxDOxvak4jPfbO9lHdprlW46529HzQZheaN2y5Ztnj0BXdZsN4y/xsp7oqk1s8Ld/9ZpC9tzWrc7UB5bmZ896sTDsxXwjQTqz1FijzlOnzzeQn5puHnl1gZjtEYbQoa3yul9liWC+z9pDeuW6At0+ZZ86ZNC8aZY/v40b1MSOH9elxjoPaCehh9v0/pFey6vX4sf1qT6jOMajNXnXvfDPNvixV22ZbqV3tesaHqSS/an9/40c1f12lFqBEjwmT5pg7pyxITfGYXfqaYfZe1ozu+CvnmKkvpef9t/v3z3UPbsaykqf6EUCA1o8tMecgED7EXTc3X7Syim5uH4RjN+3rC9rDHwHaA0dpB60uQNVmz7IvLrJ25nVqsztv2rslXnAQoHlrued1CNCePDjqPAII0M6r86Yssbqjrrx3nrnl4fmF5U8P9eOs5SxrdxACtDD0VUXUqgJUbfb8yXOdVqyqQNjA2w7vbV+c+jT1UA8EaLW1mhweAZrMhbOdQwAB2jl13bQllQA5wXbp1GJBchUua9c5AtRFsX5+rShAJT7VDTnt9fxWzzSiK9kxzafsZQccN6lDgBZTMQjQYjgSS+sSQIC2bt21Rc7rLT5DSFlEKAI0pFXuZysK0FMmzjEP2/HJ9XKyhO49orohJPXKSzxeBGicSL5jBGg+blzVPgQQoO1Tly1XElmRjryofpbPKJAB1qB0srUqubrjEaBRYuV9bzUB6msnRZFr1kkoCNBiahgBWgxHYmldAgjQ1q27ls/5BXb8XNYxnxKQKw3qZYYO7rLj4xYVXTONp0xfYKZn7Ab1zab2CYssVtSWr5QGFKDVBOghdsa+b7iI2qismMPsDP7BS/Xqpjrz3QXmgecWmAet9dQXh6+9dkda8hcEaDHAEaDFcCSW1iWAAG3dumvpnN//7HxzxsS53jKED/LRw9MnZkjAXHlvtskgLhGJAPVWR10CtJIAzdJutRTRPrb73LUurdYG1QuYaxkewW7G5WwQoMX8DBCgxXAkltYlgABt3bpr6ZxnsSKtbCdjHL5j9lnsEqHX2HUYXU4z48+0a9QlOQRoEpX6n2slAapZ75McKzW42lcSSd96inuO6GP08tVMDgFaTG0gQIvhSCytSwAB2rp117I5z2JF0oP8lL36Oa1ISQB8AkHXpI2tq1aAagzr36bM7+5ODbtUo8MFtrfiwTXuNKkMaefC9J60C0C/OHOhXexcf4tCR9Ncy3b7brJqsQtYK637rNX6iY/TVlnDtJUDzdwetFSXWdOm/SWbdjVlLkqA6oHuc7Uuku4TjDvZtTyrWX9Wa4iedFV6T0CeyUhZ6krW2Y1Wrb6uxLdaAaoyalOJJ6cv2hkqrCO1mZXtkJoRa9mhCgUtuJ6l7GqnG30h/4YVYf6jn0pX94Lwtxm/FyRtkJFXgGpnuJv+mb5hhn7/WTc2cP1mtGtX2kQ43+8gj+U+WndqKzoO7zG6v+mZoPai8uke4+phiNYN35uXAAK0eeumbXN2qp1BrB2OXC7PDSyMz2ddTXuoVyNAb3x4nrW2zuu+QYZpJ31m6ZJNui48J4E24Za5zp1HwrDhp27WRSxsroeAyqqxuuHDIEzD9anxi+O37ZtJiBYhQLOMJy7Cmuh78LqGeCTxUlf8qdenC1CJxKwW0FrqahcrnLOKwKwCtJp2q/ZazZq9cZZ5y67fpl4Yqnlhiqetnpcsv4/4bzKvAPW9tFSzG5WrLpXftN4i3++gmvt3I+suXpccl0sAAVou745PTQ/c/Sakb7soQNXcQJOASjBdPDndQpC2zmJWAZqlqz+er7wPWF9Z4unEj/Omq3jE4yLLsRrhGU8/i0WwVgGapT6y5COe96Rj34M37eUmKa4izxWxG1PWvLtES/jblZXuxKvmVN12qhXwYlhE2feyQx3UW1GNq0ZgR+MN00KAGqPesLMnza26nYQ846I+PM9naxBAgLZGPbVNLrN0v1fz9pwExido1J1z3vjFKi7NIkB1kWu/+IpIIyfShG8kSI+vvgdUj8COA5X32F362RUEPpmN7QgeeGURdb44Qv9QlITH8U9ffblmg2cR6FmFVTxfScc+630e1knpVHOuyLpSGz3e7h7m6t70CVBZFGvZWOKXe2Zvq77fbDUcq3lJkdWuliXkNAxIwxJck9DShgq1iwW0yHZbTd1V0yYIW18CCND68iX2GAHfGE2X2IhF5TyUqHG5pC4338NM1pk/20lO4fguV/xpfllvlFm6lNPSSDpfjTAq8sEQ5sUlAvMKUFnZjr7YPe5TE9m0/mtRLovgFWtZubKOw6slb1nyU238G9pu/yPG9Eu9zCdAdaFLWKVG/LFH1he1LC+zvrTi/ll/n7W+HMpyt+aQLiendhag9Wi3eazn8frnuFwCCNByeXd8as3ahamK8QlQPRhr3XpR4kTjqlwWJl8+oo1IDzK5LKJYYdPGdIVx+qwrYbg8n2kP1DwCVNf4rGwqby3jCpPKmEX0htcpfY3h3NhOeMk6vjK8Nsunj1uWONLChN3ESf4uAaoyZ2mLSfFGzx06pq9zIl2W+g/j029Ov7es+Uprp2F81fw+w2uSPpUv1/CWtHz4fqO+HodoXnx1mXa/8N3HXb1Y1bRbtSe5LHUnnr7NRqJl53vjCSBAG18HHZWDIy/6yCnifA+eesKq5sGim124ML7y9IKdlT7VzhDP4lyTYbI8WHVTPthaY1exXeqhkFWXoGap+yy0PguPbwKXyier4leH9Q5moupYi6v7uhMVLs267Xsgxa/L0v0pRkWLT5VBzvfwXRSq5/+wvaxlrV5anD5adz1DZj/Kkg9xkPV5bZvmwMW6MteV8pv2ouQSLfHcD7FtRZtHqMfhBbthxDT7O8kiJuJ1Ho/XZ4FU/lXu+PrBEm9/suOaXS+SvrSz/EaU3+Efv3wMtmWfZYe9P/Bc5UoA8XJFj9tVgPr4pdWd7s+++5vPeh/ly/fGE0CANr4OOioHvodX2k23DEhZBageLIeMqlxoXEIqy2x1l4XC1/2ta12LnPsErG7uSeNfxTdL+V1d6VkmniTVb7UCNMs+7NWMI6y2bfkYZ41PQidpeZ4s1/usYIrD1VZUhqPsy2AeC5zvN6y0w5ekJMuvr43relc79bWXLC8fvjwktVPlKwt3V9mV91Ovn+MUwEpHLm8eXPeXRTF/8t9VlypH0RZQ3z0mS935Xj7OG+/uYfqk9HxrNAEEaKNroMPSd93whMLVdVNvVL6bo9KX+DzSMT5Os/zVNeyysLhu7C7rgOu6KBufuEh7sPms076yKw++sV1JFlifoIhapHzCQXlwWZjlX4RTnn1DAKpJR6KhmuWAfJOhsrQVn5hKEzK+33AWEeEbCy52afcCnwBJuy5eHy4LclrZfWkrjbTfV5i+7hFHXTTHawlOiydvvYXpRz9ddelqQy52ij+tDlzX6aUjSxe6j1/SPSZaZr43DwEEaPPURUfkxHXDE4C0G1cZcLII0Cz58z0g0qw7vuuqGWTvesAnWTF9IrCautl3woeplrWkLjJf2qEAzSI+y3z4KN/KUy0TbuLtOkv+syxlliZe4um5BEHaZCDfbzhLO1UZvv+HfBZY10tamnCMl1vHrt9b2m/U95KWNX3fi5ryl1aHrnzruqx5UFhXXRYtQH3ttpp8u/iltVuVF9dcBBCgzVUfbZ8b1w1Phc8i8OoFySdAQyHkS993o9X1lx9auQyUSzSmXZOWF1dZkm7QrvBKI2vZFVYz+B9M2WhADzUt8xN1WQSoFkp37Rik+JKEdTSden0Xu5vtQv3T7RjHIpzq5wjHFrQ+AeISDvH8SUDfMSV57LJE2CkJKwgU9Rv2WXGTBJhvElg1Y8h9v9P4vcjXTsU2Kc9x5jquRYD76r8aIeeqS1c7cr24qHxxdjrnW7UgKzvF5asLuuFFqfkdArT566itcui64amgSTeusgD4RFg1AsdlBVR5kgSo66auh4EmHmV1z1sx5FqMP56+T/xmscxlzVs8nO9hovASQ67xipoYpUlH4aSseBplHEsYJG05mSdt1XfaVrQ+S3A1AiRP3ly/4TTLYVI6vu7sJEHiEzGyvmrST1Z3+sT0RdDjllyf8Kum7Mqf6/cu/6Ty67wvH9XUv6suixagvnarl4eB9nee1bleSH9pt3EeOij7usdZ0yRcsQQQoMXyJDYPAZ8wa+SNwydAqxFhrm5CIYoLQJ3zde8pTFEuLvTzPgyLyE8WAepKRw/+LGPHXHEU7SdL3fOvL7Aznxdknvkdz0PaC49PuNV7DGxe0RIvn68cSQLMJ2LiadRyHOfoE7/V9BIoX76XvqTy67pWFaC++lbZinLVWMKLSpN4qieAAK2eGVfUQMAnzOJWhxqSqvrSRgtQnzivukCOC9pJgKqYrnUrHRhK8woF6d9td3fW5bqUuSQR4ntZqPfDt5ECtEwRE3/h9N0fksY3uxqYaxxjWt3rfKsKUF+7dbGq1q+Rz5Fq89rJ4RGgnVz7DSi77wGSZvUpI6u+B0z8geTKk09oJ1lAXQ92V1p5/OIC1JffePg8aaZdU6sFVPE2oxXUVV6t2XqLHTfqWxMz6ffge5Anida0vOQ572qnrm7beFq+e0FSOXzXxNOo5Tj+e/fdH6rp+la+fPEllV/XIUBFwe0QoG4+zeKLAG2WmuiQfPje+qt5gLmQSdS4XJ6tOOMPJFf8PkHXagK0nkMjihCgqotqu0Bd9VeGn8rtW8opaVyhT4BiAS2m9uK/d59grFaA+u6FCND89YgAzc+uzCsRoGXSJi3v27sQpd14s+LzzZRNeqgrbt8DJv5AcuUnjwB1XaM8q4uvKBdfzL6RoqYoASo29eyKz/NS46svnzVL18dn9PqsgPV++DbSAuobN6m1aquZyOKqn42/0LvHdqC++0PS6hKu+H3jWdPug742U40QzluXvvtFUo+Jb9UD5bsoN2Kt3nXZ/rao/BHPIgIIUFpC6QR8Yx1rtWT5HtBp8fseMPUWoK5JSEVZhtMq28csPiEjLZ4857MKUNWbuqxd3db17Ir3PXTjQjErC9/vIf4w94mwpG77rHnJEi6vaInH7WtzSQLMZzWsp6XeJ/zSXmzj5Q6PfYIsqfy61pePZhWgvnab9/cT8uSz9QggQFuvzlo+x74bkQqYtxsxS7dmmphqtAB1PZCrfbhV20h8D/Y00Z6UjuJ60c4AT3Ia+qAdf6IuiwCVANeyRM/b2eWu5VcUb7WWqGheXN/zCgZXnPKrVoD62mk1daWZ3dqjPMkN7N9l9h7Rs64UrpEC1DcTvZ7W3yztNE00JvH11XtaXD4BmrX9+3qKXC+9vpex+EuTyu+7x6SVN4kd59qDAAK0PeqxpUrhu4GqMHktWVn2CU+6OSpN34O93hbQRt6gfXWi+tC+0FnW2XQNJUgSR74Hux6EWuMzHLeb5QWmmrpS3WdxvnSTyuaL18dd18ctQz5euiarJdAlJNKETCMFqG/x+Hpbf32iMWu7891rVIdpgixL/cfbjOKLO9cLr8IWLUB9gjcru3g5OG5dAgjQ1q27ls6568EXFkyiR2P6Rg7zL8A+227td+akuebhlB14wjhd3VO+h0I1N0iXCFNekiYh+R6u1QgclUVL/sgNWir46BZwEnJJTH0P1ywPd5+FKikO3wM1Xm5xqmUv7UU0qv+fRSxW00bUZo/07AmeJgJ8v584s6TS+rinLSvUSAGqcrjKXs2Lq8p/6vVzgpeqgXZjMl0bvuToRWvLYb0rXrh8oi1r+r77g8qZJkB99wldm/Q70/nQ+epe4dLanvxcdSD/tJd81z1G7LK+5ErMXjB5npIy8bpTHX5p1cq6CwLzr6kIIECbqjo6JzO6AR51kXsv6JCGHqbbDe9t1h7Sq+KBoHgktrSkjWunnDCutBuj/BstQJUH3409i8ARE9fs6jRx4psUofy5Jvn40tX1SQ9VXad9wdNcUn6ziEE9QNN2E0pLy3VeD37f/uW6Xi85GmYQipmkOJX/sybNc45nDeMaP6rn1qU6n6WuXG0li/hN685utAD19RTIcqvtXn3Wel9vSdK9wveCpbpRu4ta7HUu6nwiNgyb9FsJ/VxCLgyTVv9qe64doMLr6yFAfe3WZSAI85Wl7Sa94IfX89k8BBCgzVMXHZcT34MkCYhuivrTTUiTUbKIzjCetBty6N8MAjSLsHIJnCzCJk1YVCOwtt+gjxk6eNGsVdXF36b417VMe6DlEaCqM1+XuML4LEEKU43zPUCjcUk4Dx28qL1qZvYsq7HVZh+0VnrXRKpoHGkipJa60jjaLOI3SYApb40WoCq7zwKutpYmAtXeJtwy17khQNJLj8qelbvS33nT3mYVux2kfidKU9yvvneemWa3yc3i0upe12YVscrHmkO6gpch3SufmG535sqYftrvVen7XpTT2k4WfmI/ftvkFzjd3/5kLZ+uMmQRsSoDrvEEEKCNr4OOzkHWG2mtkLRXuLZrdLlmEKDKn+/mHpYhFDg61o39yenuGeIK53qoyL8agaUuM1mZsoqpNOGbV4BmESIqk+tBLv9qXNY0q4kzLazvQVrNC1y1deV6WWu0ABWvLJZIhZM1dGX7EiBrtNrZ6+8ap/DUNXJpbVV+1fxGFD6vc7XbLC+qWdLV/SDt9+u6V/juUWkCVHnK2m51f9PwobDuXpy50Ck8w/K60g7D8NkcBBCgzVEPHZ2LeotQiU9ZQ3xdcs0iQPWgdHWh19JYXA/WMF7fwyUMV82n62GWV4Aq/SwPYqVdZFd8ljSrYZMUVnlOs+BFw9fjt+Pj1QwCVAzqUXbF6xP+CuNaMk3+WZzWLHWNWXcJUMVf6+9U5ZS78+Ox4sFB5J/rN+tL2ycCfddHslHVV9eLU1UREbgUAgjQUjCTiI9Alu5UXxxJ/nqLPnLHvl7xqWubRYAqL/UQoVlvzkVb+XxiqhYBKlZZ2k7RXfG+tqJ85XU+XtF4VVd6WXF1SUbD+75nSbtZBKjKUoQQjDLJ+rKqNpt1DHs0/vC7foty19ybvASW/HwC1DerXHGkubCeZc1thAAt+h6jcmZ5cUjjwfnGEECANoY7qSYQ0EP9z/aGnNYllHBJ6il1Oe60aR8zerh/Bn0YiU9UZBVwis83yzXLIPmiRGgeFnpATMiwqkDILu1TD/TDd/xkCaWkcLUK0KwPs7xryyblWeeKqp9o/K7xb9Fw8e9ZRHj8mvhxKEpck6d0TTMJUOWniLIrHlkkDxmV7WVV4SUAT5s4t+r7VSiUfF35PgGqPPjuWQoTd7ofHLtLv2BsqsuKrPagWelJzmfB9FlAFWdR9xjFVfQLpuLE1Z8AArT+jEmhCgJ6qOumeoftFsojRHVz1fIxvlnISVny3czLFqBhHn0PqjBc0mdeQRPGJSZ5XgpUD3oo6AXAN/ShVgGqvGbpFleesi7zEpY/y2deRtG49bDXpJWk5bGi4Vzfa8mH6mqsfWHz1ZXSbzYBqjzVUvZa2KvtuqyIylvURYWS73edRYAqbrX9LJPKFFYvhAdbkR1OIGykAFV+5GqpO93fdrG/m2FDFlmUF8XI/1YhgABtlZrqwHzqxvTESwu8k2skLFays003ssIzae2+rOg0seFmu5xTmtvCjpnKKhC0xMvsD9NisuO37JjUapwedI/bB43W9pxqmbicHqhisfEXehV2Y1ZdKO1pdocj18oDeiCsZWfdZhGeYRlUNs1KTnOaSZ60I088vB7oT9iJWC6nvMV3YnKFr8ZP7Ue7Cr1gJ0tMzzDTeIgVA8Ps0mJF1pPyq7p64DnbTuyMZ1ddKf2NbTuppq4Uv6xfaU6TRpKWjUoK76uvvUd8stJC0vVJ58I68E3IC19Ui9ozXCJw8hPzzUN2hYM48/D+FBdK4W8qqRw6V235w/ji94cw/aT7l6sOXHV5weS5QTtPy3vWYU/R67O226LrLpoHvpdLAAFaLm9Sy0lAS/1oGZOo01aBAxdbNMM1er4Tvqv7T11YWtpHn2Ix2ArPwUt1ZbJi1cKokWnXku+yrw05Kd2ZVmSrfuQGL2Vn9378PThRx39hHhrRTupYrExRh/eMaNm1HFa9+euFaua7i+5VSktpZrEsZypUxkDKQ+jKamthekV8dnK7LYJfq8SBAG2VmiKfEIAABCAAAQhAoE0IIEDbpCIpBgQgAAEIQAACEGgVAgjQVqkp8gkBCEAAAhCAAATahAACtE0qkmJAAAIQgAAEIACBViGAAG2VmiKfEIAABCAAAQhAoE0IIEDbpCIpBgQgAAEIQAACEGgVAgjQVqkp8gkBCEAAAhCAAATahAACtE0qkmJAAAIQgAAEIACBViGAAG2VmiKfEIAABCAAAQhAoE0IIEDbpCIpBgQgAAEIQAACEGgVAgjQVqkp8gkBCEAAAhCAAATahAACtE0qkmJAAAIQgAAEIACBViGAAG2VmiKfEIAABCAAAQhAoE0IIEDbpCIpBgQgAAEIQAACEGgVAgjQVqkp8gkBCEAAAhCAAATahAACtE0qkmJAAAIQgAAEIACBViGAAG2VmiKfEIAABCAAAQhAoE0IIEDbpCIpBgQgAAEIQAACEGgVAgjQVqkp8gkBCEAAAhCAAATahAACtE0qkmJAAAIQgAAEIACBViGAAG2VmiKfEIAABCAAAQhAoE0IIEDbpCIpBgQgAAEIQAACEGgVAgjQVqkp8gkBCEAAAhCAAATahAACtE0qkmJAAAIQgAAEIACBViGAAG2VmiKfEIAABCAAAQhAoE0IIEDbpCIpBgQgAAEIQAACEGgVAgjQVqkp8gkBCEAAAhCAAATahAACtE0qkmJAAAIQgAAEIACBViGAAG2VmiKfEIAABCAAAQhAoE0IIEDbpCIpBgQgAAEIQAACEGgVAgjQVqkp8gkBCEAAAhCAAATahAACtE0qkmJAAAIQgAAEIACBViGAAG2VmiKfEIAABCAAAQhAoE0IIEDbpCIpBgQgAAEIQAACEGgVAgjQVqkp8gkBCEAAAhCAAATahAACtE0qkmJAAAIQgAAEIACBViGAAG2VmiKfEIAABCAAAQhAoE0IIEDbpCIpBgQgAAEIQAACEGgVAgjQVqkp8gkBCEAAAhCAAATahAACtE0qkmJAAAIQgAAEIACBViGAAG2VmiKfEIAABCAAAQhAoE0IIEDbpCIpBgQgAAEIQAACEGgVAgjQVqkp8gkBCEAAAhCAAATahAACtE0qkmJAAAIQgAAEIACBViGAAG2VmiKfEIAABCAAAQhAoE0IIEDbpCIpBgQgAAEIQAACEGgVAgjQVqkp8gkBCEAAAhCAAATahAACtE0qkmJAAAIQgAAEIACBViGAAG2VmiKfEIAABCAAAQhAoE0IIEDbpCIpBgQgAAEIQAACEGgVAgjQDDU1+6OFZtZHGQISBAIQgAAEIAABCLQBgUFLdtW1FAjQDHgnTJpj7pyyIENIgkAAAhCAAAQgAIHWJ3DMLn3NsCG961YQBGgGtAjQDJAIAgEIQAACEIBA2xBAgDqq8tOf/rQZMGCAI0QxXgjQYjgSCwQgAAEIQAACrUEAAeqoJwSoAw5eEIAABCAAAQhAICcBBKgDHALUAQcvCEAAAhCAAAQgkJMAAtQBDgHqgIMXBCAAAQhAAAIQyEkAAeoAhwB1wMELAhCAAAQgAAEI5CSAAHWAQ4A64OAFAQhAAAIQgAAEchJAgDrAIUAdcPCCAAQgAAEIQAACOQkgQB3gEKAOOHhBAAIQgAAEIACBnAQQoA5wCFAHHLwgAAEIQAACEIBATgIIUAc4BKgDDl4QgAAEIAABCEAgJwEEqAMcAtQBBy8IQAACEIAABCCQkwAC1AEOAeqAgxcEIAABCEAAAhDISQAB6gCHAHXAwQsCEIAABCAAAQjkJIAAdYBDgDrg4AUBCEAAAhCAAARyEkCAOsAhQB1w8IIABCAAAQhAAAI5CSBAHeAQoA44eEEAAhCAAAQgAIGcBBCgDnAIUAccvCAAAQhAAAIQgEBOAghQBzgEqAMOXhCAAAQgAAEIQCAnAQSoAxwC1AEHLwhAAAIQgAAEIJCTAALUAQ4B6oCDFwQgAAEIQAACEMhJAAHqAIcAdcDBCwIQgAAEIAABCOQkgAB1gEOAOuDgBQEIQAACEIAABHISQIA6wCFAHXDwggAEIAABCEAAAjkJIEAd4BCgDjh4QQACEIAABCAAgZwEEKAOcAhQBxy8IAABCEAAAhCAQE4CCFAHOASoAw5eEIAABCAAAQi0BIGvDutlHnp2gZn9UfNkFwHqqAsEqAMOXhCAAAQgAAEIFE5gzxF9zC0PzzdvvLewkLh32rS3GbtpX/PCzAXmxKvmNI0IRYA6qhcB6oCDFwQgAAEIQAAChRIYN6qPGTmsj3ndis8TrpxTswiV5XP8qH7deSwq3u4Ia/iCAHXAQ4A64OAFAQhAAAIQgEBhBEJLZRjhrI8WidBpr+ezhA5ftZc5cswn4jOMt1lEKAI0rJGETwRoAhROQQACEIAABCBQKIG4+AwjlwidMGmuediO36zGrTyoyxw3tp8Z0L8r8bJmEKEI0MSqWXQSAeqAgxcEIAABCEAAAjUTSBOf0YgnTJpj7pySTYQus2SXOWWvdPEZxttoEYoADWsi4RMBmgCFUxCAAAQgAAEIFEIgi/gME7ry3rnmmnvnh4eJnxKfsnwOsp9ZXK3d/FnSSAuDAE0jY88jQB1w8IIABCAAAQhAIDeB+AShLBG5RGi14jNML283f3h93k8EqIMcAtQBBy8IQAACEIAABHIRSJsglCWyJBGaV3xG06ummz96Xd7vCFAHOQSoAw5eEIAABCAAAQhUTcA3QShLhFEROqC/MSfv1T9zt3ta/BdMnhusP5rmX/R5BKiDKALUAQcvCEAAAhCAAASqJlCU8Lp9yjxz0eR55thd+pmhg3tVnY/oBVFBGz1fz+9FcUjL4+zZs80777yT5l36+a4ZM2ZkXlALAVp6/ZAgBCAAAQhAoK0JyGK5l93tSAvO1+o0fnNgylJLWeNuhPhU3hCgjhpCgDrg4AUBCEAAAhCAQG4C4a5HuSMo4MJGiU9lHQHqqEAEqAMOXhCAAAQgAAEI1ESgmmWYakoo4WJ14Z8zaV6CTzmnEKAOzghQBxy8IAABCEAAAhComUAjRGijxaegIUAdTQcB6oCDFwQgAAEIQAAChRAoU4S+MHOBOfGqOWb2R4VkPXckCFAHOgSoAw5eEIAABCAAAQgURmDb4b3N3iP6FhZfUkTNIj6VNwRoUg19fA4B6oCDFwQgAAEIQAAChRLIsztS1gw0eu/3eD4RoHEikWMEaAQGXyEAAQhAAAIQqDuBNT7Xyxy5Y18zoMbllaIZbTbxqbwhQKM1FPuOAI0B4RACEIAABCAAgboTWGlQlzl+bL9CRGgzik8BRIA6mhEC1AEHLwhAAAIQgAAE6kZAllCJ0CJcI9f7TMs/AjSNjD2PAHXAwQsCEIAABCAAgboQWGbJLnOcFZ+D7GdRrtlEKALUUbMIUAccvCAAAQhAAAIQKJxAPcRnmMlmEqEI0LBWEj4RoAlQOAUBCEAAAhCAQF0I1FN8hhluFhGKAA1rJOETAZoAhVMQgAAEIAABCBROYEB/Y07eq3+h3e5pmWQnpDQy9TvfNWPGjIVZo0eAZiVFOAhAAAIQgAAE8hKQ+Dx2l35m6OBeeaOo+rr7n51vzp40t2E7ImEBdVQZAtQBBy8IQAACEIAABAohcOiYvmaTVXsXElc1kTRyZyQEqKOmEKAOOHhBAAIQgAAEIFAzgXGj+piRw/rUHE/eCBq1TigC1FFjCFAHHLwgAAEIQAACEKiJwE6b9jZjN63v/u9ZMtgIEYoAddQMAtQBBy8IQAACEIAABHITKEJ8ajKRxGMRIrZsEYoAdTQdBKgDDl4QgAAEIAABCOQiUIT4jI7f3HZ4b7P3iNosqbM/WmiOvGiOecMK2jIcAtRBGQHqgIMXBCAAAQhAAAJVEyhiuaWo+Awz8NVhvcz4Ufm27pT4PP7KOWba6+WIT+UZARrWXMInAjQBCqcgAAEIQAACEKiJQC0Lzru6yrV//JE79jUD+le3hafE59SXFtRUpmovRoA6iCFAHXDwggAEIAABCEAgN4E8ItQlPsOMrDSoyxxv95HPKkInTJpj7pxSrvhUXhGgYY0lfCJAE6BwCgIQgAAEIACBQghIhB5u1wDNsgB9FvEZZiqruL1g8lxzy8Pzw8tK/USAOnAjQB1w8IIABCAAAQhAoGYCWXZByjNByCdCG70nPALU0XQQoA44eEEAAhCAAAQgUAgBidC9RiQvSF/LBKE0Edpo8SloCFBH00GAOuDgBQEIQAACEIBAoQSSdkU68qKPapqdHu/mbwbxKWgIUEfTQYA64OAFAQhAAAIQgEDhBKJrhBY1QSjs5n/cznS/ePK8wvOcJ0IEqIMaAtQBBy8IQAACEIAABOpCQCJ09kem0AlCEqGKs1kcAtRREwhQBxy8IAABCEAAAhCAQE4CCFAHOASoAw5eEIAABCAAAQhAICcBBKgDHALUAQcvCEAAAhCAAAQgkJMAAtQBDgHqgIMXBCAAAQhAAAIQyEkAAeoAhwB1wMELAhCAAAQgAAEI5CSAAHWAQ4A64OAFAQhAAAIQgAAEchJAgDrAIUAdcPCCAAQgAAEIQAACOQkgQB3gEKAOOHhBAAIQgAAEIACBnAQQoA5wCFAHHLwgAAEIQAACEIBATgIIUAc4BKgDDl4QgAAEIAABCEAgJwEEqAMcAtQBBy8IQAACEIAABCCQkwAC1AEOAeqAgxcEIAABCEAAAhDISQAB6gCHAHXAwQsCEIAABCAAAQjkJIAAdYBDgDrg4AUBCEAAAhCAAARyEkCAOsAhQB1w8IIABCAAAQhAAAI5CSBAHeAQoA44eEEAAhCAAAQgAIGcBBCgDnAIUAccvCAAAQhAAAIQgEBOAghQBzgEqAMOXhCAAAQgAAEIQCAnAQSoAxwC1AEHLwhAAAIQgAAEIJCTAALUAQ4B6oCDFwQgAAEIQAACEMhJAAHqAIcAdcDBCwIQgAAEIAABCOQkgAB1gEOAOuDgBQEIQAACEIAABHISQIA6wCFAHXDwggAEIAABCEAAAjkJIEAd4BCgDjh4QQACEIAABCAAgZwEEKAOcAhQBxy8IAABCEAAAhCAQE4CCFAHOASoAw5eEIAABCAAAQhAICcBBKgDHALUAQcvCEAAAhCAAAQgkJMAAtQBDgHqgIMXBCAAAQhAAAIQyEkAAeoAhwB1wMELAhCAAAQgAAEI5CSAAHWAQ4A64OAFAQhAAAIQgAAEchJAgDrAIUAdcPCCAAQgAAEIQAACOQkgQB3gEKAOOHhBAAIQgAAEIACBnAQQoA5wCFAHHLwgAAEIQAACEIBATgIIUAc4BKgDTpt6LbNkV91L9sZ7CyvS8KWbdE1FJJyoIDCgvzED+te/TisStidmf7TQ/iX5cA4CEIAABBCgjjaAAHXAaUMvicAz97eKpY7udSs+v/+HSlXyW5vuIIf43fWMD+uYq/aNeqdNe5uxm/ZtSAFvnzLPnDNpXkPSJlEIQAACzU4AAeqoIQSoA04beiFA269SEaDtV6eUCAIQaA8CCFBHPSJAHXDa0AsB2n6VigBtrzrVkIoNV+2VWqjX3zVm6ksLUv3xaC8Cw21bGOjotHro2QUMg2niKkeAOioHAeqA04ZeCND2q1QEaHvVqe83OmX6fHPSVXPbq9CUJpWAT8AcYoc7MX4+FV/DPXz1V2sGZ8+ebd55551aoyns+q4ZM2ZUzgBJiR4BmgKmTU/7Hm5FFJsxoEVQzB4HAjQ7q1YI6fuNIkBboRaLy6NPwCBAi2Ndj5h89VdrmgjQDAQnTJpj7pxCt1EGVHUN4nu4FZE4ArQIitnjQIBmZ9UKIX2/UQRoK9RicXn0CRgEaHGs6xGTr/5qTRMBmoEgAjQDpBKC+B5us+yyOjc9XNus5ll2Avykh+dXlIZZ8BVICjmxxud6mbWGZF+GafTwPs5lm668N3v37guvLzQP2zFouOII+H6jCNDiWLdCTD4BgwBt7lr01V+tuUeAZiCIAM0AqYQgvodbmvWyiKwhQIugWHsc1EPtDOsZg+83igCtJ/3mi9snYBCgzVdn0Rz56i8aNs93BGgGagjQDJBKCOJ7uCFAS6iEBieBAG1wBXiS9/1GEaAegG3m7RMwCNDmrnBf/dWaewRoBoII0AyQSgjie7i1mgANl6xZeVAvs7btih64WFf3Yvcqy8x3F5jnbTfxE3bZmqK7itX1vZFdImWwXVx/lcGLlkrRjkTaHUjDEMK0H7Rd1M20bE49BKhYbDEsfemgP987v8dM3W2H9zYbf6FXwC1k9vzMBZlnd6exV53P+tDWu/184Ln55snpC3ukW+tPbMigLjNsiB3yYMurOpcLN1eItrcXX19QVdrjRvXpztpA24Y2WbV393H8i4bJ3P9s5RCXiybPq1iOR+ODw/zF49HwifhQmbAe1x7SO1j6R3Xzgq2XkKdvHH9YL6tYToOX6hWkrd+D6la/w1vs0JyiZmwrLQ09GWp/+/Hf38x3a2sDuq/sNeKTOomz+7udzxD/TSexC9uE+MV/A/E4w+Ov2t+R2lfoVBdpdagwagtqE1H3wHPF3++i8fM9OwEEqIMVs+AdcNrQq10EqB4QEjG+8YzRKtTDQDv33GEfHnkfgnnSVR6KSDtallq+10OA6qE5flS/1Gwdf+Wc4IGt9nf4mL5m6MfiLXqBGCXtoBUNo3S065PrgRwNr++q86wP//i14bHExS5WzA2zYqAalzXtyw9drJpoE8MmWcJcD7+oJVX1crAVwb7yqY5OsHUZ//1kvV4Zz8oksZD2ZJ66kEi70Ar0eL7T0vDdJ6MGlZWt2D54VHKbjsefpex6GRk5LF38xuNMOtY47mvsSx+u8QRcv8EicocFNAPF6A82Q3CC1ImA78aaRQTkzVpRwkcPoCN37OucSOPKo8o44Za5FRYM1zXy04Pm8B37VSV+4nEq7fMnzy3cGhtPx3VcVD1E08giQPXwP25sOj9X26tG4ETzFf2e56GsF46DrLhwWSSjaaR996XdSAEqtqfs1S/z70nWNonQadaiKafrXfWaxER1nSRkk8KG51QXh9mXF59IDsMnffrqIbzGd58Mn2e+dh/GF/30lR0BGqXV+t8RoI46xALqgNOGXr4bq0sE1IqjCOFT5JJD4UMkS7kkPvWQVZdkEa6atItILxpHEfUQjU/ffQ9iWUDVRe+y7KS1vSLZ32hXeLjYWsKyuDzCyhWvS/w0SoCePnGuOXmv/lW/VKmujrroo+D3UK34DBmpa//oi+eEh87PIutCll+Ve7YdJpPmfPdJ/X41vOPM/a0qzuFCfkl5QIDmANrElyBAHZWDAHXAaUMv3401TQQUgaJW4aMu971H9C0iK91xnDJxjtcaWeTDL0xYVqSjLqrsygz96/lZaz0k5c0nQPXAdnXRK86ktif21VjnkvIWP+cSgtGwv9yzX+JQgWiYar/L+h0fd6k4GiVAp9ix0RrSkMepLEPti5nrpcIXb5a6qMfvT13yZ1gRmuZ890m152qHgsTTSnsZQoDGSbX2MQLUUX8IUAecNvTy3ViTREBRGGoRPr58R/P4/9k7l1hLjjLPZ9Wtst22ps2M2iXNqG1s4ZFolzddGFAtgPJsbDAyEsgWC7uHl9SDCjYMGDZNu5sN2Iw3TYlBQm5m7EXLnraEBS3Xhjaw8PByb1yGBZYfBbOoQhrcGhvX69bE/5ajbtyoyC8emeecPOf8UqrKvCcyIr74xZcZ/4xHphY9aCvprZQQ1LzDVE+ET7O0QRA7LTzSIpLUHEefnt+Hc/D8b/PYD6mHPvtyAlRscvM2U76XszW0pyQPf76fk+r/jve58vjzlacWPWkrqfM+f1uEAJUt8vtcvfiyxnuVXd8oL7nO4rj+b9nwySNGV6Q7saYBr/GBvocB2Za736j3tqS+fTn79p848sYl957S+01fmvq9RNhb8Qkbj0CN/7bkyhzQAmqLHHIsMG9tTsndWNUgfMf1bLRuv3ArvvvEXE5MfPShN3qzzcWV6FSPQrjASHPG3uFWqed6Kvp6ImTMda6H5wE3RGltutlrdW9YbnH+C7eKNjd3MLVwxMprjLAcS6se+vIvFWxhfP+2AP0mESTxEC5CKpluoUUd8YpkzRH+gOstt9jHeYV26TjHSD1o/+uZsxfnQSqOX6CW61FMCR/x85seYKyefomf7//LpdMIUtdeTeOnByKtVNf2brcKv1aY+viqV61Mt/j7smp/nxvK9/NJw991XOJXyvdxt+AmXJUuH8hN+eh7GFC+ufukzgk31cmL7s0H2vRWjNJ5qimhKNuvuXo79dz9S/drlSXcXj5xvpdpeB7HsydQcw22WIMALaCGAC2ANIdTam+stSZZPUu5Rr1P+OQaIYkJa0GDhMGX77KHU1M9ESp7rjci59e5m09KjNQyrz2/tR6sfHJ1FMaV4E+9jke+6Vcp5/xUIueB79oLyXIC9kE3/UKiLd700PKFO/tX9KdEQ5hGLt+hw781Pec5/5PdfddPrhxhmVPXgeqw740Hubg+POerEl/ypb4tN22nry5z/ufzE7vUgkbFL3kALanLXB0u4iHWl599nkCu/vIp2GcgQG0+W6GpG1RBNE4ZmUDpjbU121kIUOsClhC5r2AupUSoFgz0DRf2NUQSVnrHqHo1NNyo3in/rlH1vn3r6KU9USG7nDCzel/DdMY8zjXqfQ8Clg25cvq4ln/4c7TPpVd6P/mcWzXd1xPX1/irB0rvd1V9q961+Xda5npOda587eHD/a9VyqWRu0b77Fbe8WZdOzo3d/3oXZh3uE+3WlvftaM4uetO5/TFH/ogoLS1WWXomwKQqwOl2yfcFea3HP++/H187XNpIEBDWtM7ztXfUIsRoAUESxuMgqQ4ZQCBkhvrgOQ7S2C0CJ+cvSUi0JfH6tGpadR9eiV7iZn73er5vq3G/r40an9vqYdcHjnBqPi53qowD+umnRNwYTo5/n0932Ea4bEEVTjVIgwLj605nTn7cz5f46sWR9mb87+cLUojJ4DucSJW7+vt2/oEqDX6kGMY5pUTwakpACXlLmnTcv4nO3M+mKvDHP+QBcfzJ5Crv6EWIUALCJZcrAXJcMpAAiU31iFZjC1Ac70gqcajz/5c2Vt6/vry8r9bvS86JycAfDpj7hchQGsFg9WDWDttwSqv5a+tzA+43tP7jCH8HIucn44pQEvK//Dh/pGDEltyDyd9AtSqt9rr5qvuPaeal5raUv6UqwOlkxOOPi+Ln87JCcicgMnF93awXwyBXP0NtQoBWkAQAVoAaQ6nlNxYh5hhNWhWg6I8UwLQ6rVUHOVXul3pRkUtYTD0Rq6eFg3xX7dv19bQrT41mVuMUNuQlpbVOq+lHqz0FJYTGbl5j2H6uV4j9aS+5BZZlG6Hb+//clJKfJSm68/TNeXrXJ9Q7Bvy9+dPSYCW+LzlL7MSoLqWrIcQTV3RJ25LN+srVqlpMLn7ZK4OQ7ss8avzcnWQEzC5+KEtHM+fQK7+hlqEAC0giAAtgDSHU3I31qEmjC1ArTl8Q22N41u2h+eqcXz7m98Dj78DH55XcrwuArSvlyvFKCdmU3Faf0uJj1RaqvPrXA/a9e7hQi/Gv8Ed+7nAqfOt33LiJXeNlog+n3+u8SsRL4sQoLmHEF++Mfaph6Mp1cEYdTgGJ9JoI5Crv7ZUt2MhQLdZ9B4hQHvRzDUgd2NV46gV5a2bFjX0zZGzGjLll+oBnfXFG5Yz56NqFK2elDCt0mME6KWkcr3el8Zo/yXHX2LzPfs3uv/k/vUtYKvNHQG6k1jq4SQ39WZnCsP+Sgn63H0yFafPitw9LPcQMDR+n138Ph8CufobagUCtIBgrnEvSIJTRiCQu7HmGschJiyrABWzT9+2Jzuc3sImJ4Ba0szFaamHXJq5XsuUyOhLcyoCNLd4ps/+3O+5ayx3jc5T/Kgslr+U2NLiG7k4OcY14akyTKkOcgImJ2BrWHDu+ARy9Tc0RwRoAUEEaAGkOZySu7HmGschJloNmdKdYg+oeLV+61plEk/rhd4IUFHauU1BgForsHdae+lfGgWwektz11juGk0JpkutuPBLrvErES/WdVtiS05Mph5OcnH6ytvye6oMU6qDMeqwhQtxxiGQq7+huSBACwgiQAsgzeGU3I011zgOMdFqyJRuSoDm5oBKwI21xV/UUbo1QkTs9FlGfRHlZfdFmeePb24JEV7D1P+ux1Td5V4erjl78ZdfUumU/Pa8+xb6j4/tXMySyz9MV2LzxKvbda7FUfoiz7K8hmmqAjQ3BC/ReMJdb2Nsum6fcF9SCrfcfTIlWsP44XFOgOTqYGj80BaO508gV39DLUKAFhBEgBZAmsMpuRvr1ARoTgCWvgqlBW3JQgg1RE8/f27rizqpua+5NOgBvbRmcr1ffV8wujSltl9yD0q6RlRv4Wdf45wQoNtEcvWZ6gHNfQJ3jLcXbFt46VHuPokAvZQZv6QJIEDTXLZ+fctb3tJdeeWVxhnjBCFAx+E4NJXcjXVqAjTXG5XrPRjCKzcHMNVwxvkhQC8QKWHl2eV8dJbiI1df+ub33z5+unehnS8DAtSTyL+iK+UbJa9hevTp8UY/tq29cJTzQQRoTIy/+wggQPvIuN8RoAacFQzK3VinJkBzgmCWYsS6cZRyytlPD2j6IrNe3l3T+KdT7/81N/+09MMHCNBtxi09oIptvT+z9PrbtqLuKHefrPFB6z4iq3IP0UPj15Wcs8cmkKu/ofkxBF9AkB7QAkhzOCV3Y53ljT03tJmaAyoklhiRvV985FS2R0rpaFjvP7vPAr52qtuaQ6i9f22U5hT+wr3YOhxGtxrA0gYoN4UAAaqauXTLcSt9Z6tS1jxifdddcwbjOv/l8fPd79zvfssJ0D4f9fG1zz105K6x3DWqXtgvPVr2qrRc45cTPyqPdd2WXAetAjRXF0N9QGVTXZx8tduat6u//Zarg5Jy+7SG1sHQ+N4O9oshkKu/oVYhQAsIIkALIM3hlNyNNdc4DjHRasiUbl/jnmuISl4mriG9r917ee+KdAnQTx5xijTYLAFaIgLE+gH3CUBrRTQCNAAeHJaIuJIHj5zvxCImd37JnOOcn+eusdw1Kl/97LfLHrpyjd+UBWhuHqg46p3F4QNE4EIXD3PTeFJtU64OpiRAYx++WHAOJkEgdw0ONRIBWkAwdZEXROOUkQnkbqy5xnGIObmGuU+Algq5f3QrWVONkeJ/3vWCXb8v/S1olSklBHMr8K0bv/IseX1TKt8hjEvittaDlXZrL5eVZu7GLV994Lunu+PujQPxpgeODx/c033wwJ446OLfKV/PiRXrYUd53ut62G/d35+nMk/le9Eod5Cb/6hz9SaAf3r2gr//kcv3D+7ZKeX7OYZTFqAqZ85+sdQc0vhNBoorjqrPuw/u1Z+9W4pB7j45TwGauw95BurN1ybb9SYGtmkQyPnwUCsRoAUEEaAFkOZwSu7Gmmsch5g4RPjkeqa8XWoYjr1581XP4w1u2D33PXbFTTVCJXlKQOr1Tb7xF99bbtxd/OUcBKivuUv3uV5QH0O90c+5Ovfv39TnUW92n0q1ep4VN3VPKskzrnMJwHe6OpfwtN756u0tucZy14pPy+/7hHGu8Uv5vU/T7y1bSoTYkIcTXU+5UQTZKabPuWtfe22qh3ffmP96Vd/1l7tPlpR7yxD339A6yC2G9Pn4fWo0x4exnz+BXP0PtQgBWkAwdbMviMYpIxPI3VhLGsdWk6yGTGn29YAqTL0ZX77rMrMXU+e1bKlVuEqnRIy05BfG6WsAw3PGPh5SD322DBEZfWnqd/Uo3mH0YlpxrTDLz605x1aaYZgXw+Fv/tjK259TKzr6poTkGr+pC1DxyPVKe2a1e9VD3xB+7j45TwHach8qqddaXpzfRiB3Dbaluh0LAbrNovcIAdqLZq4BuRtrSePYavBQ4SPbS4a1a+zLCcDc8FcuL/VMqSemr2csl38u/ZbwofWQynNWAlR55RYkpeyxfrOEh+INFTxKX71xfUPxJdeYfL2k5y8sZ2p+aq7xKxEqlr+UCLExfKNkNCJkkTvWA8J9j/TPH83dJ0vK7W0Yow5yafi8/J721pNY/L627motRoAWEOOCKIA0h1NyN9aSxrHVTKshU5pWD6jPU/bn5nP6c3P7vmHLMJ56Xq3FS+G58bHvlbLKjQCNqaX/HkuAqE6+/uSZi1Mm0rm197x6cfuRgxuDBKjsqhXCqVdE5Rq/ZRGg4jGWD6iOHnRzEOX94wAAMAdJREFUh19JzB1WPtpy98l5C1DZU/PwXXJvu1BS/p81gdw1ODR/BGgBQQRoAaQ5nJK7sU5dgHpEaoxK59z5OH6vMh556kzxRH0xswSFTzfca5HIfz96Zuu1TgjQuk9xhhzDY/WkaUFJX29yeG58rB4vNcrxJxfj88K/awWPF5+aD2z12tZcYxKhmoJQUubUO3Fzjd8yCVDVTa0QC+tTx5pu85RbvBW+bi0+R3/n7pPzFqDeplIRWmNfqvz8Nh6B3DU4NCcEaAFBBGgBpDmc4m/gfVmdeHWz+8rjZ/qCB/2uC3Hf1f0r0fVqmZpNZfmza3d1h27ayC40kgB5zn2bXSuHW1eISgDl8tKN/3G3Gj/Mwyr3T5xQneUXXVI8LXt0fm09KI6+3f2xQ/2rjb/vxJ8a/jE25fU+V+e5hUaq8xddj+fPXth0n83Mi46UbfIxPXxYC1rUq/rTF87tEDaaw6k4qa32GpMN73W+9663bfTOgZbf6ZOw8WpwCeGbr03bIdv65kCGdlv+Ir4PuR5la5uFb2he5PscE5UtJ87FRgsTS4SnL0fuPllSbp/WGHXg09I+dx/SA45GVmoetsL0OR6XgK6fkoWwrbkiQAvIIUALIHHKIAJ6b6BWPl9z9XYy6ul4+cTOl41vh7YfqQG86ooLi6OUis8j17PSniMxUwT66vzkqxfqfMz6iPOalW+lyul/05QQiSO/wl+9rf4NDP6cdduLyXXX7L7kup+FD0yNrfdJ2SU/0EPXmD4/tfIuoz0IUKPW+BSnAYcgCEAAAhCAAAQg0EgAAWqAQ4AacAiCAAQgAAEIQAACjQQQoAY4BKgBhyAIQAACEIAABCDQSAABaoBDgBpwCIIABCAAAQhAAAKNBBCgBjgEqAGHIAhAAAIQgAAEINBIAAFqgEOAGnAIggAEIAABCEAAAo0EEKAGOASoAYcgCEAAAhCAAAQg0EgAAWqAQ4AacAiCAAQgAAEIQAACjQQQoAY4BKgBhyAIQAACEIAABCDQSAABaoBDgBpwCIIABCAAAQhAAAKNBBCgBjgEqAGHIAhAAAIQgAAEINBIAAFqgEOAGnAIggAEIAABCEAAAo0EEKAGOASoAYcgCEAAAhCAAAQg0EgAAWqAQ4AacAiCAAQgAAEIQAACjQQQoAY4BKgBhyAIQAACEIAABCDQSAABaoBDgBpwCIIABCAAAQhAAAKNBBCgBjgEqAGHIAhAAAIQgAAEINBIAAFqgEOAGnAIggAEIAABCEAAAo0EEKAGOASoAYcgCEAAAhCAAAQg0EgAAWqAQ4AacAiCAAQgAAEIQAACjQQQoAY4BKgBhyAIQAACEIAABCDQSAABaoBDgBpwCIIABCAAAQhAAAKNBBCgBjgEqAGHIAhAAAIQgAAEINBIAAFqgEOAGnAIggAEIAABCEAAAo0EEKAGOASoAYcgCEAAAhCAAAQg0EgAAWqAQ4AacAiCAAQgAAEIQAACjQQQoAY4BKgBhyAIQAACEIAABCDQSAABaoBDgBpwCIIABCAAAQhAAAKNBBCgBjgEqAGHIAhAAAIQgAAEINBIAAFqgEOAGnAIggAEIAABCEAAAo0EEKAGOASoAYcgCEAAAhCAAAQg0EgAAWqAQ4AacAiCAAQgAAEIQAACjQQQoAY4BKgBhyAIQAACEIAABCDQSAABaoBDgBpwCIIABCAAAQhAAAKNBBCgBjgEqAGHIAhAAAIQgAAEINBIAAFqgEOAGnAIggAEIAABCEAAAo0EEKAGOASoAYcgCEAAAhCAAAQg0EgAAWqAQ4AacAiCAAQgAAEIQAACjQQQoAY4BKgBhyAIQAACEIAABCDQSAABaoBDgBpwCIIABCAAAQhAAAKNBBCgBjgEqAGHIAhAAAIQgAAEINBIAAFqgEOAGnAIggAEIAABCEAAAo0EEKAGOASoAYcgCEAAAhCAAAQg0EgAAWqAQ4AacAiCAAQgAAEIQAACjQQQoAY4BKgBhyAIQAACEIAABCDQSAABaoBDgBpwCIIABCAAAQhAAAKNBBCgBjgEqAGHIAhAAAIQgAAEINBIAAFqgEOAGnAIggAEIAABCEAAAo0EEKAGOASoAYcgCEAAAhCAAAQg0EgAAWqAQ4AacAiCAAQgAAEIQAACjQQQoAY4BKgBhyAIQAACEIAABCDQSAABaoBDgBpwCIIABCAAAQhAAAKNBBCgBjgEqAGHIAhAAAIQgAAEINBIAAFqgEOAGnAIggAEIAABCEAAAo0EEKAGOASoAYcgCEAAAhCAAAQg0EgAAWqAQ4AacAiCAAQgAAEIQAACjQQQoAY4BKgBhyAIQAACEIAABCDQSAABaoBDgBpwCIIABCAAAQhAAAKNBBCgBjgEqAGHIAhAAAIQgAAEINBIAAFqgEOAGnAIggAEIAABCEAAAo0EEKAGOASoAYcgCEAAAhCAAAQg0EgAAWqAQ4AacAiCAAQgAAEIQAACjQQQoAY4BKgBhyAIQAACEIAABCDQSAABaoBDgBpwCIIABCAAAQhAAAKNBBCgBjgEqAGHIAhAAAIQgAAEINBIAAFqgEOAGnAIggAEIAABCEAAAo0EEKAGOASoAYcgCEAAAhCAAAQg0EgAAWqAQ4AacAiCAAQgAAEIQAACjQQQoAY4BKgBhyAIQAACEIAABCDQSAABaoBDgBpwCIIABCAAAQhAAAKNBBCgBjgEqAGHIAhAAAIQgAAEINBIAAFqgEOAGnAIggAEIAABCEAAAo0EEKAGOASoAYcgCEAAAhCAAAQg0EgAAWqAQ4AacAiCAAQgAAEIQAACjQQQoAY4BKgBhyAIQAACEIAABCDQSAABaoBDgBpwCIIABCAAAQhAAAKNBBCgBjgEqAGHIAhAAAIQgAAEINBIAAFqgEOAGnAIggAEIAABCEAAAo0EEKAGOASoAYcgCEAAAhCAAAQg0EgAAWqAQ4AacAiCAAQgAAEIQAACjQQQoAY4BKgBhyAIQAACEIAABCDQSAABaoBDgBpwCIIABCAAAQhAAAKNBBCgBjgEqAGHIAhAAAIQgAAEINBIAAFqgEOAGnAIggAEIAABCEAAAo0EEKAGOASoAYcgCEAAAhCAAAQg0EgAAWqAQ4AacAiCAAQgAAEIQAACjQQQoAY4BKgBhyAIQAACEIAABCDQSAABaoBDgBpwCIIABCAAAQhAAAKNBBCgBjgEqAGHIAhAAAIQgAAEINBIAAFqgEOAGnAIggAEIAABCEAAAo0EEKAGOASoAYcgCEAAAhCAAAQg0EgAAWqAQ4AacAiCAAQgAAEIQAACjQQQoAY4BKgBhyAIQAACEIAABCDQSAABaoBDgBpwCIIABCAAAQhAAAKNBBCgBjgEqAGHIAhAAAIQgAAEINBIAAFqgEOAGnAIggAEIAABCEAAAo0EEKAGOASoAYcgCEAAAhCAAAQg0EgAAWqAQ4AacAiCAAQgAAEIQAACjQQQoAY4BKgBhyAIQAACEIAABCDQSAABaoBDgBpwCIIABCAAAQhAAAKNBBCgBjgEqAGHIAhAAAIQgAAEINBIAAFqgEOAGnAIggAEIAABCEAAAo0EEKAGOASoAYcgCEAAAhCAAAQg0EgAAWqAQ4AacAiCAAQgAAEIQAACjQQQoAY4BKgBhyAIQAACEIAABCDQSAABaoBDgBpwCIIABCAAAQhAAAKNBBCgBjgEqAGHIAhAAAIQgAAEINBIAAFqgEOAGnAIggAEIAABCEAAAo0EEKAGOASoAYcgCEAAAhCAAAQg0EgAAWqAQ4AacAiCAAQgAAEIQAACjQQQoAY4BKgBhyAIQAACEIAABCDQSAABaoCblwD9Hz880/3LC5s7LNnY6Lp/80e7dvzGHxCAAAQgAAEIQGDZCPy/P5zvzp7bafXh9+/t/uO/373zxxH/ev3117vf//73I6Y4LKldv/3tb8+XJjEvAfrcK+e6//N/d5r1H/7tru7m65wKZYMABCAAAQhAAAJLTODHvzzb/eH0zgLccuNG9++uml1HGwJ0J+/kXwjQJBZ+hAAEIAABCEBgBQggQLuOHtAVcGSKAAEIQAACEIDA8hBAgCJAl8dbsRQCEIAABCAAgZUggABFgK6EI1MICEAAAhCAAASWhwACFAG6PN6KpRCAAAQgAAEIrAQBBCgCdCUcmUJAAAIQgAAEILA8BBCgCNDl8VYshQAEIAABCEBgJQggQBGgK+HIFAICEIAABCAAgeUhgABFgC6Pt2IpBCAAAQhAAAIrQQABigBdCUemEBCAAAQgAAEILA8BBCgCdHm8FUshAAEIQAACEFgJAghQBOhKODKFgAAEIAABCEBgeQggQBGgy+OtWAoBCEAAAhCAwEoQQIAiQFfCkSkEBCAAAQhAAALLQwABigBdHm/FUghAAAIQgAAEVoIAAhQBuhKOTCEgAAEIQAACEFgeAghQBOjyeCuWQgACEIAABCCwEgQQoAjQlXBkCgEBCEAAAhCAwPIQQIAiQJfHW7EUAhCAAAQgAIGVIIAARYCuhCNTCAhAAAIQgAAElocAAhQBujzeiqUQgAAEIAABCKwEAQQoAnQlHJlCQAACEIAABCCwPAQQoAjQ5fFWLIUABCAAAQhAYCUIIEARoCvhyBQCAhCAAAQgAIHlIYAARYAuj7diKQQgAIEKAif/9Xx34tXNrRhXXbGru/6a3RWxV/PU10+d7148cYGJSnjDvt3dlZfvWs3CUqpJE0CAIkAn7aAYB4EpElAjfuLV891rbn+Va7z3Xb1rZo34DhHl8rreCYZZbCrTa6e6i4Jt39W7u2v+eDbCZF5luv+x092vfnNBbN1+YKP72KG9Vejiep4VexklJq+9ccGn9PeshOE/HzvbfevoWWXR/Ymr32986vKt40X9FzOe5bW0qDKSb5oAAhQBmvYMfp0Zge88faZ76cT5qvSv37eru+lPd281SrMSBVUGreHJEghqvH90bLP7nTuOt+uu2dW934mcm6/dGCzclNf3n1Ve57rXnSiMt3fcuLv7wJ9vdPtdXkM3lemHrkxeqIXpXem0ifK6++DewWU6dvxc9/Tz57pf/HozWaa3O/9+3/7d3a3794QmNB/r4eCTR7bh/dVde4t4SRB9b4t9up7HtDPHZEyf8iAffPL0Vh3ob9XtF+68zAeZe/mk7l2vvbF9Wmt95RjPotzbVnM0FQIIUAToVHxxbewIe2VaCj1mA9iS/zrGkSB54pmzSeEU81Cv0l8c2tO968Y2cahG/qlnz8XJJv9+jxNsreLwJTcM+/UnzyTFdCoz9SDefXBPdU+vxMYD3z2TFLipfMTvr+++bLDg/emvz3UPufL57eHDl2dtr63nVjvF5BtHz3TPOjFesonJRw5ujCLOP3HkjYt+/Je37SlKs4/Lh51N8r+arS+tVBpjljuVPr8tlgACFAG6WA9cw9yHClCPTL0EX/jQ8Ibap8c+TeDI0dPdj10PYe3W0ji35NUi2MJh2Jpyyefud+KwdM6ges3+xg2Dp3qMrXxVps/fuXfQdIOQpR7aZLe1PfbMGfeQUSb8fTotdrYyUZ4tPuVt1V49rl95fFuU/50bfrdGVGTrkaf6Hx5q7QnrJLQrd1ybTy49wqdBAAGKAJ2GJ66RFbEAVS+WtZ18teteOZkettQQ6X91DfUYQ7GWDesaluqNPOCGLQ/dtLE1HUJcNG/vRVc//+jESyy0Sod9lU5KAEk4fcD1PGo+oDYtqNEwdiyIJQwfuLdsLp9ExRcfOXWxF0zpSkiph/Nml58W62jTQpWfvXBpXiVibisB999nvn1qBxP5q/LZ7/LRHFNtvky/PH5+x7my6YF7y8XuVmLBf/e5Mr5y8sJUiXtcj/QHD/QP7atX7tGnL8yL9En4kQZNqdAmO3/6wubW8HVYz7Kzpic0ZqK0xcRPsdHflk99zl3vrb3rYTlzPlPSU1kjDEv8e1blFlO26RFAgCJAp+eVK25RLED/4XNXFJXYzxeLxYci1widosw4yc3T3ey+9OjpiyRKxH7cyJaKqHi4WJlaw6OpXrRSMRALIIkfa3FOKq8SERSzeKsTyZ83euyVz9+76QfhsLQezg7fZvdcXqyg4EBpfdaJX79Z14fOjQW5xTLFo1SUxz3P8o9cT2/MUX6ohUOlvdCegfbhvaePrcqX6vWUrZozejSYHmJxCvON66PlWhpS7tAWjqdDAAGKAJ2ON66JJWEjoCKXClCPJ9UA6ub8NdcDZg2n+fjsywiEizUUwxKEYYoSUWEjXRIvFoW5HjvllxLIOWESD8GqN/e+gkUocV4lgissU2kvoRYOacje91yqnCVzN3VeuIVCT9fGw4f7H/LiYeGcIFc+qWvQErnetpCJfssNgft48T2jxD98XL+PF2WlHiJUz3/7+OkdveOKL6GpHuSfuHm1fgW9/71kDmjMuOSaUPrxtdRSbqXDNk0CCFAE6DQ9c4WtihuTWgEqNGoAH/zuzoa6RBSsMNZRixY31jVsFVe9b371el9Pkzc4FoW5oVEfT/u4dyzXIxULgVIBpLxiMWAJw7hHt0Y4xDxKxYps9Fv48GCt9I575kp7rJVPbGfOR2IRb9nly+H3cV45n/Lxwn2cRqr+4nPUa/3p27bn4obCXmnn/M3n/9GHtpfO1/h3fC3VMPN5s58uAQQoAnS63rmilo0hQIVGjWc8dFjSC7NIrFr96981Oev3Zw4pZ9wQ1wgo5RvOP5Sosd61GIvCmjqMG+hcb1+NXTG/WHxYdsbC+KtuLmfpS+Bj8V/SIxnbGvY0WgI2LpN1bpyH/o6v5ZSo8/FinyoVbz5+uHq9RsT5+OEDRJ9YDm1M2RfzSp3j8/P7WHiXxPFxtQ8Z566lMB7H0yeAAEWATt9LV8zC8IaqorX0gHokcYPQ17DofD9s6OOqYbcWZvjzhsaV6PyBe5/lz90rZ1LvmlSj8mfX7mp6nZDS1tYyH24rYs9/cQ9eariyJ+rWz2EPXK7RDIVF7txUnrGAtcReKMwsX0nlE4oThVtiLbap1sfDHrPa3r5Y8Fi9vPG1aJ2bYhIu6lG49aBSwy+VV1h3LQI0fPjoE4Gy8X+6xVhhr2doS3y/6UsnjDO03KEv5R6wwnw5nj4BBCgCdPpeumIWxo1ebeMc4wgFjML6emHi4caSxsPn1RpXjc833VdXwlXDPs3UvsamcIW6RMrH3VduxhKivqfW23iVm0dYk3ZYx5ZYiBvnWrEl+2JRYIkg1WO41cwZjkW51QMa86vJR/aFArS2BzQUhTlBH+ZTK8hlZ3xdWPUXC+MaX4+Z1Noa29lXd+p91shE3xb7WmkZQr8bci3l6rPPbn6fJgEEKAJ0mp65wlaF4kTFHCpA4+HOvp6puBEqbTxkY0vcuLFSOiVbyTyvVNo15SmxY8g54UOBVZ5QLCm/2p5WxYmHrC0RpPNbt7AnSmnU9haW5huL8j5/7ksvvL4sFnE+tULX5x/WdU4ghefWiMjYVushw9sV7sPrZUgvYpiO0p/HNRf2/NYwC8vP8TQJIEARoNP0zBW2KmwgVcyhAjRunPoa0hYR6auhNm5sk9JR43GLW3X9bveFIPWC+Lmgqfda9pXB2xMOcfvfco2/P2/W+7iRtgRUOC9PdlnD55bdobCxelytNHJhoRCYJeuhQjfs1bQEfdyja51rsYl90bqe4/ru64mM8wvZK6xW/IdMrQeiON/479i3Zy1A4/ysaym2lb+nTwABigCdvpeumIVjC1DhKREgtSIyxF4TV+fGX7/JNVQanow/C2k1znFDLlun0jtSIxZqxEtYH/FxOL9vSA9XnK7/u7SX3Z/fuo/9rLZO4wefvukosi8uk+VvVnlCcafzLHGo8oULB1VX97qX5N+6P/2SfE1lkK+H7/7NXUspW0OfHCLiYkHYYkvKvr7fQrt1jsW2Lw1+ny4BBCgCdLreuaKWzUKAhjfqvt6puHGvaTxq4sYNe2k+8Rw5S3zInlDkqiGfwntQa8se+sIQ4TiWkE1dcnHd9/lXKm7tb6EfK+5X73Gr59/8ClRJWuGDieU/Sis8V3+3ipu4znO92HHPq/KWre9z85j3uQV5+kKUvkL1kvu61lPupe/+dV7+vNwnRXVeuMXXVc6+MG58PE8BGnPNjYrEtvL39AkgQBGg0/fSFbMwFB0qmjVkV1r0kjRjIVEqDGVDTdxQROREQFy+WBRYvVKySQ215kBqWL9mkVCc7xh/x/M5S4Ra2HNZcn6fnTW9cH1ppH4X41Do65whPWipPPxv4aIy/WbN3/Rx4n3IMydYYmZWb2mcT/h3XO+Wz/p44pr62pAPj/d6OFF5Sl76HscN7RviY0p3XgI0Fumyu+ZzpzED/p4mAQQoAnSanrnCVpWIxdril6RZIyLj/Evjxg1HSWMc5hUPodYutgjTmuexepniL8iU9KiFYn2IOIjFVEneJXxiv8qJupI0U+fEvV1iUfsd+NhHc74XM2t9EIxFWS5fX375+uPPnEu+msyfo73E53v3b3R3uC8R1b5NQPHDOmwR9UrDb3FZax5ifRq5veoxnKag80uZ5tImfFoEEKAI0Gl55BpYEzYIKm5rwxeiKkkzbqBrGo/SuGEPZuuQcjifdWiDGTKa1bHYxL2EpWynLEDjHskWUVjCPOyh0/nym5bpFOHDT4nvLUqApuY7l3DSOaV+FaYXXk+tC618erMWoEOuJW8j++UhgABFgC6Pt66IpSVisbaoJWmWishU3qVxQztqh999vqEom9WKbp/X0P3QBjMs65g9oK3DyZ5HqkdyFkOgcY+38m8VSaGgLPG98Hzl29prHAtoq7cu1VMusayeZX0p6oY357u+9oabXuLmgP7w2KUfb6h5KIv5tpZRfLTNUoCmrqVZ9bhfKA3/L5oAAhQBumgfXLv8Q5Gmwo/RAxrOfesTMqUiMlUhpXFDQZVKp/a3vrLUpjOL87VC+b5HTu94yf4B95qp++68rDi70BdKeu36Eh5zEVIsPlt7JPts9b+nxFhLD59PL/S9kqkbYwnQmFefAO0TWHcf3GPOX1bPrr5OFH7MQSvnNSSf28IRiTEe5mYlQHUt6Vp45eT2hxL0HXr1hLOtLgEEKAJ0db17oiULRYdMHEOAhu8+7Ov9KRWRKWylcUM7UunU/jZVAdrXYKqXsGYxVCwcW3suQ58aImTj3jzVV2uPpFXXKTE2RHxKzH7p0dMXsyxZ6R0Lx5I4FzMIDkKRp5/7ehljwVtTXvEK50Wqjr/xqcuzvhb6xRi9ibMSoKGdYqjrvnYOsOKxLRcBBCgCdLk8dgWsjW+2QwVoPMzW19CUisgU4tK46yJAYzGhBrNliLpUvKTqJPwtnOfX2tMVzqH0ac9ixXtKfPb5rLcjtw+FUelDSxhH6beWteR6jr9WVWpjWO5YMOcEbJxnX89smEfuOGaWsyGXnsLHupZK8uKcaRFAgCJAp+WRa2BNSYNVgyG+gff1WJWKyFTepXHDYVD1xB6+fW8quarfWlb+VmVQeXJqcU6L+FS2cY9jiwiKhUbLl27GHg7vQ5oSnzVzGvvSDXuSS9OLe01bRXDo833iv/Qhsa98+l31/Nlvn7r4XtC+kQ6fRvxAMfRBV+mOLUBjUd36IOfLzH65CCBAEaDL5bErYO3YAjRsAIWnbxi3VESmEMeNdV/PRzgXta8xTqW/LL+N3WDGXFtEUCw0SuY/hrxTorCvfsN4tcd90xbGmOcX9gCXivhYuOcEXaq88TXVJ/7jB42+h8RUHuFv4fWVm2oRPpi2lC3M1x+PKUDHvpa8jeyXhwACFAG6PN66IpaOKUDjhs3q/YkbS+vcGHXcg9MnUMJGr3SeWpzXVP+eVYMZiqecqEixCZkrvGaodV7iU3Y98OTp7tlfb+pwa9Mik9o5sz5uuI99s28OZhjHH8fXYt/Dmz8/3seCrE/8xr7TKkBje61ezfDBtPahJC6n/zsub999wJ/ft495yO+/fFfdV6/60ub35SGAAEWALo+3roilNY2IVWSJh3Bhgs7NNb7hHM2aXpF4rmJfwxML4hoxZJV10WFxucZsMIcKyNAHauYWzlN8jjltIfaFUMzU9rrH9drn13Ge/u9Q5Om3vusvFm6tgrD0YSV+2GxdYOXL6fdxOWp5KZ04jTGvJW8n++UggABFgC6Hp66QlWMI0JR4KOnRDBtM3fhLVtKm8upreGrnqcXVqry+/+zZ7p1v293tv3YjDl7I3/EQt4yo/Ua5ZXjcg1fzYBCKL+VR4gM6LzUcXhpX8Wu22Max5/mF11PtFIZ4GL70mlD5YyFl1duQOvasa9IIbat5KPF59e3DdHVO332gL3485UTntfYG9+XB78tDAAGKAF0eb10RS8MGU0WyhtFSRVZD9N+ePHNxMYLOKW3Uw8UailfSYMdDp4pnNTxxj17pOwuVbhzX6kGViPrBsXNbYurW/W2fKVSe1qYGM/7EZt8wq5VOLiz2iRJmqca8rwcuzj+cS6iw2veXxun1/T1r8RkLSMtf+myMfa7kmkg9lOXyDnsvZUtJHXub5evxO2ctPwyv8755qT7tmv0QASpmYW+98rXKUGMX5y4nAQQoAnQ5PXeJrY7FRokAVQP0E/dC6tSXUdRrU/rpwnjIURj7xKQajCNPndn6VrXyeP3UNvS+ODoj1dBY5/tUa8RKLABk39hzyOI8ZGfr0KkvY98+7t3SeRYznf/NoztfTl7agxkLrrHmYsZli32t9CEpTsf6O+6drp3DqbRr/TXlFyXsYx7K26pjhWtTfg9+d+dL2nO9mqHYHVPktQrQFLOSsl8gwP+rSgABigBdVd+ebLliAarGq2+T6Hv5xPkdX0EJz1VD9Pk793bXv/kJvzAsdaweoy9GX+/ReUrnFvcVH+0ldp8/fn5LePo01LvzlcfP+D+zDWeqsVXaHzm40d3gPjno7VXD9JwTUylhbYm9eE6qDLOGQC8aXniQajAlctWb1LK9820b3btutKcUpMqkOY3vd59p3OfYXXX5rq3PM/7shc0di3lkj9iWvAoqFvmKK27XXK2juk32fOxQ+jVbsVBRyirLW/ftqsvkzbM/7vJJveA/FNND6r/PX9UbeoOzW9tr7lp8/jeb3Y+2et3fNMztStkrRmo0QfF17d3k6uEq52Piquv0RfdVoJ+7RVu/cnnGmzUFJH6YKe0Vj/NI/R3Xa4mIXMS1lLKd36ZHAAGKAJ2eV664RbEAbS2uhk0/c1u6YbbSjBso61yFqZHRELfeQei3koYnJXZ8/Nw+l344xOjTql2A4uOl9kNsT6WXK4+PEwoq/1tuXyOAwkVouXRz4cpXc4hT21g+7tPuE1HhVALrgcWnY+1b6ry2513C8sjRM5c8QFh2hWHK77+4a956mAnF9JjXhOxoEaBxnLA8Lcel11JL2sSZLwEEKAJ0vh5HblvfPE71apSgUQP09mt3d3f8+cagRToauoy/L53K3zfq6sWoFaBKrzQfn7fK92H3bewPZr5znWrUxmyYWsSIL0NqX2NbTd7q9bvvQ+UPIaskQGOfzM3BTNVL/JvE2xPPnN0x3SQ+x/+tqQuf/9BlXcuHElTHPzq22Tuy4fMI96prfdghl18o/kumBoR55I7j667Er+M4uTxy4SV55tIgfBoEEKAI0Gl44hpZoVfSvOSG1Uu2K6/QkFzXvdUNW2so8AY31J4aiixJKz5HDbhWnB87vtkdd8N9fvNDgodu2tgxVK75oH57n5s2oF7R0k2NUGqY3ce/1pXtna5HV8KztHxqxJ969txWEu/dv9E7HOzzqNl7e2viWOfW8lLdqHy/dFMhfueOw00i/TrnD3e5nunaNwVInIy1adj+8G2XJZOr8fFkAtGPKZEdChsxefiwu1hG2PquCyXt2dfWZ8os5eOnn7xycjMpev21WPpWiHhR1tgrzPVA+U9vXnMqUwmHOE6KRc1vJXnWpMe5iyOAAEWALs77yHlSBNQgSuyWCsBW47V6Ww2lNs1323f1rpnn2WrrFOJpTu6LjplYXXXFrmwP2BRsnocN4TSMMVd6h7aL/YlXz2/5676r3VxZN+1gVpuuv9fe2M6r5VqMp9e0LMqaVflIFwIxAQQoAjT2Cf6GAAQgMHkC4Tttx1zpPfmCGwaGC9mGLMoysiAIAqMRQIAiQEdzJhKCAAQgMA8C8TtQ+xYpzcOWKeURLspiruSUagZbUgQQoAjQlF/wGwQgAIHJEghXelur8SdbgBkYpiH8cKHgGIuyZmAmSULgIgEEKAL0ojNwAAEIQGAZCGgBkgSXNs3LrFkQtwzla7FRPMTFb3cfTL+j1Yezh8CiCSBAEaCL9kHyhwAEIAABCEBgzQggQBGga+byFBcCEIAABCAAgUUTQIAiQBftg+QPAQhAAAIQgMCaEUCAIkDXzOUpLgQgAAEIQAACiyaAAEWALtoHyR8CEIAABCAAgTUjgABFgK6Zy1NcCEAAAhCAAAQWTQABigBdtA+SPwQgAAEIQAACa0YAAYoAXTOXp7gQgAAEIAABCCyaAAIUAbpoHyR/CEAAAhCAAATWjAACFAG6Zi5PcSEAAQhAAAIQWDQBBCgCdNE+SP4QgAAEIAABCKwZAQQoAnTNXJ7iQgACEIAABCCwaAIIUAToon2Q/CEAAQhAAAIQWDMCCFAE6Jq5PMWFAAQgAAEIQGDRBBCgCNBF+yD5QwACEIAABCCwZgQQoAjQNXN5igsBCEAAAhCAwKIJIEARoIv2QfKHAAQgAAEIQGDNCCBAEaBr5vIUFwIQgAAEIACBRRNAgCJAF+2D5A8BCEAAAhCAwJoRQIAiQNfM5SkuBCAAAQhAAAKLJoAARYAu2gfJHwIQgAAEIACBNSOAAEWArpnLU1wIQAACEIAABBZNAAGKAF20D5I/BCAAAQhAAAJrRgABigBdM5enuBCAAAQgAAEILJoAAhQBumgfJH8IQAACEIAABNaMAAIUAbpmLk9xIQABCEAAAhBYNAEEKAJ00T5I/hCAAAQgAAEIrBkBBCgCdM1cnuJCAAIQgAAEILBoAghQBOiifZD8IQABCEAAAhBYMwIIUATomrk8xYUABCAAAQhAYNEEEKAI0EX7IPlDAAIQgAAEILBmBBCgCNA1c3mKCwEIQAACEIDAogkgQBGgi/ZB8ocABCAAAQhAYM0IIEARoGvm8hQXAhCAAAQgAIFFE0CAIkAX7YPkDwEIQAACEIDAmhFAgCJA18zlKS4EIAABCEAAAosmgABFgC7aB8kfAlsETv7r+e7FE5vda6fOu39d97rbs0EAAvMhcM0f7+r2uX9XXb6ru37f7vlkSi5rTQABigBd6wuAwi+OwLHj57pjv9nsnj9+vnvl5KYTnIuzhZwhAIGdBN7+p7udEN3V3eT2N1+7u7vSCVM2CIxJAAGKAB3Tn0gLAiYBic6fvbDZ/ejYOQSnSYpACEyLwDtu3N3d8rbd3a3790zLMKxZWgIIUATo0jovhi8HAQ2l/8AJTonOV04yrL4ctYaVEEgT+BM3TH+LE6N3HNjTadieDQKtBBCgCNBW3yEeBLIEvvfs2e6JZ87S25klxQkQWD4Ctx/YQIguX7VNxmIEKAJ0Ms6IIatDQEPt3zx6tvudW1jEBgEIrC4B9Yh+5OAGQ/OrW8UzKxkCFAE6M+ci4fUjoOH2x1yP51PPnlu/wlNiCKwxAS1aOnz7Xobl19gHaouOAEWA1voM50MgSeAl9wqlrz95hl7PJB1+hMDqE6A3dPXreMwSIkARoGP6E2mtKYF/Pna2e+Rp5nquafVTbAjsIPBhNyR/98G9O37jDwjEBBCgCNDYJ/gbAlUEHnvmjFtoxJB7FTROhsCKE3jPfjckf9tlK15KijeEAAIUATrEf4i75gQQn2vuABQfAgYBRKgBh6AOAYoA5TKAQBMBxGcTNiJBYK0IIELXqrqrCosARYBWOQwnQ0AE9H7PR92cTzYIQAACOQJ6X+jHDjEnNMdp3cIRoAjQdfN5yjuQgFa7f+nR0wNTIToEILBOBO49tGfrpfXrVGbKahNAgCJAbQ8hFAIBgZPuxfJ/89hpXrUUMOEQAhAoI/BXd+3t9l+7UXYyZ608AQQoAnTlnZwCjkfgyNHT3Y+PbY6XIClBAAJrQ0DvCX3g3su6Ky/nG/JrU+lGQRGgCFDDPQiCwDYBvevzW+7zmmwQgAAEWgkwH7SV3OrFQ4AiQFfPqynR6AQYeh8dKQlCYG0JMBS/tlW/o+AIUAToDofgDwikCPDKpRQVfoMABFoI6Lvx99/NS+pb2K1SHAQoAnSV/JmyzICAej8/++1TM0iZJD0BzY3Tv5rtlZOb3etUSw0yzp0QAXpBJ1QZCzIFAYoAXZDrke2yEGDh0exrqvXb2a+fOt89d3yz+9kL51gcNvtqIocRCdALOiLMJU0KAYoAXVLXxex5EHjNCZwvPsJrl2bNulWAhnapp1pTJXhLQUiF4ykToBd0yrUze9sQoAjQ2XsZOSwtAVa+z6fqxhCg3lIWjHkS7KdO4B037u6+cCdzQadeT7OyDwGKAJ2Vb5HuChC43710/le/4b2fs67KWIB+5+kz3c9/3c9d80Wv37eru8kt5njXjZe+2BsROusaI/0xCFx5edd941OX817QMWAuYRoIUAToErotJs+DAIuP5kH5Qh6xAK2Zdysx+t79u7u7D+781jYidH71R07tBP7ytj3drfv3tCdAzKUlgABFgC6t82L4bAkw/D5bvmHqQwSoT0dC9K/dq22uCVbTHzt+rvvK42f8KewhMDkC73EPT4dvYxh+chUzB4MQoAjQObgZWSwjgQefPN39whgGXsYyTdXmMQSoyiYRGn/qkGkUU6117BIBDcM/fPgKYKwhAQQoAnQN3Z4ilxD4xJE3eM9kCagRzhlLgMqUeGFHay+oXpOjeaZvvWZXd9Wb3+4+4Vbav+zeP/rL4+e737njmu2AW3BylRMb2k6+2u2YWywR8t79G8m89BA09H2nPn0JdNmg8ugNDy+fPN8dc6+xOu72bIsj8FX3ffjrr9m9OAPIeSEEEKAI0IU4HplOm8BLJza7Lz16etpGrpB1YwpQYYlfb1PTCyrhedfBjW7/tZcubgqRS9h+8+jZYiH6d26xiZ8eEIriew7t6T54oH8OoOayajrIE8+cC7MvOpbg/LSbY5gri/z98f99lh7/Iqrjn8Q80PGZLkOKCFAE6DL4KTbOmcBPf32ue+hJ5g7OC/vYAjTuBf3es2e7R58+my1OTgymEij9TGtKgH71Htfzta+s56t2TrLmFn780N6qFdalZUlx4Ld2Arcf2Og+5uqKbb0IIEARoOvl8ZS2iAANcRGm0U4aW4DGr7cp6dFO9UL5Ly1puFrbPtejmOpNLPGXWIAec6/38iv3S/P5e/d6qqPP5ntCU4JGebzoejo1jUCbhuFvvnb3JQK1VKxvJcJ/oxCIH5hGSZREJk8AAYoAnbyTYuD8CdS8Bmj+1q1ejmMLUBGKh+GtOb1x/hJrjz1ztvvRsXOXzL/UsHbqtU+5Yf5QgErQ+nmlEq9POVEZz/NUPvGqfsX77LdPXXJu6BGKp3dLhptE5ROuPHEeOicuu34rFbo6l204gVSdDU+VFKZOAAGKAJ26j2LfAgjkxMQCTFrpLGMRNMYDQDyc/hkn3FILh+LGX+JT9f9KZmFObLPman7xkX5xGApQX5m5cqon92v3bs8dVbycOIzzyeWhNK9zC63ud6+wuvLNxVYlQlfx2MYhoHpmJfw4LJcpFQQoAnSZ/BVb50QAATon0G9mE4u5EtGUszAehu6r03jovSbve90CojuCBUTWUHwsDEvndGpRlMSh36z5yfE7JS17fHp+H9dBTuj6eOzHIfAPn+NVTOOQXJ5UEKAI0OXxViydG4E+sTI3A9Yso1j81IjAPlSxGEulGfd+1n79qmauaSxA73O9pbleVl+2hw9vf67RsjGcdmCd59MN93FZwpX64Xkcz4YAAnQ2XKecKgIUATpl/8S2BRFAgM4X/KIEaIlIzZGIe1D7hvpDAaoh7k8eOZVL+mJ4+J7IPmEZD+O2LCYKy1Jr40VjOWgigABtwrbUkRCgCNCldmCMnw0BBOhsuPalOg8BmvqyVTxPtKZX0pelVMSGArRPRPo0431Jz2Y8VN/iw/G0hT4xHdvH38MJIECHM1y2FBCgCNBl81nsnQOBlsZ7DmatbBazEKCxmErVaSjsWnv84mH8vnmXoQCtHd4O7ewTr3F51QOqBVU1m77G864bt1/An2JWkx7nlhNAgJazWpUzEaAI0FXxZcoxIoHUfMERkyepiMAsBGhJ72Y4tF3yrtDI7K0/46HvvsVFsxagMcOUrbW/IUBribWdHz/EtKVCrGUjgABFgC6bz2LvHAiwAngOkIMsYvE0xgNA2GuorD760BtBjhcOh4jCMLGw9woBGpLhuIRAPH2iJA7nLD8BBGjX/X8AAAD//73+4EYAAEAASURBVOzdW8wl513n++qz3R3b7cTdseM4bgcrYjASYMJs+SITe984EoiQbMXiIhZhQGIjg0JGIswNO464YYfZQDRYKBJKYJKLLUfiEGVG45ttD7mIBgYDUhqiyPiQ7nasbpvudOy2+7zr99rP28/7vFX/51BVqw7rW1L3Wu+qqufweZ616vfWqrXeHSdOnLhaJS4HDx6s9u/fn7h1+Wbf+u7l6sXTW5v1rpt3VD/6nl3lhbInAokCTx69VH3hiUuJW7NZV4GP3rereui+PZvFPPbEheobR69s/px7Z/++qvriI9dt7vb8ySvVf/zKhc2f3Z3//Mv7qkM37tj48dTZq9Wv/8l5tyrr9v/9D9fqaps7fl1Hj12ufuerF5Pr+O2P7anuuePN1762doaG6vNr57e+hiZX+NaGf/bUpeq7p7qVkVvnOm7/k3fvrH7zZ/euY9fXus/f+OdL1evBy9L7795Vvf3Am69JQ+CcO3euOnPmzBBFF5W5gwBa5MZOCxZoCywL7vKoXQvDU9cA+oF7dlaPPHjtgP71py9VX6nDVLj4wU5h7Zceyw+g7zm0o/rcw3XifWt5/JsXqz//5mX34+bt0AH0Q/fuqj5x/7UQ/2t1mH65DtUs0xf4+P27q5+5d/f0G0oLexUggFYVAbTXKUVhSxAoDSNL6PsYfeg7gPphT/359JfPN57J+5UHd1cP3HPtwF8S2sKzV7/3tQvV3z2z/eyt36YhzoCmtmOM8aVOW8D/RcjekrVLEiCAEkCXNJ/pS48CbaGlxyoo6i2BPgNoeCbQOpsdbvulpy5WTzy9/eylNVBhiG2bN0MH0PCyg7azvlZfWDeOwBcf2Vft3zfc267j9IpaYwIEUAJobI6wfk0FSsLImlJ17nZfAfTO+u3wzzy0d8vB3Ho7PwxtuWcmb6mvH1V9KdeRDh1ANQj+mbSSs/jyOJd/FULn8V/nAn743TurR+s5xLJ+AgRQAuj6zXp6nCSQG0aSCmWjRoE+AqgO5J/+8J4t4bPtA0F+I/zQpscfffxC9e3j299C9/dx98N2W7+0rCKAhu1pux7VtT+8VRu1fKv+kNTf/suV6umGSwnCffi5mwDXf3bzm/PeBFAC6JznL20fWODfP/YGZ4QGNlbxYXCyzlqGzdFZu4/et/1DHPq0+GfrMBn7IE54Bip1v/CDTrH9VhFAZfFHdYj0385NtQzHICW8h2PBz/kC/rzI35s95ixAACWAznn+0vaBBXLPIA3cnMUWH4afP62vxfxfxtm39xzeUR2u3/7+qR/aufn1RD5OLAz62+r+w/WnkH/a+xSy9tfYt30VVHjtqMqIBT0/aOSeXffP0qpt1tdFhR9GUtvUl7+uv9aqKYy3BfiSD2SpLpZ0gfAbFNL3ZMslCBBACaBLmMf0YSAB6wMsA1W5lsWGAbQLgsLdH9ff4doUttrKVQj7vz62tzpyeOeWTRT2/uczl+uz4G9+nZGu9fzf6u/p888waoeUX1RWFUDVnjbPv6n78vypNy8vUB/uqq+Zvavuc0l/VA9LN4HwA2zdSmPvuQkQQAmgc5uztHfFAjnXBK64aYupri0w5XQwdtYyVpZC6P/54J7q39YBM2dJCZ8qb5UBVPWVmqb2R3WwlAvoA2y6XIJlfQUIoATQ9Z399DxJIPft0qRC2WiLQGlYUujUB2b+R/32cuoHh7ZU3PCDru3UX2Vyn2xv2GTjIc2Lr9ZfOJ9a76oDqBqpkPOr9Xedur+i1NYXPZ7bH6ss1sUFSud8vGS2mIsAAZQAOpe5SjtHFOAs6LD4Ckr6l7roLXG9xT7kVwbpWsp/U3+yXm9Tu+W1+iuK9Bb2Px27mhw83b76sJNb1P6cP3GpawXd2+S5+6pO2b6/7s+P1G044J10O1kbvlD/qc3nT+b3x/WF23wBjYf/9V35JbDHEgQIoATQJcxj+jCwAGdBBwameATWSIBrP9dosI2uEkAJoMb0YBUC1wSs73i8thX3EEAAgXYBnf3k2s92n3VaQwAlgK7TfKevHQT0l2V+68vx75XsUAW7IoDAwgX8a4EX3lW6FxEggBJAI1OE1QhcE+Ct+GsW3EMAgTwBPniU57X0rQmgBNClz3H617MAX1PTMyjFIbAGAuFf3FqDLtPFiAABlAAamSKsRmC7QOyv3mzfg0cQQGBdBfjU+7qOvN1vAigB1J4hrEWgQUDXg+rvjOd8lU5DMTyEAAILFyB8LnyAO3SPAEoA7TB92HWdBfhQ0jqPPn1HIC5A+IwbrfMWBFAC6DrPf/reUUB/ief3/oozoR0Z2R2BxQkQPhc3pL13iABKAO19UlHgegnoTOhjT1ysnn7mynp1nN4igECjAOGzkYUHAwECKAE0mBL8iECZAJ+OL3NjLwSWJKBPu3/6w3s2/3TqkvpGX/oVIIASQPudUZS21gJ/88zl6r88dWnj75SvNQSdR2ANBT5+/+7qZ+7dvYY9p8slAgRQAmjJvGEfBFoFdF2ozoZ+4yhvybcisQKBBQnorOcn6vB55PDOBfWKrgwtQAAlgA49xyh/TQWeP3ml+k9fu8jZ0DUdf7q9fIH9+6rq4Tp4PnAPZz2XP9r995AASgDtf1ZRIgKewJNHL1X/7enL1bFTV71HuYsAAnMVUPD80L27Nt5u379vx1y7QbtHFiCAEkBHnoJUvy4C+jvyT/3T5erv6k/Lnzu/Lr2mnwgsR0BvtX/svl3VPXfsWk6n6MloAgRQAuhok4+K11PgXP21Td86dqX623+5XP3zsau8Rb+e04Bez0BAZzrfc2hn9f67d1b/+z27+GT7DMZsTk0kgBJA5zRfaesCBfShpefq60WfP6V/V6tzb1SVvlv0dc6SLnC06dJUBa6vw+aRwzuqA/Vb6nce2lHdVQdPPlQ01dFaRrsIoATQZcxkeoEAAggggAACsxEggBJAZzNZaSgCCCCAAAIILEOAAEoAXcZMphcIIIAAAgggMBsBAigBdDaTlYYigAACCCCAwDIECKAE0GXMZHqBAAIIIIAAArMRIIASQGczWWkoAggggAACCCxDgABKAF3GTKYXCCCAAAIIIDAbAQIoAXQ2k5WGIoAAAggggMAyBAigBNBlzGR6gQACCCCAAAKzESCAEkBnM1lpKAIIIIAAAggsQ4AASgBdxkymFwgggAACCCAwGwECKAF0NpOVhiKAAAIIIIDAMgQIoATQZcxkeoEAAggggAACsxEggBJAZzNZaSgCCCCAAAIILEOAAEoAXcZMphcIIIAAAgggMBsBAigBdDaTlYYigAACCCCAwDIECKAE0GXMZHqBAAIIIIAAArMRIIASQGczWWkoAggggAACCCxDgABKAF3GTKYXCCCAAAIIIDAbAQIoAXQ2k5WGIoAAAggggMAyBAigBNBlzGR6gQACCCCAAAKzESCAEkBnM1lpKAIIIIAAAggsQ4AASgBdxkymFwgggAACCCAwGwECKAF0NpOVhiKAAAIIIIDAMgQIoDMKoNfvrarr9u5YxsyjFwgggAACCCCwtgKnX726re/vv3tX9fYDw+Wcc+fOVWfOnNlW71gP7Dhx4sR2hZbWHDx4sNq/f3/L2v4e/tZ3L1cvnk5uVn8VUxICCCCAAAIIIDCCAAHUQCeAGjisQgABBBBAAAEECgUIoAYcAdTAYRUCCCCAAAIIIFAoQAA14AigBg6rEEAAAQQQQACBQgECqAG3qgB68uzV6gfnuAbUGApWIYAAAggggMCCBG5/+45BP2zNh5AWNFnoCgIIIIAAAgggMAcBAugcRok2IoAAAggggAACCxIggC5oMOkKAggggAACCCAwBwEC6BxGiTYigAACCCCAAAILEiCALmgw6QoCCCCAAAIIIDAHAQLoHEaJNiKAAAIIIIAAAgsSIIAuaDDpCgIIIIAAAgggMAcBAugcRok2IoAAAggggAACCxIggC5oMOkKAggggAACCCAwBwEC6BxGiTYigAACCCCAAAILEiCALmgw6QoCCCCAAAIIIDAHAQLoHEaJNiKAAAIIIIAAAgsSIIAuaDDpCgIIIIAAAgggMAcBAugcRok2IoAAAggggAACCxIggC5oMOkKAggggAACCCAwBwEC6BxGiTYigAACCCCAAAILEiCALmgw6QoCCCCAAAIIIDAHAQLoHEaJNiKAAAIIIIAAAgsSIIAuaDDpCgIIIIAAAgggMAcBAugcRok2IoAAAggggAACCxIggCYM5unTp6tXX301YUs2QQABBBBAAAEE5i9w+PDhat++fYN1hACaQPvSSy9VZ8+eTdiSTRBAAAEEEEAAgfkL3HHHHdX1118/WEcIoAm0BNAEJDZBAAEEEEAAgcUIEECNoTx48GC1f/9+Y4t+VhFA+3GkFAQQQAABBBCYhwAB1BgnAqiBwyoEEEAAAQQQQKBQgABqwBFADRxWIYAAAggggAAChQIEUAOOAGrgsAoBBBBAAAEEECgUIIAacARQA4dVCCCAAAIIIIBAoQAB1IAjgBo4rEIAAQQQQAABBAoFCKAGHAHUwGEVAggggAACCCBQKEAANeAIoAYOqxBAAAEEEEAAgUIBAqgBRwA1cFiFAAIIIIAAAggUChBADTgCqIHDKgQQQAABBBBAoFCAAGrAEUANHFYhgAACCCCAAAKFAgRQA44AauCwCgEEEEAAAQQQKBQggBpwBFADh1UIIIAAAggggEChAAHUgCOAGjisQgABBBBAAAEECgUIoAYcAdTAYRUCCCCAAAIIIFAoQAA14AigBg6rEEAAAQQQQACBQgECqAFHADVwWIUAAggggAACCBQKEEANOAKogcMqBBBAAAEEEECgUIAAasARQA0cViGAAAIIIIAAAoUCBFADjgBq4LAKAQQQQAABBBAoFCCAGnAEUAOHVQgggAACCCCAQKEAAdSAI4AaOKxCAAEEEEAAAQQKBQigBhwB1MBhFQIIIIAAAgggUChAADXgCKAGDqsQQAABBBBAAIFCAQKoAUcANXBYhQACCCCAAAIIFAoQQA04AqiBwyoEEEAAAQQQ6F1g37591fnz53srd8+ePZXC3unTpzf+9VZwx4IIoAYgAdTAYRUCCCCAAAII9Cpw4MCB6vbbb6/Onj1bvfTSS53LduFz9+7dG2W98sorlf5NYSGAGqNAADVwWIUAAggggAACvQnozKdC2c6dOzfKfO2116rvfe971ZUrV4rqUDlHjhypXPh0hUwlhBJA3Yg03BJAG1B4CAEEEEAAAQR6FdCZyjvvvHMzfLrC9Vb8sWPHskOowqcCnkJt0zKFEEoAbRqZtx4jgBo4rEIAAQQQQACBzgLh2+RhgRcvXqyOHz9e6TZ10dv4ejvfWvp6m9+qw1pHADV0CKAGDqsQQAABBBBAoJNALHy6wnNC6K233lrdeOONblfzViH05MmT2WdYzUITVxJADSgCqIHDKgQQQAABBBAoFkgNn66ClBD6jne8o9K/nKX0bf6cOpq2JYA2qbz1GAHUwGEVAggggAACCBQJtH1AKFaYFUJLwqerTyH0xRdfzHqb3+1beksANeQIoAYOqxBAAAEEEEAgWyD2AaFYgfpUvD6Y5H9XaJfw6erTp+5PnDjhfhz8lgBqEBNADRxWIYAAAggggEC2QM41mm2FK4TqK5oUGvsIn2O8DU8AbRvd+nECqIHDKgQQQAABBBDIFgi/7zO7AG8HfYgo9QNH3m5b7lpv62/ZsOcfCKAGKAHUwGEVAggggAACCBQJ5H4AqaiShJ3GCp9qGgHUGCACqIHDKgQQQAABBBAoFhg7hI4ZPoVGADWmDgHUwGEVAggggAACCHQSGCuEjh0+hUYANaYOAdTAYRUCCCCAAAIIdBZYdQht+hR9504UFEAANdAIoAYOqxBAAAEEEECgF4GuX82U04gXXnhhy1c45ezb57YEUEOTAGrgsAoBBBBAAAEEehNQCL3tttuif8O9S4UvvfRSpU/OT2EhgBqjQAA1cFiFAAIIIIAAAr0L9PE9oU2NOnXqVHX69OmmVaM8RgA12AmgBg6rEEAAAQQQQGAQgT6+XN5v2CuvvFLp35QWAqgxGgRQA4dVCCCAAAIIIDCYQF8hVB860nWf+uT7lBYCqDEaBFADh1UIIIAAAgggMJhAn2/FT+Frl0IoAmgo4v1MAPUwuIsAAggggAACKxE4dOhQdfPNN/da19RCKAHUGF4CqIHDKgQQQAABBBDoXaCvt96bGjaV7wBV2wigTSP01mMEUAOHVQgggAACCCDQq8CQ4dM1VCH0xIkT1euvv+4eGuWWAGqwE0ANHFYhgAACCCCAQG8CqwiffmPH/k5QAqg/GsF9AmgAwo8IIIAAAggg0LvAjTfeWOlDR6texvxuUAKoMdoEUAOHVQgggAACCCDQWWCs8OkaPtZ3hBJA3Qg03BJAG1B4CAEEEEAAAQR6Edi3b9/Gh3H0ZzjHXMYIoQRQY8QJoAYOqxBAAAEEEECgWKCP8KmvVtqxY0e1e/fu4na4HVcdQgmgTr7hlgDagMJDCCCAAAIIINBJYM+ePRtnPrsER/eVSgqhCnMKtF2XF198sXr11Ve7FpO0PwHUYCKAGjisQgABBBBAAIFsAb3dfuTIkc5nLfXnNc+fP79Rv8q87bbbqgMHDmS3x+3AGVAnMcztjvq7r66mFk0ATZViOwQQQAABBBBIFej6lUttX6FU+uc7T58+XekT8atcOANqaBNADRxWIYAAAggggECxQGkIjX11Um65Z8+erRRoV70QQA1xAqiBwyoEEEAAAQQQ6CSQ+xVMqW+Tp4ZQvYWvt/LHWAighjoB1MBhFQIIIIAAAgh0FtB1m7p+M/ZVTKnh0zUoFkIVPo8dO1bpw0xjLARQQ50AauCwCgEEEEAAAQR6EYh9JVNu+HSNaguh+uT88ePHK92OtRBADXkCqIHDKgQQQAABBBDoTaDtq5m6fkAofJt/CuFTaARQY+oQQA0cViGAAAIIIIBArwJhCO3rA0Lubf7Lly+PfubTgRFAnUTDLQG0AYWHEEAAAQQQQGAwARdCFRb7/ICQ3ubX9Z5jvu3uoxFAfY3gPgE0AOFHBBBAAAEEEBhcQCFUAXSsDwgN3sG6AgKooUwANXBYhQACCCCAAAIIFAoQQA04AqiBwyoEEEAAAQQQQKBQgABqwBFADRxWIYAAAggggAAChQIEUAOOAGrgsAoBBBBAAAEEECgUIIAacARQA4dVCCCAAAIIIIBAoQAB1IAjgBo4rEIAAQQQQAABBAoFCKAGHAHUwGEVAggggAACCCBQKEAANeAIoAYOqxBAAAEEEEAAgUIBAqgBRwA1cFiFAAIIIIAAAggUChBADTgCqIHDKgQQQAABBBBAoFCAAGrAEUANHFYhgAACCCCAAAKFAgRQA44AauCwCgEEEEAAAQQQKBQggBpwBFADh1UIIIAAAggggEChAAHUgCOAGjisQgABBBBAAAEECgUIoAYcAdTAYRUCCCCAAAIIIFAoQAA14AigBg6rEEAAAQQQQACBQgECqAFHADVwWIUAAggggAACCBQKEEANOAKogcMqBBBAAAEEEECgUIAAasARQA0cViGAAAIIIIAAAoUCBFADjgBq4LAKAQQQQAABBBAoFCCAGnAEUAOHVQgggAACCCCAQKEAAdSAI4AaOKxCAAEEEEAAAQQKBQigBhwB1MBhFQIIIIAAAgggUChAADXgCKAGDqsQQAABBBBAAIFCAQKoAUcANXBYhQACCCCAAAIIFAoQQA04AqiBwyoEEEAAAQQQQKBQgABqwBFADRxWIYAAAggggAAChQIEUAOOAGrgsAoBBBBAAAEEECgUIIAacARQA4dVCCCAAAIIIIBAoQAB1IAjgBo4rEIAAQQQQAABBAoFCKAGHAHUwGEVAggggAACCCBQKEAANeAIoAYOqxBAAAEEEEAAgUIBAqgBRwA1cFiFAAIIIIAAAggUChBADTgCqIGzwFU7d+6sDh8+PGjPrly5Up08eXJbHapX9bctL730UtsqHjcEDhw4UN1www3GFsOtOnfuXHX27NnhKqBkBBBAYMYCBFBj8AigBs4CV+3Zs6e66667Bu3ZxYsXq+eee25bHe9973ur3bt3b3vcPfCd73zH3eU2Q+Ad73hHpX9jLAqf/OIwhjx1IoDAHAQIoMYoEUANnAWuIoAub1AJoMsbU3qEAALLECCAGuNIADVwFriKALq8QSWALmtMY8/R119/vTp27NiyOk1vWgViAUbvNuldJ5ZpCsTGr2urdRnUmTNnuhbT2/47Tpw4cTW1NAJoqtQytosd3ProJW/B96GYXgYBNN1qDlvGnqME0DmMYn9tjAUYAmh/1kOUFBu/rnUSQBMEdZ0YH1ZIgBp4k9jBrY/qCaB9KKaXQQBNt5rDlrHnKAF0DqPYXxtjAYYA2p/1ECXFxq9rnQTQBEECaALSCjaJHdz6aAIBtA/F9DIIoOlWc9gy9hwlgM5hFPtrYyzAEED7sx6ipNj4da2TAJogSABNQFrBJrGDW1t47KNpfAq+D8XuZTAO3Q2HLCH2HCWADqk/vbJjAYYAOr0x81sUGz9/25L7BNAENQJoAtIKNokd3AigKxiEkasggI48AJHqY89RAmgEcGGrYwGGADrtAY+NX9fWE0ATBAmgCUgr2CR2cJtrAN23b1+lf+qfv7zxxhvVpUuXqvPnz/sP93Zf9e3du3fjn/8l+/oy/gsXLmz8k+mUliECqPq+a9eu1m6GBtr+bW9728Z4yVDr9S/nOnHtd/3112/U69u7shTUhlhUl5trfc03vxx9V64OWm2L5vKLL764bXVorA38csMdLl++XGmehotMr7vuus0/GqFt9DxK9XTj4tet/fV8aGpjWH/OzxoLtVfPQX8OuDbLqqmPKXX47Q+3T7XTfrl9Vz/859Ktt9660cewDe5nfSOCXuP8pa19/jbcX40AAdRw5lPwBs4CV+lF1foieh0g9Bv1EEvfwUd90fy96aabthx8mtqufukA+sorr3Q+COoAcfPNN2/Ua32xvmtHn3W7Mrvc9j0OasuNN95Y6UDZtugg6QKM7HTdqh8YtF/K3HP2Cq8Kgdai4PHqq69W3//+9zfrtraPrVMfNdcUeGJLbt3ve9/7YkVG1zedCbMOfhoP/+uc2sbFVazx0fOn7ZcEudxyyy2mjwKh/kqamwuu7JxbzQGNg+ZAyli89tprG19To9vUJfY6GZ5QidmpXvVZfY/9MqznkeZal0XjpH8s4wtYz8E+WscZ0ATF8AmbsAubDCAQe2FNCQGlzeor+OgApACjF/2SpcuLc8qBxmqTvq/t5ZdfLj4rY5Wduq6vcfDrSw2ghw4dah232NzrYq/QpHFXHbmLQs5tt91m/hUvq0wFHwUPq+6xA2hO6JGlXs/9xRpXfzt3v/Q52GUs5H/8+HFzHFz7Yq+T7nim7WJnKF2Z7jbW95yxcGWGt7E6wu35eTgBAqhhyxlQA2eBq2IvrLEQ0IWkj+Cj9usJnXLm0WprzsFI5Sj0KoTo7653XXLr7lpfuH8f4xCWmRJA3cE63Nf9bM29Pg7KKl9vXcfOQLn26LavbxiI1T1mAM0Nj3LRL1IK1VpK9td+uSGpr7Fw4VFtaFtir5MqQ2fXjxw5UvRaZPW9j7luld/WZx4fRoAAargSQA2cBa6KvbBaIaArR9fg01f4dP1QX1944YWks5G33357L+HT1a0QpLc/S69Pc+WU3HYdh6Y6UwJo7Cxi29zr017eck8JoX0FHuelujXf1M9wGSuA6vIEBZ6SRY6xXypi5aqMlLfj+x6LWAiNvU5qf10CUvoujFzqPxhTNV0WQACNzZp5rSeAGuNFADVwFrgq9sLaFgL6oOgafGL7l7QxvA6uqYy+D36ujrHOUsQcv/Od77gmJt/GAqgOtLGzx01zbwh71RP7xSP2PEmGCTZsm29jBFCFcIXilOsog25s/KgxVQjr8m5Em4df3xBzIPaLSGz89dxVu7osasOzzz677ZdQAmgX1entSwA1xoQAauAscFXshbUpBPTF0CX4pByE9IKuMzru7JY+SZryQQXrbIi8Ym/5y0zXxenTrmqDFn1IYv/+/ebBue0A1Jd3WzldxqGtzFgAbdvPfzycewqsOvtpLU1jLvdY2FV40hmotiV20HD16gMAbsz1yXGdEYsFsqazfqrPX6xQqPrcHPf3UX9cW9zjsX647ca8feaZZ7a127Un9nql7dRnBVmNhT79ree9grHmpLVY4TelXqvs1HW6JERv5fvL29/+9i3zV33RJUBti/tFwl+v18G2D4v523F/eIGhn4N8CClhDK2DfMLubNKTwNAvrE0HV9f00uCT0uZTp05Vp0+fdlVtudWB6PDhw60v4mHw8XeOBSu9yOtauPDArzLU7jvvvLO1Xm3TdADS40MupeNgtSnm5O8rK/eLguy1uK/90Zklt8TaGbPXC78VBtvmamy+qc1tH2ZRUFC9Cg1ti+ap5mvbEqvfCk5hmakHP7VJ13W68cj9sI/apA/X6VaL+qA5kXKW0HoOxM4GKnxpf9duv/9qw7ve9S5zLErngF+P5qGbz5rbGnv56RsBrOCoMmK/CGmb2Bg2ffuB9mOZhkBs/Lq2kgCaIEgATUBawSaxg1vXJrS9oKvcWKBoe+s3dhCywqfrjw4IeiFoW9rarQOYzqI2LTroxb6yKnbmdoy34UvHocnAPZYaQK3Q6MrSbezsZ8qBW3NdY94WQtuCYKwvsQN+bK4pNOkSgLYl9hztO4C2PX9SwrT6YPUnZqH92+qPOej5F7uUItaHNstY3Wq3Fuu4pjJiv4CmvIbEAkxsPr7ZUv4fSyA2fl3bRQBNELSeqAm7s0lPAqkvrKXVtQU5lVcafKz92g4gTe23gqyCkeZo26IDmex0q396m08HD3fGp22/WJCK1dtWbpfHLU+V2/aLgFVnLLRp35TQ6OqwxkrubWcg3f7u1mqXzlbp7d+2xY2zC7Aafy0as9hiXdMZCx2x52jOnI8d/GJjkhIgYwEo1oa2X8Jin66P1evGKNaHpksAYmOgslOeu7FfQFVOU/163C0xv1QHVx63qxWIjV/X1hBAEwQJoAlIK9gk5YW1SzP6DqCxg4f19l3YD6usWBgJy0r92QpAKiPlIJZaV+p2YwXQnAPl3Xff3fr2ZY6ZQqT6q9umRWfQdAavzyX2HJtSAE15/nQJ03KNPQfaAqjOHrZdypATwtUGa843HZtiY6gyU+ZzbP6llBMLMCntUD0s4wjExq9rqwigCYJNT/KE3dikZ4GUF9YuVfYdQPWhDp0JaVtiZw/8/WJ97/OFXAcevXWv68DcGTS/Le5+Tphy+3S9tQ7GKnuIM6A5gUGhQ+GjbUkJTf6+VpDp+3VJv+ToeuO24KR2TSmApgRwa76kjGtJANXzR7+EtC1tobVte+uMetOlGLHXipxfWK35p/bGXndiASa2f5sJj69GIDZ+XVtBAE0Q7PuFPqFKNmkQiL2wNuyS9VDfAdQ6cKhh4d9AjjXWCoNW25vKlaX+BrXejtd9/59Vj1/WugTQpoO87+Dfj122oIO//qUuCjP617TkBhmVo3FWwHTj7T51bdXj1z2lAJoSXsYIoNa7FbLscw40PQc1ttafLE4J3m7MYwEkNgZd93ft4HYcgdj4dW0VATRBkACagLSCTWIvrHphD78WJKdZChptb2laBzLV0XTmbegnr9+3lDmqA6P7O9RtocYvM3a/6eAX26fr+pJxiNVZcparrczYWe+2/UoeT/HXmOts9g033GCezU6tnwC6Varpl4BYAN1aQrefmsJk7HWyaZ+2VsRewwigbXLLeDw2/l17SQBNEEw5uCcUwyYdBWIvrLGDY5fqS4LP0E9evz/WHNVZuXe+8529BBC/zpQA5G/fx/2ScYjV22cATfngRqw9qestfz1XdAZeYajPJfYciz1HVxl+1G9rvqS0pWRuxPbpczya+jClMYi9BsYCbJ9WlJUvEBu//BK37kEA3erR+JN1cG/cgQcHEYi9sMYOjl0aZR3IVO5Uz4AOGYisANTF2tq3ZBys8rQuFhiaznK1lTmkd1hnm7/6Y313bFhOzs+x51jsOdoUmNrqjx38UsKLNV9S2lIyN2L7tPW35PGmPkxpDPoYwxIX9ulHIDZ+XWshgCYIEkATkFawSeyFNXZw7NJE60CmcqcYQEvDkK5N/cEPfrBxrZrKaFvaAlDb9n08XjIOsXpjgWFOATT2HGmz0JjrYKBxt/6CU+w5Fqu/KTC1tSl28COAVhtfpabrv/1lSmPQxxj6feP+agVi49e1NQTQBEECaALSCjaJvbDGDo5dmlgSfGIfQmoKrV3a6O8rK32CNXatpwKBXgT0pzgvXLiw8ecA3YdkYteyEUB98Tfvx8Js7qfgt9dgP5JywHC/YOh6Z/3T88aNuUrv8tVFsefoOgTQ2PNm6OPJlMYgNh9TfomwZzxrhxSIjV/XugmgCYJDv2AkNIFNaoHYC+vUAmhfX0ZdMvixICQrzWsFgrYldiAlgG6Xi5kN+VoS+woohczvfe97G1+qv73l1x4hgF6ziD2Pms6Ox16ncr5V4VpL0u/F6l/lLwGxAEMATR/XMbaMjV/XNhFAEwSHPGgkVM8mbwnEXlinFkBjB68hz4ZZf4ZTnCkv/LEwRQDd/tTUGWfrOyCHDB+xT+Cnvo4RQK+Na+w53BRAtbf1xwhyAuC1lqTfi71O5tQfCyCx15Gu+6f3mi2HEIiNX9c6CaAJgqkv3AlFsUkHgdgL69QCaCyM5BwI1Hd9b6d7q1Rvo16+fHnz55DVeuFIrTd28CWAhupv/mzZa/yeffbZ1nELS9Q3GLgx163+aZ43LbFrflMu+ej6HIvtnzr31D/LUetj4UfbWJfOpLQl9hxoC6Cxy29S2q72a8mZA9p+SmPQxxiqTyzjCMTGr2urCKAJggTQBKQVbBJ7YZ1aABVJ7Amc+gXyVrhoCjVdD7xqu1WG1hNApbB9scZKW585c6Y6efLk9h2DR2Jfan/ixIktb6fH6k0JoLHgFHuO9fkcjT13UkKcNYeHDKCxdw9if8feTYWY56lTpyqdVfeX2D4p/XbldR2D2P4pf83KtYXb1QvExq9riwigCYIE0ASkFWwSe2GNHRy7NNE6kKnctoN77ECk8KggoYNC2xJ7a1UfJNELub9YLxxNgdXfV/djYUbbEEClsH3RmW/NF+sDYG1nzlxpup5Tn0a3/ipVGMBiYxb7ZSd2tk9tiz3HYs9RlZH6emrNYZUT9l+PhYv1vE0JYjETaxytutVOa1+tl6UMrDnQNKaxMUjpt+rX0nUMYvun/jL2Zmv4f9UCsfHr2h4CaIJg6gtmQlFs0kEg9sIaOzh2qDp6NrAtgKrOlCexwpy+AkefRHeLwqv+cpFuraVpfsbOZCm06hpUmfmLgo/+BrzOvsUWAmi7UCwMak/ZK4RoLPRLgRZdZrF///5Kv3RYS5N9LCypPp0xC/9amIKy6lObY0vKc8y6/tGV7/qsutWX8Cyetos9b6YeQGPjoT42zQEFTjcHrF9i2sYi9jq5ygAaex1yBrqkyPU1/GVa27CMIxB7DnZtFQE0QbDpAJ+wG5v0LBB7YW17Qe6jGbGzGVYAVbtTvhKppJ1tfY69fevq0sHIhR+FT+tsi9vH3TaFILduqNsu49DWplhQiJ2paipXB9MjR45keTaV0/SYxksHaY29v6hO6wNQblvt575yS2Ou+ekO/m6bttu2+eZvn3vQans7OlbO1AOoTGJ98N1y77e9fR17nVxlAI29e9PU52eeeWbzNalpPY+tTmDI+ateEEATxpIAmoC0gk1iL6wpB8fSZnYNPrGQU9Iu9ff48ePbgogrK9Zmt13brcrfsWNHa4gigLbJvfm45qtewHNCvV3im2ubrvtz+6WccXLbtt0qoLSddU95jsUuOwnrVaBW6AiX2MFvDgF0qF9ErF+KYq+Tqwyg6r9eh1J/wdEcaLqsIJwb/LwagdhzsGsrCKAJggTQBKQVbBJ7YU05OJY2MxbmrDOgrs6DBw9u/IlE93OXW/VVb6Hrrcy2JTcI+OW4s2xWgCKA+mLN9/sOoVbwUAu6Bh6VrzbrF6amJfU5lnvgagqTsTKa9gnbbD1vU4JY7BfH2HioPaueA7HXyZR+O8c+xiD3dc/6Bcu1i9vVCMTGv2srCKAJggTQBKQVbBJ7YU09OJY01TqQqbyUAKrt+jgY6QCiOan+xpbYAbRpf4VP98Eoq98E0Ca97Y9pzHV9ZVuo277H9kc01hpzjX1sKZ1jLkxZZ1FTn2MKwjp46S3+lKXpNTZ28JtLAFX/5aE5ELu217LS8zLlDwnEXidXHUDVp5Rrol3fx3hdcXVzu1Ug9hzcunX+TwTQBLOmF8eE3dikZ4HYC2vqwbGkWVYQU3mpAdTVrTCiD/vkvD2rA8fLL7+cFEJcPbrNCUBhuLX6PcaBwmqP+po7DtonFtJdMNO2XRadkdaYt7293VS2znDrQ0P6kI4CSOqSM+ZhuO0jgLp2ps7zpi/ojx385hRAnUfOuLh9NO7ySZ0DsdfJMQKo+qJ5f/jw4egvJUO+jjtTbtMEYs/BtFLatyKAtttsriGAblKMekdnEawzKnqhtt6S7tL4WGjQi3rJov7oE68Kotddd92WItQffVjEhZCcALKloLd+0IFJ/VB9uu8WveC7OnTfX6x+65Or4fb+vkPct9qj+krGQRbWLwJ991P1uU+761bz2i0aY/2BgbbxcNul3qpsN+b+/HJzS+E2NNOc9Nvk16X9Sp5jaoPq95+/6qdsdRBqKtNqh9oUtttvp7tvzZeUvgw1N9y4yET/fG9/DrzxxhtJ/XT91a3K8p39dbqf0m+3Tx9j4MpytzLVuKjsXbt2uYc35oD6q7mgNrKML0AANcZA15boYDr0QgAdWpjyEUAAAQQQQGBKAgRQYzQIoAYOqxBAAAEEEEAAgUIBAqgBRwA1cFiFAAIIIIAAAggUChBADTgCqIHDKgQQQAABBBBAoFCAAGrAEUANHFYhgAACCCCAAAKFAgRQA44AauCwCgEEEEAAAQQQKBQggBpwBFADh1UIIIAAAggggEChAAHUgCOAGjisQgABBBBAAAEECgUIoAYcAdTAYRUCCCCAAAIIIFAoQAA14AigBg6rEEAAAQQQQACBQgECqAFHADVwWIUAAggggAACCBQKEEANOAKogcMqBBBAAAEEEECgUIAAasARQA0cViGAAAIIIIAAAoUCBFADjgBq4LAKAQQQQAABBBAoFCCAGnAEUAOHVQgggAACCCCAQKEAAdSAI4AaOKxCAAEEEEAAAQQKBQigBhwB1MBhFQIIIIAAAgggUChAADXgCKAGDqsQQAABBBBAAIFCAQKoAUcANXBYhQACCCCAAAIIFAoQQA04AqiBwyoEEEAAAQQQQKBQgABqwBFADRxWIYAAAggggAAChQIEUAOOAGrgsAoBBBBAAAEEECgUIIAacARQA4dVCCCAAAIIIIBAoQAB1IAjgBo4rEIAAQQQQAABBAoFCKAGHAHUwGEVAggggAACCCBQKEAANeAIoAYOqxBAAAEEEEAAgUIBAqgBRwA1cFiFAAIIIIAAAggUChBADTgCqIHDKgQQQAABBBBAoFCAAGrAEUANHFYhgAACCCCAAAKFAgRQA44AauCwCgEEEEAAAQQQKBQggBpwBFADh1UIIIAAAggggEChAAHUgCOAGjisQgABBBBAAAEECgUIoAYcAdTAYRUCCCCAAAIIIFAoQAA14AigBg6rEEAAAQQQQACBQgECqAFHADVwWIUAAggggAACCBQKEEANOAKogcMqBBBAAAEEEECgUIAAasARQA0cViGAAAIIIIAAAoUCBFADjgBq4LAKAQQQQAABBBAoFCCAGnAEUAOHVQgggAACCCCAQKEAAdSAI4AaOKxCAAEEEEAAAQQKBQigBhwB1MBhFQIIIIAAAgggUChAADXgCKAGDqsQQAABBBBAAIFCAQKoAUcANXBYhQACCCCAAAIIFAoQQA04AqiBwyoEEEAAAQQQQKBQgABqwBFADRxWIYAAAggggAAChQIEUAOOAGrgsAoBBBBAAAEEECgUIIAacARQA4dVCCCAAAIIIIBAoQAB1IAjgBo4rEIAAQQQQAABBAoFCKAGHAHUwGEVAggggAACCCBQKEAANeAIoAYOqxBAAAEEEEAAgUIBAqgBRwA1cFiFAAIIIIAAAggUChBADTgCqIHDKgQQQAABBBBAoFCAAGrAEUANHFYhgAACCCCAAAKFAgRQA44AauCwCgEEEEAAAQQQKBQggBpwBFADh1UIIIAAAggggEChAAHUgCOAGjisQgABBBBAAAEECgUIoAYcAdTAYRUCCCCAAAIIIFAoQAA14AigBg6rEEAAAQQQQACBQgECqAFHADVwWIUAAggggAACCBQKEEANOAKogcMqBBBAAAEEEECgUIAAasARQA0cViGAAAIIIIAAAoUCBFADjgBq4LAKAQQQQAABBBAoFCCAGnAEUAOHVQgggAACCCCAQKEAAdSAI4AaOKxCAAEEEEAAAQQKBQigBhwB1MBhFQIIIIAAAgggUChAADXgCKAGDqsQQAABBBBAAIFCAQKoAUcANXBYhQACCCCAAAIIFAoQQA04AqiBwyoEEEAAAQQQQKBQgABqwBFADRxWIYAAAggggAAChQIEUAOOAGrgsAoBBBBAAAEEECgUIIAacARQA4dVCCCAAAIIIIBAoQAB1IAjgBo4rEIAAQQQQAABBAoFCKAGHAHUwGEVAggggAACCCBQKEAANeAIoAYOqxBAAAEEEEAAgUIBAqgBRwA1cFiFAAIIIIAAAggUChBADTgCqIHDKgQQQAABBBBAoFCAAGrAEUANHFYhgAACCCCAAAKFAgRQA44AauCwCgEEEEAAAQQQKBQggBpwBFADh1UIIIAAAggggEChAAHUgCOAGjisQgABBBBAAAEECgUIoAYcAdTAYRUCCCCAAAIIIFAoQAA14AigBg6rEEAAAQQQQACBQgECqAFHADVwWIUAAggggAACCBQKEEANOAKogcMqBBBAAAEEEECgUIAAasARQA0cViGAAAIIIIAAAoUCBFADjgBq4LAKAQQQQAABBBAoFCCAGnAEUAOHVQgggAACCCCAQKEAAdSAI4AaOKxCAAEEEEAAAQQKBQigBhwB1MBhFQIIIIAAAgggUChAADXgCKAGDqsQQAABBBBAAIFCAQKoAUcANXBYhQACCCCAAAIIFAoQQA04AqiBwyoEEEAAAQQQQKBQgABqwBFADRxWIYAAAggggAAChQIEUAOOAGrgsAoBBBBAAAEEECgUIIAacARQA4dVCCCAAAIIIIBAoQAB1IAjgBo4rEIAAQQQQAABBAoFCKAGHAHUwGEVAggggAACCCBQKEAANeAIoAYOqxBAAAEEEEAAgUIBAqgBRwA1cFiFAAIIIIAAAggUChBADTgCqIHDKgQQQAABBBBAoFCAAGrAEUANHFYhgAACCCCAAAKFAgRQA44AauCwCgEEEEAAAQQQKBQggBpwBFADh1UIIIAAAggggEChAAHUgCOAGjisQgABBBBAAAEECgUIoAYcAdTAYRUCCCCAAAIIIFAoQAA14AigBg6rEEAAAQQQQACBQgECqAFHADVwWIUAAggggAACCBQKEEANOAKogcMqBBBAAAEEEECgUIAAasARQA0cViGAAAIIIIAAAoUCBFADjgBq4LAKAQQQQAABBBAoFCCAGnAEUAOHVQgggAACCCCAQKEAAdSAI4AaOKxCAAEEEEAAAQQKBQigBtyYAfTAgQPVO9/5TqN1rEIAAQQQQAABBKYvcOzYserixYtbGkoA3cKx9YcxA+iNN95Y3XrrrVsbxE8IIIAAAggggMDMBJ577jkC6IkTJ66mjhsBNFWK7RBAAAEEEEAAgWYBAmhV7SCANk8OHkUAAQQQQAABBIYQIIASQIeYV5SJAAIIIIAAAgi0ChBACaCtk4MVCCCAAAIIIIDAEAIEUALoEPOKMhFAAAEEEEAAgVYBAigBtHVysAIBBBBAAAEEEBhCgABKAB1iXlEmAggggAACCCDQKkAAJYC2Tg5WIIAAAggggAACQwgQQAmgQ8wrykQAAQQQQAABBFoFCKAE0NbJwQoEEEAAAQQQQGAIAQIoAXSIeUWZCCCAAAIIIIBAqwABlADaOjlYgQACCCCAAAIIDCFAACWADjGvKBMBBBBAAAEEEGgVIIASQFsnBysQQAABBBBAAIEhBAigBNAh5hVlIoAAAggggAACrQIEUAJo6+RgBQIIIIAAAgggMIQAAZQAOsS8okwEEEAAAQQQQKBVgABKAG2dHKxAAAEEEEAAAQSGECCAEkCHmFeUiQACCCCAAAIItAoQQAmgrZODFQgggAACCCCAwBACBFAC6BDzijIRQAABBBBAAIFWAQIoAbR1crACAQQQQAABBBAYQoAASgAdYl5RJgIIIIAAAggg0CpAACWAtk4OViCAAAIIIIAAAkMIEEAJoEPMK8pEAAEERhd46aWXqtdff32jHW9729uqQ4cOjd6msRsgD7m45c4776x27tzpfuQWgZUJEEAJoCubbFT0psBrr71WXb58OZljz549GweIffv2Je/DhsMIXLp0qfrBD35QnT9/fuOfatHBW/9uuOGGav/+/dXu3bt7qVxB4dy5c9Ubb7xRqV5X13XXXVcpTF1//fW91HPlypXq1Vdf3eiPq8v1Qf3Rv77qUp9U14ULF7b1SfUcOHCglz65Qp555plK/dNy6623VjfeeKNbZd5qn+9///sb/r69notqZ2o5ZiVvrQzHWXXLf4g5pSpPnTpVnT59eqN2jesdd9zxVkviN2rrxYsXNzfUa1Lp65Iz1nNJZcp5yH5vNpo7kxEggBJAJzMZ16Uhx44d2zwrk9NnHZB0wFDQ6fMAmNOGdd1WB0j/bJrlcPDgweqWW27ZCBDWdm3rUutSGDp8+HCn0KYg8sorr2yGtLY2ad7ddtttxeFaweXll1+Oznv16R3veEcv81vB5oUXXtjs0nvf+95o+xWKTp48WZ09e3Zzv6Y7fbQz1UT1d51Tfh9kIhststa/2CIXzRMXXN32qfu77XWbOr+1bZ/9Vnks0xIggBJApzUj16A1pQHUp+njAOiXx/12AYURhRIdhFMXjY/OLLkzian7ldRVEgLUlxMnTkQDYdjukroUXPQvZ1HwULjusigs6WyfFo3HXXfdZRanYHT8+PEtZ/jMHeqVpe0sMSmdU34f1Ecd9N2iORo7u62grF++tG+45M4HlaV5t4rnUthWfp6eAAGUADq9WbnwFvURQB2RzoTqQK2zoyz9C+iAqfHyF1nrbUe9Fa77OpjqbeXwAK3AkHN9XVNdqlcBwdWlt8i1XXgAzw0C/lkw1ze1V3XpVuW7utx6d6vrKG+++Wb3o3nbFLRkpksIVI8W1aO35EM/zW29bV66+M+zWFmquyl8hvZ9tLPNJHVOlfxi4wz1C467/lPjcPfdd7tV2241B9TW8Kynv2HOvAvPSLtyfGPVqctO3Blat43mSpd+u3K4nZYAAZQAOq0ZuQat8Q+M6u773ve+1l7rBVkHR70g64W56a1BHbj04qwDCkt/Ak2hxAr8CobhmSJd03j77bdHG9VUlw7MTW97a9szZ85sCwYpZ7PUEP8aQP2sg7uCnuoLl6a6NM+OHDkSPbura511tstfFFgUXpvmatPZ35yw69ej+9/5znc2H3rXu961EXo3HwjuhAdCy6QpQKa2U57+GUg1Qx5yaTKRoc6+az+3aJw01iWL5qd7DbHmZtNcVn16rfHDYWoAVfvDgK/6Nb+b+t1Uf5d+l1ixz/AC4fNONaa+jpW2TsdRvX5OZdlRv0heTW2M3nLRRehDL/4Lhasr9lu8247baQvkBNCwJ3oh1wHQHUTcel6cnUR/t+FzUEEh9ilq/cKgs4t+YEh5QQ3rShnPMAgpHOiMq7WoXX4ASj2zFNaVYhEeXFJCmsKNnh9y1KJwYp2la+urAozKcYvKaAo6Wq/nkvzdkmIS7qOydY1pWx2u7PC5nxLgmsJbypxydfq3/pg0fShL7hrr8KynC+Rqi2+V0n7VrwO+grRbUuaP2iIvP/CW9tvVy+20BPz56Fo29BgTQJ20cRsekLQpAdQAm9Gq8CBknQFt61b4gq7tUg7wbeXx+HYB/8VRB+DYNYSuhDD8xA62paFQ9YVzKfbi7V8Xqf2bQogeb1r8umKBS6HB/wBQzmtXGHZjfWpqq3+WNxbm/XFWWSkfVtJ2fh36ORbGFKj0qXy35MypMPDG5pSrw78Nx0S/rOiXFn8J567WqS71TWMetiPWZ1e2b5wS8N1+YXtK+u3K4nZ6Av68cK0reb67fVNuCaAJSgTQBKSZbuIfyNWFkgCq/cKDQSwUaB+WNIHwYJ0ToFSD/8IaOzMZBq6cUBgeoGNhy597mi85ZxfD8NoUYJxuuG3OQSUM5Kkhx9WtW/8aVyu0hJcJ5IyzAuWzzz6bfLY2HCurXX5fdD8Mr7FxDvfXz/6YtIVfv43aJrw0I3zNSRmbcDxzjNVufyzb2q3tWOYn4L9OutbnvFa4fXJuCaAJWgTQBKSZbuKHAHWhNIBq35yzMDqI6SDklpzvd+yyr+rT/v53Tbo2KASpHfpqqdxPjLsyhrj1D8QqPycUavsXX3xxo7+6Hzto+gdYbZ96Bk7bagnnk/V2s/+CnxtickzCeWm16c1ebP3fv34zN7CEgcc6oIWvs9a2W1v45k9hP639c/ya6vLHLjanmvb350mbqWujf9bTL6skgLoyXTm579T4Y1TSb1cvt9MT8Oe0a531HHLbdLklgCbo+U86t3nbi4Zbz+08BPwDgVrcJYAq2KWehQkPzClnL5xol33dNWVqq7Vofuv7M1ODqA5s//qv/7pRZN/fjaozoArMbrnpppuS26V9/DG2Dpqhq/XBENeW8NY/s6V1VljWtm4c1C6Zpy5hkLA+2KMzi/p0u1s013KWLgHUD0mxs7z+AdAap7a2hybWWc1w29wg5n+pfu4vD2q/v3/b2Gk+6gvhVX7T4ttqfcpriMrUfm7RNyCEb/27dU23Ob/MNe3PY9MV8J9/rpUEUCfRcMuHkBpQeChLwA8n2rFLANX+4S8rbU/gMOykHDxUvpaSfbWPDh4Kc6mLAoO+VioWjML2qHx92lwBbgqL/8JqhYXwLeDcUKK+hpcLWCGoi00YdK234LvUE/YnZ56qXv/5YNmH9ZT8gh/+AmjVp239a0Bz6gvne86+MgnDb+5ZdpWhpSSAvrln+f/+OwSxy1nKa2HPMQT810lXf9vxy63vessZ0ARB/0XUbZ77ouP243ZaAn0H0DDEtB2ww4NY23ZNWrn7avvwa1dUrg7Q7jst9bPOkqn94RILk03PD+vgH5Y/5M+hlRUIw+s/S198/bNbQzn48zZ2ZrGLbxhyck38g5oV6MPnjbWt1R8/IMVcQsOUr7NS3eF8zzXxLxXoEuLCscl5DbEM29aFzyWOgW1S83zcf666HuTObbdf6i0BNEEqfMHRLjz5EuBmsIl/EFJzu54BDc+stL2NG76Y5xw8cvcN56/e3gw/0OCGSmUriPlv0+lAbn2tTVi+yupyYHVt6eM2bJt1ptB/e1F1514r6drrv5CXvJXsymm77eNsYVvZ/uOaywp0mhNacvsSttOyD8/olh74wvG2xjA8E6k5q3o139uWMPTlmqhc/zXH+oWorQ3u8bAtOa8hroyc29C2dIxy6mTb1Qn4r1uu1qHHmADqpI3b8ImnTQmgBtiMVvkHAzW7awBVGf4Tue0AlRsiVa5bcvYND1IpB1nVE54NtA5u4YFc+1vXPmr9Kpb/mfQyAABAAElEQVTwrFrsbGRfcyEMsn3MKd/Ln196vPQtXL/MpvvhHMgdUz9Utj0PXL1hXVZYdfs03YblxGz8s5EqT+3UXNfru78ojKts9cktCqqpZ03dPuEvqF0O8OFz23qOuvpLb8PneGw8S+thv/EEwtcVtaTL/EzpCQE0QYkAmoA00036Ch1+91PeBswJkX7Zup+zr98WHTT0gpL6wSLfJnYWVAdDHZx1gNW12TqzM+Yio/Cyg1gY8fvb5QAbvl5YZ+FyjcKANdQvwmF4L/Hwg3isnaFZbKza3EKflANoGEJVtua7flnTog8CaT75izz04SG3jb/Ouh+6dvnlZFUBtOS5ZBmwbpoCBFD+FOc0Z+aCW+WHDnWzywHBMaWUmRMiXbnuNnXf8C3Q3DNY4VmP3P1de1d9G751rPpTzg75L8Algcv1s68w5cpzt2G4Uht1ptB6y9jtm3Or+aVfXOTolpJA6F8LG5s7oVnp8zAMZSkBVH1Un1M+pCdr/XKlfyXufj9jZ+Sdfdtt2NeUOd5WlvW4/0usthuqHqsNrBtewH/9c7WlPn/c9rm3nAFNEPNfNNzmsd/o3XbcTlsgJSzm9iClzNQQ2VR36r7+W6AqJzdEhG8XdrlerakfQz2mv3muM01uST3Q+y/AUwug4Zkz9S13PJ2Hdau5FZ45Lgkc4S8vsbaGr7GrDKB6nijc+4HbMtI6vf7nfE2ZK8+fY6UftHJlrSKAhmeHdcZXv/SwLE/An5uudwRQJ9Fwy9cwNaDwUJZASljMKrDeOKXM1BDZVHfqvn47Sg8c/otS2weqmto41mNNZwn1Ippy2YHf1ykFUJ3J1lj6AalreGkaH5Wvs12aX24p/aXDH4eUuRcG0NLLFsJQZh1A1V/9sqKw7C86s6lfWvbu3btxllPb6Rsimra77bbbkr9uLHzell7n6toa9rXkFwVXVtOtP4Zar+dE6nOpqTwem7aA//rnWmo9f9w2XW45A5qgF744ahfOgCbAzWATP6SpuaVnXvyu+mXqYKaDabiEB6Ocg0fqvv5bZ2qHvnQ6d9EXwLvg0yWU5dZbsn3XA6bv1aWv4etFlzmlse7jjGSKp99/bZ8SHNvK9Z8DKSE2NIudMW2rN5wD1gE0rFPPEet7bzUWKl/Bzy3aR3XIKrb4gbHL/HL1+OXpsZzXEFdG223oqH7mfuCqrWwen6YAAZRrQKc5MxfcKv9AqW52CQuOyb/2re0gnhoiXZn+beq+fjv8/Uvv93HQLK07tl/TATM1GLiy/Q/N6LHSudDXnGoKnylhzvUn5zYMYxpr+aWcOQ7r0S8smntusUKg2yYcv74CaNtZxjC85fQ3bGvq88KfX328mxD2oa8AGl66ozFKGUM3ltzOU4AASgCd58ydcav7CguOIPzgT9uBJjVEunL929R9/T+h6O9fej/1QFtaful+4YFY5cQ+9NJUVxjCSkOQfyax7ReQpvr9x5rCZ9tc8vcrud8UqErDp+oPr1dNeTs9DD1tf54y1j8/5GnbtrrDg23uWIfXGae01/+FsGR+hn0P530fATQcO9XZR1vDtvPz9ATC54RaOPQvHrwFnzAPwgOTduEt+AS4GWzSdwANDwpt1+qlhsgmwtR9/QOewqOua+uyuLcou5TR975h4Ff5beaxusMQVPri6wf/1A9A+W3TGUTNS/XNLQqyao/GoM+l7/Cptvmvl6n9D4NP6Rj64V9WTZe/hHOm5LU8LCP2y0Huh7JSxjh8rekaQNUnzTt3yY3a0LXMlH6wzTQECKCcAZ3GTFyjVvQdQMPy2t4CTA2RTUORuq//gpIaBJrqm+pjfR8w+whBYdAoecs8PLumXx40j4YOnypfITflekZrTvjzLjVIhnO6JBSGb/23zfk+xln99/sZe3fA/+Wm9Kx4aN5nAJW/wjvhM1Ren5/9+ex6XfpLuNs/dssZ0JhQvd7/jd5tXvIC6fbldjoCYWAsve5PPQoPotZBKdw2Zz6FIaftLIX/dmTb2aDpjEReS+TX94dzUgOM1VI/aGi7lLdm/fLCr73RHNJBoORaTL/c8H7Yzr7CZzivcw5g/gGwZL6GwbLteRGe9c1po++Y89rhb5vzXPfrC+/3FUCHeC6FbeXn6Qv4zz/X2tLnhts/dksAjQnV6wmgCUgz3cQ/MKgLXQJo+AS2rp0Kw07OQSn1wBMeaHOvc5vqkA55wAznQ9s1hG024RzI2T8cr6HCZxjU1Bdrrrb1telxf27mhsgwfOce/MLX6bb9w/Bd2nf/7X5ZtL12hM/13F9Kmpz1mG+tn9sCt9a1LUM+l9rq5PFpCoSvXWpl23Oorx4QQBMkwxc27ZITGBKqYJORBMLA0XYQiTWvKTzcdddd5m7+NZo5B+uwzW0HntQzpVYj9WcI+z77ZtUXW9d0wCx5m7utnjCctNk27R8Ggth1gX4ZTfNHL/592zddtlAawPz2u/v+Wfec/mv/cL62vYXu6vJvNS90AHWL9e5DGMBL5k9Yn/W2etivnF9KXH+absP5ljNXVZ6CsUK0+uIWjmtOYv1uCaBcA7p+s37kHodhLjeA6kVc4UHBxV9uv/326BdUh2dQUn7bDAOS6rQOPH7/FHJzvsvPHeB0MFcY0IHauj5QFlpUzxCLyld/FKLc0vcBU3U8++yzm9fCpZppv/BgnhrswjFNrdMZpN42hXdr7qSW62/n/1KV2n9/f3++6vGU55G2C08SWHWXjrHqcUtYnzUP/TO7OaHa1dV2656fbn3uWIavP7m/MLh6uV2GAAGUALqMmTyjXoQHvJwAqjMpJ0+e3HIGQV1PPRCEZ71iwSM84Dhmq77w7Evq27pNYcUKyP5BVgdjfaF330E0/HCOddbJ2ZTchuOSYhYGEusMnN+mcExlJmcr6Pv7p95vGk9r3qSW62+nXwwUatxScslHOF9TPPoar9QzzmF96q/VVz/o9Wkezp2cssP5qvmm/vf9nHVzgdvpCxBACaDTn6ULa2EYQPUi3LbozMmFCxc2zsD5fyHI3z7nIKBQ4L9tqHJ0ANCZRv3VIh0UVKcO7C+//PLmnwLUev+Ma6zOMLgpHGkfBcWmRQc2BWvV7RbrDE94INQ+sTa5clNv/YCrfeSks1y7du1KLWJzO/Xfemtb/Q7PZraZKTDJyj8rq4o0j3S2y1q0j+af7yy3/fv3W7u1rmurryl8alv9LfOSRfOyKaj4Z3JTA3hT/eFzUts0fZrePS/0i6C/WGc/3XYy0Rj79mqz5vlNN920bX5oO1efxtxfrLkePsdT5oVftnU/fN5Z7fDLCQP0kM8lv17uT1uAAEoAnfYMXWDrmg52Jd3Ui7gOAAqHOUsYrGL76iD57ne/e0twjR14dPBUP8OQpDYrTKhMLZcvX94Iuf5BWY9rvQ6cbaHNv+5P22vRPndFroF9c8v4/+GBNr6HvUXMS3s3BRQ97sxkpG1CK22TUr6289+u1s9dFss7/AWkSz3at+1sn/9csn5hidUv0/AXAO3j7HVf1ybLP1xS7bVf0y8ArrywLj03msY61k9/7qrMpu8ldXXm3vpla9+UvofXv+bWGW6fUme4Dz9PU4AASgCd5sxccKv8g2ZJN3VQ0dlKnU1qC2ixcsO3w9q2d0Hw6tWrWQFU5engqTN1OmjlLAqoug7P6ltTiO7zWrfwjE1O+5u2TT1oKuCEX/XUVJ57THPB+lvibjt3639hvXus9NYKoF3neNimtgDq96frJ71z7dXG1HH1+1NSj9s/pT7/ud33NZYlATTcx/Wl9DbFoLRs9lutAAGUALraGUdtG2cGw7fUYiw62O/du3fjrVK9Xafg0XU5c+bMxtvqTWd1VL7OrOqf7msb/637nIOADkAKdE31+H1wdars2BIexLVvzoedYuWPFUDVLvVN9bddcuHarsB92223mUHdbetu/cDmHiu9HTuAhtdu9vlJ79h8dZcT6LZ0yXleuPr0y1ls8Q/qKZcGxMrz14dhMuV1INzHL6/kfkqdJeWyz+oF/Lnqau/zkhFXpn/L1zD5Gi33/d9i3Saxt17cdtxOW0BnBpveWmtrtcKV/g216ED+xhtvbLRJ9Sjo6oAX1qm3IN1S0ia9/agnv8rR24tu0UH1uuuui16/6LZ3twpquj5WZemMcNhet13Jbe4Yxeoo8VIb3Ni48K7rT+VV2l9/DGNtTlnfdpa6b7+mevyz4JqvOnD1uche89W3VztuuOGGrNAfa5OeFxoXPQfDuvS80Hinzm2VpUsJ3NL2V9Hc+tzbcFxT5nW4T26d4fYpdYb78PM0BQignAGd5sykVQgggIAhoKClwKVFZ+r1oaF1X/r6UNa6O9L/1QgQQAmgq5lp1IIAAgj0JKAzhTp4uWXot+1cPVO/9a+95R2zqY8W7SOAEkB5FiCAAAKzEvCvK9Rbsn1+0ntWEEFj/W856PqhrKBofkSgdwECKAG090lFgQgggMCQAvqQkEKoFl0jqbC17osuR9DXk7nF+hoztw23CIwpQAAlgI45/6gbAQQQQAABBNZQgABKAF3DaU+XEUAAAQQQQGBMAQIoAXTM+UfdCCCAAAIIILCGAgRQAugaTnu6jAACCCCAAAJjChBACaBjzj/qRgABBBBAAIE1FCCAEkDXcNrTZQQQQAABBBAYU4AASgAdc/5RNwIIIIAAAgisoQABlAC6htOeLiOAAAIIIIDAmAIEUALomPOPuhFAAAEEEEBgDQUIoATQNZz2dBkBBBBAAAEExhQggBJAx5x/1I0AAggggAACayhAACWAruG0p8sIIIAAAgggMKYAAZQAOub8o24EEEAAAQQQWEMBAigBdA2nPV1GAAEEEEAAgTEFCKAE0DHnH3UjgAACCCCAwBoKEEAJoGs47ekyAggggAACCIwpQAAlgI45/6gbAQQQQAABBNZQgAA6owB64MCB6u1vf/saTlO6jAACCCCAAAJLEjhx4kR15cqVLV264447quuvv37LY33+cO7cuerMmTN9FtmprB01wtXUEg4ePFjt378/dfPi7V566aXq7NmzxfuzIwIIIIAAAgggMCcBAqgxWgRQA4dVCCCAAAIIIIBAoQAB1IAjgBo4rEIAAQQQQAABBAoFCKAGHAHUwGEVAggggAACCCBQKEAANeAIoAYOqxBAAAEEEEAAgUIBAqgBt6oAajSBVQgggAACCCCAAAKZAnwKPhOMzRFAAAEEEEAAAQS6CRBAu/mxNwIIIIAAAggggECmAAE0E4zNEUAAAQQQQAABBLoJEEC7+bE3AggggAACCCCAQKYAATQTjM0RQAABBBBAAAEEugkQQLv5sTcCCCCAAAIIIIBApgABNBOMzRFAAAEEEEAAAQS6CRBAu/mxNwIIIIAAAggggECmAAE0E4zNEUAAAQQQQAABBLoJEEC7+bE3AggggAACCCCAQKYAATQTjM0RQAABBBBAAAEEugkQQLv5sTcCCCCAAAIIIIBApgABNBOMzRFAAAEEEEAAAQS6CRBAu/mxNwIIIIAAAggggECmAAE0E4zNEUAAAQQQQAABBLoJEEC7+bE3AggggAACCCCAQKYAATQTjM0RQAABBBBAAAEEugkQQLv5sTcCCCCAAAIIIIBApgABNBOMzRFAAAEEEEAAAQS6CRBAu/mxNwIIIIAAAggggECmAAE0E4zNEUAAAQQQQAABBLoJEEC7+bE3AggggAACCCCAQKYAATQTjM0RQAABBBBAAAEEugkQQLv5sTcCCCCAAAIIIIBApgABNBOMzRFAAAEEEEAAAQS6CRBAu/mxNwIIIIAAAggggECmAAE0E4zNEUAAAQQQQAABBLoJEEC7+bE3AggggAACCCCAQKYAATQTjM0RQAABBBBAAAEEugkQQLv5sTcCCCCAAAIIIIBApgABNBOMzRFAAAEEEEAAAQS6CRBAu/mxNwIIIIAAAggggECmAAE0E4zNEUAAAQQQQAABBLoJEEC7+bE3AgggMCmBc+evVq+dr6rX3tDt1da2Hb5pZ3VgX1Xt37ejdRtWIIAAAkMJEECHkqVcBBBAYCCBU2evVs+dvFKdrG9fOHWlOvX9qnq5vq9/JcstN+6o9O/AdVV156Ed1ZFDO6vD9c9HDu8sKY59EEAAgagAATRKxAYIIIDAeAI6o6mw+bf/cqV6/uTV6rt14DxXn+Fc1fLD795ZB9Ed1Y/Ut3fVgfRQHUxZEEAAga4CBNCuguyPAAII9Cxw9Njl6ujxK9U/Hbtafbu+ndLynvoM6Y/csbP6qR/aWd1zx64pNY22IIDAjAQIoDMaLJqKAALLFXCh86+PXil+K33VOnrb/t/csaO6/0d2EUZXjU99CMxcgAA68wGk+QggMF8Bvb3+/x29XP2vZ65M7kxnrqrC6L+7Z2f1wD27eZs+F4/tEVhDAQLoGg46XUYAgXEF9CGi//r0peqv6/C5yus5V9XrD9RBlLOiq9KmHgTmKUAAnee40WoEEJihgN5m/+o3L8/+bGcqvT7A9MG3zoqm7sN2CCCwHgIE0PUYZ3qJAAIjCqxb8Ayp9fb8/3Hfro2358N1/IwAAuspQABdz3Gn1wggsAIBvdX++DcvVt+oP1jEUlU6I/rIh/ZwjSiTAQEEKgIokwABBBDoWUAfLvp6fY3nf396mdd4duXSNaIP3UcQ7erI/gjMWYAAOufRo+0IIDA5Ab3d/sdPXJrNVymNBcjb8mPJUy8C0xAggE5jHGgFAgjMXEBnPR//5ptnPWfelZU2n7OhK+WmMgQmI0AAncxQ0BAEEJirwPP1n8r8T1+7yFnPwgHkbGghHLshMGMBAuiMB4+mI4DA+AK61vMrT10avyELaMGH7t1VfeL+PQvoCV1AAIGYAAE0JsR6BBBAoEFAb7n/0RMXq6frv2LE0p+AzoZ+5qG9fFK+P1JKQmCSAgTQSQ4LjUIAgSkL6OuVPvv4Bd5yH2iQFEJ/9cHd/H35gXwpFoEpCBBApzAKtAEBBGYjoE+5/z/19Z5L/BOaUxuEh+/fXf30vbun1izagwACPQgQQHtApAgEEFgPgSePXqq+UH/FEsvqBD5a/wUlfWcoCwIILEuAALqs8aQ3CCAwkID+otGf13/HnWX1AoTQ1ZtTIwJDCxBAhxamfAQQmL0A4XP8IdT3hT7y4N7xG0ILEECgFwECaC+MFIIAAksVIHxOZ2QJodMZC1qCQFcBAmhXQfZHAIHFChA+pze0fFfo9MaEFiFQIkAALVFjHwQQWLwAXzA/3SHmmtDpjg0tQyBVgACaKsV2CCCwNgL6qqXf+erFtenvHDvKVzTNcdRoMwLXBAig1yy4hwACCFT6kvnf+vJ5vudzBnPhP/zsnurf3r1rBi2liQggEAoQQEMRfkYAgbUV4C8czWvo9++rqv/74X382c55DRutRWBDgADKREAAAQTeEvjc1y7wt91nNhv0Zzs/9/Deav++HTNrOc1FYL0FCKDrPf70HgEE3hLgE+/znQo/effO6jd/lu8Ine8I0vJ1FCCAruOo02cEENgi8PzJK9V//MqFLY/xw7wE+FDSvMaL1iJAAGUOIIDAWgtw3ecyhp/rQZcxjvRifQQIoOsz1vQUAQQaBB574kL1jaNXGtbw0NwEfvjdO6tHH+Kt+LmNG+1dTwEC6HqOO71GAIFa4Mmjl6ovPHEJiwUJ8Fb8ggaTrixagAC66OGlcwggYAn82p+cr16uv/eTZTkCvBW/nLGkJ8sWIIAue3zpHQIItAjwqfcWmAU8zFvxCxhEurB4AQLo4oeYDiKAQCigDx79en32k2W5Ar/9sT3VPXfwV5KWO8L0bO4CBNC5jyDtRwCBbAE+eJRNNrsd9AX1f/TL9Z9KYkEAgUkKEEAnOSw0CgEEhhJY2nd+Kmh9pudPfi/l7DAfSBrqWUS5CHQXIIB2N6QEBBCYkcCjj1+ovn18OV+7NMSZvp///TdmNKLtTdUHknQWlD/T2W7EGgTGEiCAjiVPvQggsHKBo8cuV7/z1Ysrr3fICgmgtu5H79tVPXTfHnsj1iKAwMoFCKArJ6dCBBAYS2BpZz/lSAC1ZxNnQW0f1iIwlgABdCx56kUAgZUKLPWT7wTQ+DT6lQd3Vw/cszu+IVsggMDKBAigK6OmIgQQGFNgqZ98J4DGZxXfCxo3YgsEVi1AAF21OPUhgMDKBZZ69lOQBNC06cT3gqY5sRUCqxIggK5KmnoQQGA0gSX/zXcCaNq04ixomhNbIbAqAQLoqqSpBwEERhNY8t98J4CmTSs+jJTmxFYIrEqAALoqaepBAIFRBJb41Us+JAHU17Dvf/z+3dXP3MuHkWwl1iKwGgEC6GqcqQUBBEYSWOqHjxwnAdRJxG95Gz5uxBYIrEqAALoqaepBAIFRBJb89rtACaB50+qLj/CXkfLE2BqBYQQIoMO4UioCCExAYOlvv4uYAJo30XgbPs+LrREYSoAAOpQs5SKAwOgCX3rqYvXE05dHb8eQDSCA5unyNnyeF1sjMJQAAXQoWcpFAIHRBT795fPVd09dHb0dQzaAAJqny6fh87zYGoGhBAigQ8lSLgIIjCqw5C+f92EJoL5G2n2+lD7Nia0QGFKAADqkLmUjgMBoAkv+8nkflQDqa6Td/9C9u6pP3L8nbWO2QgCBQQQIoIOwUigCCIwtsPSvX3K+BFAnkX7LdaDpVmyJwFACBNChZCkXAQRGFViH6z8FTAAtm2Z8HVOZG3sh0JcAAbQvScpBAIHJCLx2/mr1S4+dn0x7hmwIAbRM93cf3lsdObSzbGf2QgCBzgIE0M6EFIAAAlMTWIfv/3TmBFAnkXfL94HmebE1An0LEED7FqU8BBAYXeDrT1+qvvLUpdHbsYoGEEDLlPkgUpkbeyHQlwABtC9JykEAgckIrMMX0DtsAqiTyLvlg0h5XmyNQN8CBNC+RSkPAQRGF3j08QvVt49fGb0dq2gAAbRMeQi3spawFwLrKUAAXc9xp9cILFpgap+A/8+/vK86dOOORZundm5KfyCAT8KnjhrbIdC/AAG0f1NKRACBkQV+/vffGLkFW6sngF7zmFIAZVyujQv3EFi1AAF01eLUhwACgwpM8SuYCDrXhnxKAZQ/yXltXLiHwKoFCKCrFqc+BBAYVGBKAcd1lADqJKpqSuPzKw/urh64Z/e1xnEPAQRWJkAAXRk1FSGAwCoEpvgdoATQayNPAL1mwT0E1lmAALrOo0/fEVigAAF02oM6pQD60ft2VQ/dt2faYLQOgYUKEEAXOrB0C4F1FfibZy5Xv/+1i5PqPmdArw0HAfSaBfcQWGcBAug6jz59R2CBAk8evVR94Ylp/RUkAui1iUYAvWbBPQTWWYAAus6jT98RWKAAAXTagzqlAMqf45z2XKF1yxYggC57fOkdAmsnQACd9pBPKYB+4J6d1SMP7p02GK1DYKECBNCFDizdQmBdBQig0x75KQVQPoQ07blC65YtQABd9vjSOwTWToAAOu0hJ4BOe3xoHQKrEiCArkqaehBAYCUCfAp+JczFlRBAi+nYEYFFCRBAFzWcdAYBBPge0GnPgSkF0I/fv7v6mXv5S0jTnjG0bqkCBNCljiz9QmBNBaYUcNwQ8DVMToI/xXlNgnsIrLcAAXS9x5/eI7A4AQLotId0SuPz2x/bU91zx65pg9E6BBYqQABd6MDSLQTWWeDnf/+NSXWfM6DXhmNKAfR3H95bHTm081rjuIcAAisTIICujJqKEEBgVQK/9ifnq5fPXl1VddF6CKDXiKYUQL/4yL5q/74d1xrHPQQQWJkAAXRl1FSEAAKrEvj0l89X3z1FAF2Vd049Uwmg+/dV1RcfuS6n6WyLAAI9ChBAe8SkKAQQmIbAY09cqL5x9Mo0GlO3gjOg14ZiKgH0PYd2VJ97uE6hLAggMIoAAXQUdipFAIEhBb7+9KXqK09dGrKKrLJvuXG4t3lV9qMP9fvnJHUJw5DLFC6P+Mm7d1a/+bP9ug1pRtkILE2AALq0EaU/CCBQTfHL6IcaFgXQP/rlfs/kTe1DXEPY8Wc4h1ClTATSBQig6VZsiQACMxGYytu8q+AigJYp8xVMZW7shUBfAgTQviQpBwEEJiXw7x97ozo37DvJk+gvAbRsGPgEfJkbeyHQlwABtC9JykEAgUkJ/N7XLlR/98x0Pog0FA4BNF92CLP8VrAHAustQABd7/Gn9wgsVmBqH0QaCnqIMLX0a0D5ANJQs5FyEUgXIICmW7ElAgjMSODoscvV73z14oxaXNZUAmi+2688uLt64J7d+TuyBwII9CZAAO2NkoIQQGBqAutwHSgBNH/W8b2s+WbsgUDfAgTQvkUpDwEEJiMwtS+kHwKGAJqnyhfQ53mxNQJDCRBAh5KlXAQQGF3gyaOXqi88MZ0vpB8ChACap/qhe3dVn7h/T95ObI0AAr0LEEB7J6VABBCYisBr569Wv/TYsr+LiQCaN9v4/s88L7ZGYCgBAuhQspSLAAKTEHj08QvVt48v9+uYCKDp02wIq/Ta2RIBBHwBAqivwX0EEFicwNLfhh8iVC31a5g+cM/O6pEH+fvvi3uS06FZChBAZzlsNBoBBFIF9Db8r//J+cX+VSQCaOpMqKrffXhvdeTQzvQd2BIBBAYTIIAORkvBCCAwFYEvPXWxeuLpy1NpTq/tIICmcfLp9zQntkJgVQIE0FVJUw8CCIwmsOQvpSeApk0rvnw+zYmtEFiVAAF0VdLUgwACowos9cNIBND4tJLR5+q33/fv2xHfmC0QQGAlAgTQlTBTCQIIjC2w1A8jEUDjM4sPH8WN2AKBVQsQQFctTn0IIDCawBL/NCcBND6d+NObcSO2QGDVAgTQVYtTHwIIjCbw+DcvVn/+zWV9GIkAak8nzn7aPqxFYCwBAuhY8tSLAAIrF1jiVzIRQO1pxNlP24e1CIwlQAAdS556EUBgFIGlnQUlgLZPI85+ttuwBoGxBQigY48A9SOAwMoFfq3+YvqXz15deb1DVEgAbVfl7Ge7DWsQGFuAADr2CFA/AgisXGBJ3wuqAPqZh/r985L6y1FzXz56367qofv2zL0btB+BxQoQQBc7tHQMAQQsgaV+L6jV53VZp1DO936uy2jTz7kKEEDnOnK0GwEEOgmcqt+CX8KZvk4IC92Zv3q00IGlW4sSIIAuajjpDAII5Ags7QNJOX1f6rZ88GipI0u/liZAAF3aiNIfBBBIFtDXMv3Wly8s5gNJyR1f6IbuethD9VvwLAggMG0BAui0x4fWIYDAwAJL+kDSwFSTL5633ic/RDQQgU0BAugmBXcQQGBdBb7+9KXqK09dWtfuL6LfvPW+iGGkE2skQABdo8Gmqwgg0C7Ap+Lbbaa+hrfepz5CtA+B7QIE0O0mPIIAAmsooE/Ff/Zxrged49DzhfNzHDXavO4CBNB1nwH0HwEENgW4HnSTYjZ3+ML52QwVDUVgiwABdAsHPyCAwLoLcD3ofGbAh+7dVX3ifv7a0XxGjJYicE2AAHrNgnsIIIDAhsCXnrpYPfH0ZTQmLPDD795ZPdrznyCdcHdpGgKLEyCALm5I6RACCPQh8NgTF6pvHL3SR1GU0bMAf2qzZ1CKQ2AEAQLoCOhUiQAC0xfQl9TrQ0nfPXV1+o1doxbyifc1Gmy6umgBAuiih5fOIYBAFwFCaBe9/vclfPZvSokIjCVAAB1LnnoRQGAWAoTQaQwT4XMa40ArEOhLgADalyTlIIDAYgUIoeMOLeFzXH9qR2AIAQLoEKqUiQACixNQCH3siYvV08/wwaRVDi7hc5Xa1IXA6gQIoKuzpiYEEFiAAF/RtLpB1FctffrDe6r9+3asrlJqQgCBlQgQQFfCTCUIILAkgce/ebH682/yPaFDjilfMj+kLmUjML4AAXT8MaAFCCAwQ4G/eeZy9V+eulS9XP8NeZZ+BT5+/+7qZ+7d3W+hlIYAApMSIIBOajhoDAIIzEngVB0+9V2hhNB+Rk3Xe/7qg7ure+7Y1U+BlIIAApMVIIBOdmhoGAIIzEWAt+S7jxTXe3Y3pAQE5iRAAJ3TaNFWBBCYrABvyZcNzf59VfXR+3jLvUyPvRCYrwABdL5jR8sRQGBiAnpLXmdD+RvyaQOjs56PfGhPdah+650FAQTWS4AAul7jTW8RQGAFAkePXa7++Ak+oNRGrbOeD9cfNHrgHj5o1GbE4wgsXYAAuvQRpn8IIDCawNefvlT996cv8yElbwQ+et+ujU+4892eHgp3EVhDAQLoGg46XUYAgdUJ8Lb8m9YfuGdn9dB9vN2+uplHTQhMW4AAOu3xoXUIILAQgXUNorrO82P1WU++WmkhE5luINCTAAG0J0iKQQABBFIEFET11vzf1X9TfqnfH6prPP/dPbuqn66/TJ4PGKXMCrZBYP0ECKDrN+b0GAEEJiLw5NFL1X+rrxE9dmoZf01JwVN/QlN/xYhrPCcyyWgGAhMVIIBOdGBoFgIIrI+Ae3v+n49dnd1ZUXe286d+aCdvs6/PlKWnCHQWIIB2JqQABBBAoD8BfYXTU/90uZpyGPVD512Hd3K2s7/hpyQE1kaAALo2Q01HEUBgbgI6M/qtOpD+7b9cqb57cryzowqc7zm0s3r/3TurH60/VHSkDp0sCCCAQBcBAmgXPfZFAAEEViigQPrcySvV86f072p16vtXe79+9Jb6rxK95/CO6nB9e+ehHdWP3rGLDxKtcIypCoF1ESCArstI008EEFisgILpye9fqV47X1Un6/vnzutfVf/c/uEmfTpdHxQ6UJ/dPFDf6q103efDQ4udJnQMgUkJEEAnNRw0BgEEEEAAAQQQWL4AAXT5Y0wPEUAAAQQQQACBSQkQQCc1HDQGAQQQQAABBBBYvgABdPljTA8RQAABBBBAAIFJCRBAJzUcNAYBBBBAAAEEEFi+AAF0+WNMDxFAAAEEEEAAgUkJEEAnNRw0BgEEEEAAAQQQWL4AAXT5Y0wPEUAAAQQQQACBSQkQQCc1HDQGAQQQQAABBBBYvgABdPljTA8RQAABBBBAAIFJCRBAJzUcNAYBBBBAAAEEEFi+AAF0+WNMDxFAAAEEEEAAgUkJEEAnNRw0BgEEEEAAAQQQWL4AAXT5Y0wPEUAAAQQQQACBSQkQQCc1HDQGAQQQQAABBBBYvgABdPljTA8RQAABBBBAAIFJCRBAJzUcNAYBBBBAAAEEEFi+AAF0+WNMDxFAAAEEEEAAgUkJEEAnNRw0BgEEEEAAAQQQWL4AAXT5Y0wPEUAAAQQQQACBSQkQQCc1HDQGAQQQQAABBBBYvgABdPljTA8RQAABBBBAAIFJCRBAJzUcNAYBBBBAAAEEEFi+AAF0+WNMDxFAAAEEEEAAgUkJEEAnNRw0BgEEEEAAAQQQWL4AAXT5Y0wPEUAAAQQQQACBSQkQQCc1HDQGAQQQQAABBBBYvgABdPljTA8RQAABBBBAAIFJCRBAJzUcNAYBBBBAAAEEEFi+AAF0+WNMDxFAAAEEEEAAgUkJEEAnNRw0BgEEEEAAAQQQWL4AAXT5Y0wPEUAAAQQQQACBSQkQQCc1HDQGAQQQQAABBBBYvgABdPljTA8RQAABBBBAAIFJCRBAJzUcNAYBBBBAAAEEEFi+AAF0+WNMDxFAAAEEEEAAgUkJEEAnNRw0BgEEEEAAAQQQWL4AAXT5Y0wPEUAAAQQQQACBSQkQQCc1HDQGAQQQQAABBBBYvgABdPljTA8RQAABBBBAAIFJCRBAJzUcNAYBBBBAAAEEEFi+AAF0+WNMDxFAAAEEEEAAgUkJEEAnNRw0BgEEEEAAAQQQWL4AAXT5Y0wPEUAAAQQQQACBSQkQQCc1HDQGAQQQQCBH4POf/3z16KOPVmfOnKmOHDlS/cVf/EX14z/+4zlFsC0CCIwgQAAdAZ0q11dAB8kHHnhg42DpFA4ePFg9+eSTlW6ntujg/od/+IebzdIBXm1d1fL8889vePn1DR0wND6qN3fR+Omfws8HP/jBjVt5sQwn8Kd/+qfVL/7iL26pQGPw3HPPTfL5tKWhHX/41Kc+Vf3lX/7lZin3339/9aUvfWnzZ+4gMHUBAujUR4j2LUqg6YCpDirkffKTn5xcXz/72c9unF1yDVOg0sF9VYuC4F133bWlOgVgHWyHWlRfSQBtas8nPvGJ6jOf+UxFEG3S6f6Yfll46qmnthWk59kv/MIvbHt8SQ8oeKufbtFzYpW/HLp6uUWgVIAAWirHfggUCLQdMKd68CCAFgxywy56i1hBlKVfgY985CNbzgK60nVm8MMf/rD7cZG3BNBFDutadYoAulbDTWfHFGg6m+e35/Tp05N725AA6o9Qt/s6G8pbpN0Mw7119lO/1PmLzjbrTODSzzoTQP1R5/4cBQigcxw12jxLgba3311npniWjABabbzdn3r28h//8R833hL2r81z46vb3/iN36j+4A/+wH+I+x0FZK1rlfULnt5JWJdLHgigHScOu48uQAAdfQhowLoIxK4t1IdX/v7v/35SHATQqio5c6kwJDv/Gj03sENfw+rq4XbZAgTQZY/vOvSOALoOo0wfRxf4h3/4h+onfuIntrRDZ2oUUvxlauGEAFoWQN2Y6qx2OMZTvd7XtZnbeQgQQOcxTrSyXYAA2m7DGgR6EwgPFro+TZ8mD8+KTu0tWgJotwCqCdT0wbMpXu/b22SnoJUIhK8p/GKzEnYq6VGAANojJkUh0CbQFjTDgDe17zAM2+eCc1s/+3686YNbQ58lDseq5C1436HpgzJ6a37pXxPkG3C/fwECaP+mlLhaAQLoar2pbQ0F/uqv/qr6uZ/7uS0919lPhblVBix9Cb4uBVB7VK9+1uJ/ebrOovhL3wFUYUwf1FE71Aa3uC9vD520jQKhv8wtgMpZfXDe6kvpmW6VoQ/dyFA2rkxrDH07674r299G4dtftM2f/dmfbRk/1a15o6890py2lqb9tX3b+FtluXXycA56TJe6/NiP/Zhbve1Wdv611mpzOO9lq+dJ0zxVW9VX9buvxdk3jWubbd8B1GqDG5/QKbX/8tRz3y2yC5/rWi9z3brxVL36wxMsyxSYWgCtTpw4cTX132uvvXaVBYGpC9QH8av1y8fmv/pFdUuT6xf1zXXaTj/3udRv916tr0W8Wr/ob6nHb5O7r7bW4Xizeu3n1um2Plhvrsu5U4fGjX75ZTXdV/n12cHNotWWcDuVNeSiNvh1yqTrEpZZH3yziswZQ9UVjmNKZU3Wbj/VX4fmLS6+kbuverVtuKTuH45/WE7Tz6Gt5qy1hHPaf77JIHw+ur75t3ouxeqx2uDW5YxrOKb62W+T3w9XfsptHbKT+qy6SsZHbai/fmxLW1WOW1S/XhP9vrj7/nZue26XI6AMl5r3VrEdAXQ5c4ue1AJNB3U/YAmp/itIW158dXBrOoiXgOrFPTxAuxf3tlttX58h2qguPFjnHhDUj/BA2Vav/7g7uDf5zTGAhqEmJyxovqT88uD76b7Gqj57lDxtmqy1sx7PmUPaVvu4JXd/td2NvyvDug3bFts3nNNuLEraGfbVame4TvM4d1z9+sLnletHWI/1c/jaE86htp/9dljlu3VtAVRzu60OPa56WJYrQABd7tjSswkIhC+8elH1D85qokJa+CKsA0PXReEz9wDn2qEXfnd2xj2m25wDgvZvO7Phl9l2XwcnWYXr1ymAhmEptEj5ORbI3Dxrsta6kjF0YUhlas6ktDPcJvU5EJYf629oqrZ2aad8NNdzlljwCi38n1Wflq4BNNzfryPlvl5b3C+qsb6Hr4MaM5nHXp9yXm9ibWD99ASmFkB36DRrPfmTlnryVvv370/alo0QGEMg/AR0fbBr/HvNqdul9kHXXOlaOHctlb+frr3SNWz1gWzjOjZtq3+6tk/XX7lFbdW/+oDtHqrqA0Ly34IP++QKUZlqg67TU3lqo+p313/pvhY9v3V9n7b3lzqAbnvMX9/1ft8fQlJ7br755i1jof7Hrm0Lr791/ZKZPsCk8dM/+emf/OTl/Nz2uq0DT/RDT9ovvN62Dg6VrjXUovH45Cc/uVmvttc/tVO34aI61R7906L969BTffCDH9xst/ZTu7VtuGj7OqRs7Beu838Ox0vz1frDAaGr5pdMXRua2hnzjdXpt1fPMT03wsWvV+3Rz/LRdaEy9J+buoZYbXJtVlnqh54bKcunPvWpqg742zZVGZqbd95557YxUv1qj7+ojapT89Ba1E43j7Sd+qe6wvarHHf97gsvvLBRpDWWVp2sm74A14BO75cCWrQQAf2GX78EbPlXv+A29q7prTDtX7rUL/Bb6lU76hf3q7EydXbR37c+wGwpR+tSlvqAvGU/1a+yYm8Jq331AXBz37B+laM2Drn4/Vd9OlPUZVGfVI7/Tz7W0rSPLOq/omTttrGuPmBvqUv1at/YWbqmOl2bY3OnqU63r25j+6vu0F37xZzU4XC/2D5Nc9O1tQ72ppPa6c9Pt1+Kr9ra1k+VGRsfnUX0nw/+fbWjDnSqIrqEZyO1r8qKPa/U9qazphrb2NJUp7PT+MXqjpXP+nkKTO0MKNeAznMe0eoGgaYPbbQdZPR4eECJHUgbqtx4qOnFXgeJtrrDctoOkjpg6GARW5r2V990SUDqoiDgDlDh7dAHqzDQdA2gTQftWB/CNuT6NQXC2HzSuIXWbsxT5k7TfM/ZX/WHz4GUUBVaxfrZFkDrs7up07PxQzsplww01a25nrroLe/QyI1ZilXTc1N+ejx1aRrntl+sXZlNr0lqd87rkiuL2+UIEECXM5b0ZGIC4YFRZzmsJTyzogNNyRLWm3uAUZ0KSO7A5t+qrNiis3T+PrqfcubOL1eBJ+yHKzMW3vxySu6H9XYJoDqwu3a725hh08E6doBv6mcYfDWfrCDZ1Fa1OTWcqGzXR/82p+1huEl5DoTjVRJAY2MS+jZZxeaJ9gnDY269akfT80veKQG0KQCnjq9voLr8MY6dBW2a0+p7Sd1+O7g/bwEC6LzHj9ZPVKApwNXXcZmtbdonN2w1lZETAPwGhgcZHXBSDpjaxj84pezj1+vuN/VF5eaauPJSb8P2x4JFW7lqZ1iW2q+zk9YSupfW3xQIrbN0CgP+uOl+bt1hf1MCpG/RFFSs0Kx9wzpLAmjJcyQcp5IQVlKv+hzWrbHSY7EltIrNxbbymp6b1vOyaVxj49RWN48vR4AAupyxpCcTEtCB2z+Y64U/tuhAG54h0RmhnCU8g6Q2xA7gbeU3HWRi/dBbhH6/db/0IKt2hR4qzzrQtfUl5/HwIJ0TwhTidLBtCghqe8yvKQR26W/YDqsvTXXnjl1YX0oo8semac6pXdYSjlcs2PR1FjB8rsXGNrSJbW/1uema8Zh1ia3VhvC5af1y0xRAUz9Bb7WBdfMWIIDOe/xo/UQFwhdn68DvdyE8qKmcnACpszB+AIy97e/X3XQ/7EfsoNl0YMxpf9iG0GOMACoD9dv6Fzr5Y+Dua5tYmNJZcre9bmPeoVf4czgeVnlNATQ3/IYhKxaKwvaWhCT1yTfLDaAal5KlKVRZ5YRzRHO7dNFzyu+z7sesw+dSbPtY28Jfsq3XmlyrWN2sX4YAAXQZ40gvJiTQ9GKbeiBvOgDnnIUKD0rWWYkUsjBQWAFG5YXXscbeloy1oYtlrOy29WGgCU1LflaZKR/CCkOCdVBva7//eBho1fa2ZV0DaGxOt3k1zc22bZveGYhdktNWlns8nKexQBk+l2NB3dXTdhueSbYcc6za6uPx5QlMLYDyPaD1EYJl3gIf+chHNr/7UD2pX5iTvztT24ffGVkfOJK+30/f0Rd+j2MdaCvtX7qE3xcY60v43Z91gIp+36XVtjq0bXyfqb9N1z75ZTXdD79XsmmbnMf03Zn1wTr6fZYqM5w7dYDf9jezc+rWnKh/gdmySx00N+bklgfrH/qYP+H4p85d15am78hsa6/bJxwvWdfXNrrV227D7wGNzeltBbz1gFz977bUw3VEaNy8qV91KI1+f2ZjYW89GM6VmHXopOem5lfpoj7pn1vqM7xVfWbW/bjlNsdqy478sGgBvgd0eb9U0KMRBZrOIqW+/e6aHZ5ZqF+Bkt6Gbzp72vU6q7At9cHaNbPxNrwEQPt3WZo81c8hF/VR5l3/qZzcyw/qENG53li7Zdq09GEdtl8/5yxNc7itva7ccLxicy53Trt6wtucs3o5Z6LDetp+Dt8Cj1nH5kUf69vammPVVgaPL0+AM6D1s44Fgb4Emn7T11kGnR1IXXQmSv/8pT5ommd1tK3ORoR/YaU+eFf1AdovKuv+5z//+ap+W3hzH5WlMtuW8CxLSrvbytLjclCZ/rLqM6D1gT1qr/bpjJT+Oo2/5LZVf71KZ32HXNrmRB/WnAHV7w/bl6bXhTpObN8w4xGdfVW5btE81XxrW3bs2NG2qrfH2/o0RP97azQFjSbAGdDl/VJBj0YUCM8A1s9sHWU6/4ud3VCX64PPtnpiZ49iVLlni+qAuqUN2r/LovaHfurnkEvYh9Qz2E1neVLGze9LWHfY9z5+bpsTfVirv34bc/tfModDs9icy53T/vj495vG21/v38/Z1t/Pus8ZUEuHdXMQ4Axo/WrJgkAfAk3XK/ZRriujPjhX9QHd/bjttukMVtfrzHKvlwvPgOrsaf3F2dvamvpAU59iDqllt20X9qE+0Fd1gGjbfMvj4b5aqbM/+tvtKUt4BlHX6eka0j6XtjnUh3XYftWl8UpdSs7ih+Z1wDTPWOfO6ba255zVa9pW10vmvDMStiP3GtDwDKiemx/+8IfDYjv93Da3mvpfB6ROdbHz/AU4AzqHXxNo4ywEwjMS9cuDXmF7+6dPSFtL0xms+oXf2iW6LuyTzjZZiz617fdZP3dZms6I6bEhl/CMmgxSl6b2qrzUa0FDv5y6U9vYtl3T/Mm1rgPIlvHXzzlLk1/bGVtXbjheUzwD2vQp+K7XZ+dah05dvyHD+afcDnEGOKVetpm2AGdA5/9LBD2YiEB4JkbXfnY5+6czNToj5BbrU6Zum/AT9F3PQIZntOqDmHkNaHhdWmx71+622/AaVG1Xh5SqPvi27dL58XAc6xCYfAZUlYdmeix2Vk7baAm/dUBzSGexV7FwBjRPOeesXpOt9k89M97UsvC5rueEnhttS3jGtOtrQ1s9TY/nWDXtz2PLFOAM6LR/QaB1MxFoOnPT9exj+CXi9UvQVdVjLblnRayydNZOdfr/dBbFWpraHDuDZZUXnhFMMbDKS1kXninKPQvZNBfqXx6SzoKGZ4pS90vpV2wbzoDGhLauD8dKc9NaNJb+cyl3XvllN51R1XPfWvQOil+/rlf//9u7o+O2dSAKoM5vmkgJKSGlpaTUkBJShAtIBXm8nsEbZA2JoGQ6tHg4oyFlS8DiLCmsJJp+r2Wr1XvFpZ9/K3C0T0Cfnp+f/8zeEryFwBEEMpn0L+7ZvqfwyphSANZJa+0r7Xz9WOOY/fq3Oo4mjbUCdFTErH0lWvtt90dtZWxrRXh7/q3rewvQ9FvfCCTuGYdR0X/vBctnHUbeW63ruNeKohrbqHhfO45qvtac6zGytk/XGNv90fHRfjda19eIe95c1Layf61Zj2y35nc0rpmfbbWaadNjPr6AAvTj59AI/rHAqGhYKxRnQ64T+tqkNZpk1s4dvRRLndgzyc1M1ltjvtR/LRTSf257T5p13Ld8UjX6hCq5WyumYlH91gqLS375eQzzqfTM+YYK0GuSr3+3taj68ePHqzeHa8Xy617/vOxDdR+dKUDTVn1De8u+3WJK7PmWZ2af3mrV+rB+bAEF6GPn1+jeQWD04nrv1+8t7NGktfbHA7WAuaVoG32VnnZmCtBR4bi1CM6kNppkbxlLs5xd135vnaRHn1LNvDEZvYm4tVCJV7tlXNfaiXl7bFtvLfbrvre1eB6Nfa3Aqfm6NsbsA3X/zPNvWUbH/bV2Rt9ozL4p6dut8bdczViPnpvXmK1LfV2K4bXXvK1WW+Px+I8poAD9mHkT9YEE6qSbSeWtltGktTbRjCbxTBBrE3mLOf+zvE1qdT0zWY9iTjtrhUHrP89PP7Xvdn9rUdTanV3Xvm8tQONdP3HKGGbir/tUnrf2xqMfXwxH16S9ViQk3mbc1jOx9v3WuNf21f652U5/re+2Xttva77W9rNahM3s0zXO3L+lqKp9Z4zJ09oYW/+X3himnRnr0bGZfXTmE/IWQ2Kt5un/2hhusWr9WT+ugAL0cXNrZO8gkBfdNlG29a0Fy6Vw6x8PpJ9MJNeWWgjkOZk0rhUgaS8TXF801XZmJ+v6CUmzWSsOUoD0k1vtP+3kMXsuff/p7558jgqOmUJh9BV+i+XaRB+Xatjs13I32pe3Wtd8zYy1z2X6a/G29dp4a77W9rGakzWXPr5++9aiavTGIDFcG2eO9/51IMdobWfWerkyxyvjWMflWgwZ+6V9a+0YudWq97b9eAJHK0A/5Q+QloNhalkOwqfPnz9PPdaDCOwh8B6XCRpdnHuZLK5ebDuXfcnlgLKuyzJxPS1fBT99+fLl5ULY+feRv379elqK07/+leT379+flonxKZdWakvuL5NUu3t1XS8p1B6cNpbJ8ilxfP369SXG379/Py1/bPPXZafyuKUQe8rlZvplmQRfnt//7C23770MUx9LbNPeLf+ic3kz8HJZpr69th2/3GoO888Q+kt3tcfntTKWMb20ZF9JrP2y1bpegioxpo3ZZbSvZ3+7FnfN19qx8S8uRN+PP875l6t1n8hj4pVbjossl47NXN4tx0zG2pY8b9Y6z4tDXbKfpJ3csm9laTHk+EzsdUlu0u+1HOW1pX8dSRtLOVWbcv9kAi7D9HhvKozoHQWWF928iv5/y/09lnzisbWffJpR4+vbuLbdxlE/uWg/nx3jcp3Dv+K+1mf9Xfs0pv58mexmu7/pcdVs7dOdtU6Wyf6Vwazj8ibg1XOrx9r97Ds5rWJtiXdta6v1Urj81Ubub1nSX42h7QeX2qn5ive1peZjNhe1zXpsJO7ZJZ9w12O6jvvS/bY/1nFstX6LfSt2a/mJyT1Ws6Ye9/EEjvYJqMswfbx96LQRjybLNjm8NUr/9VubmGaKg0wOdYJuz7+07ieVOnHcMllvnegyMaffttQ4Z8bdnnvLunrdm9N8fVrbzJhmz+nMeEfPry6j+ylKZgqEOOVxtY2t1grQ+T0u3lvzGt92+s29BWgizXG2NYa2j/SxrI06/bTntfXac/z+8QUUoI+fYyPcSSCFSXsxbeutE/ZsaGm39dHWW/6yfGaiSeGXYrFNcImtThyZrG5ZMtmOvNpY2npUMLXftfVexm1cdUK+twBNu9UxY4l3b936v7ROGzW2ZlLXcdz6180K0Evy45+Pcjp+5PWfzuQ1+0rO3eyXtyhA017ynuN+y7619Rh8K6t+/LY/vsDRClDngC4ziYXAXgI5R/Dnz58v53K1c9CWieflfK+cF7pMdHt1/dJuziFLDDnntJ1Plj4Tw7dv317OC901gAdofGSYYb1nHh+A8XBDyPmv7bjoj82cD7q8odj92AxIe31I//X4zDmh7xXH4ZIjoF0EjnYOqAJ0lzRrlAABAgQIECBwHAEF6HFyIRICBAgQIECAwCkEFKCnSLNBEiBAgAABAgSOI6AAPU4uREKAAAECBAgQOIWAAvQUaTZIAgQIECBAgMBxBBSgx8mFSAgQIECAAAECpxBQgJ4izQZJgAABAgQIEDiOgAL0OLkQCQECBAgQIEDgFAIK0FOk2SAJECBAgAABAscRUIAeJxciIUCAAAECBAicQkABeoo0GyQBAgQIECBA4DgCCtDj5EIkBAgQIECAAIFTCChAT5FmgyRAgAABAgQIHEdAAXqcXIiEAAECBAgQIHAKAQXoBB0LSgAAArRJREFUKdJskAQIECBAgACB4wgoQI+TC5EQIECAAAECBE4hoAA9RZoNkgABAgQIECBwHAEF6HFyIRICBAgQIECAwCkEFKCnSLNBEiBAgAABAgSOI6AAPU4uREKAAAECBAgQOIWAAvQUaTZIAgQIECBAgMBxBBSgx8mFSAgQIECAAAECpxBQgJ4izQZJgAABAgQIEDiOgAL0OLkQCQECBAgQIEDgFAIK0FOk2SAJECBAgAABAscRUIAeJxciIUCAAAECBAicQkABeoo0GyQBAgQIECBA4DgCCtDj5EIkBAgQIECAAIFTCChAT5FmgyRAgAABAgQIHEdAAXqcXIiEAAECBAgQIHAKAQXoKdJskAQIECBAgACB4wgoQI+TC5EQIECAAAECBE4h8KEL0FNkyCAJECBAgAABAgR2Ffj0/Pz8Z9ceNE6AAAECBAgQIECgE1CAdhg2CRAgQIAAAQIE9hdQgO5vrAcCBAgQIECAAIFOQAHaYdgkQIAAAQIECBDYX0ABur+xHggQIECAAAECBDoBBWiHYZMAAQIECBAgQGB/AQXo/sZ6IECAAAECBAgQ6AQUoB2GTQIECBAgQIAAgf0FFKD7G+uBAAECBAgQIECgE1CAdhg2CRAgQIAAAQIE9hdQgO5vrAcCBAgQIECAAIFOQAHaYdgkQIAAAQIECBDYX0ABur+xHggQIECAAAECBDoBBWiHYZMAAQIECBAgQGB/AQXo/sZ6IECAAAECBAgQ6AQUoB2GTQIECBAgQIAAgf0FFKD7G+uBAAECBAgQIECgE1CAdhg2CRAgQIAAAQIE9hdQgO5vrAcCBAgQIECAAIFOQAHaYdgkQIAAAQIECBDYX0ABur+xHggQIECAAAECBDoBBWiHYZMAAQIECBAgQGB/AQXo/sZ6IECAAAECBAgQ6AT+Axz5Qs3PkPjpAAAAAElFTkSuQmCC;" vertex="1" parent="1">
                    <mxGeometry x="880" y="150" width="119.18" height="260" as="geometry"/>
                </mxCell>
                <mxCell id="12" style="edgeStyle=orthogonalEdgeStyle;html=1;exitX=0.5;exitY=1;exitDx=0;exitDy=0;entryX=0.5;entryY=0;entryDx=0;entryDy=0;" edge="1" parent="1" source="4" target="7">
                    <mxGeometry relative="1" as="geometry">
                        <Array as="points">
                            <mxPoint x="414" y="240"/>
                            <mxPoint x="260" y="240"/>
                        </Array>
                    </mxGeometry>
                </mxCell>
                <mxCell id="13" style="edgeStyle=orthogonalEdgeStyle;html=1;exitX=0.5;exitY=1;exitDx=0;exitDy=0;entryX=0.5;entryY=0;entryDx=0;entryDy=0;" edge="1" parent="1" source="4" target="10">
                    <mxGeometry relative="1" as="geometry"/>
                </mxCell>
                <mxCell id="14" style="edgeStyle=orthogonalEdgeStyle;html=1;exitX=0.5;exitY=1;exitDx=0;exitDy=0;entryX=0.5;entryY=0;entryDx=0;entryDy=0;" edge="1" parent="1" source="4" target="8">
                    <mxGeometry relative="1" as="geometry"/>
                </mxCell>
                <mxCell id="15" style="edgeStyle=orthogonalEdgeStyle;html=1;exitX=0.5;exitY=1;exitDx=0;exitDy=0;entryX=0.5;entryY=0;entryDx=0;entryDy=0;" edge="1" parent="1" source="4" target="9">
                    <mxGeometry relative="1" as="geometry"/>
                </mxCell>
                <mxCell id="16" style="edgeStyle=orthogonalEdgeStyle;html=1;exitX=0.5;exitY=1;exitDx=0;exitDy=0;entryX=0.5;entryY=0;entryDx=0;entryDy=0;" edge="1" parent="1" source="4" target="5">
                    <mxGeometry relative="1" as="geometry"/>
                </mxCell>
                <mxCell id="4" value="Schedule Page" style="ellipse;whiteSpace=wrap;html=1;" vertex="1" parent="1">
                    <mxGeometry x="369" y="120" width="90" height="80" as="geometry"/>
                </mxCell>
                <mxCell id="5" value="Nav Bar" style="whiteSpace=wrap;html=1;shadow=1;fillColor=#000033;" vertex="1" parent="1">
                    <mxGeometry x="40" y="280" width="120" height="60" as="geometry"/>
                </mxCell>
                <mxCell id="7" value="Title" style="whiteSpace=wrap;html=1;" vertex="1" parent="1">
                    <mxGeometry x="200" y="280" width="120" height="60" as="geometry"/>
                </mxCell>
                <mxCell id="19" style="edgeStyle=none;html=1;exitX=0.5;exitY=1;exitDx=0;exitDy=0;entryX=0.5;entryY=0;entryDx=0;entryDy=0;" edge="1" parent="1" source="8" target="17">
                    <mxGeometry relative="1" as="geometry"/>
                </mxCell>
                <mxCell id="8" value="Active Reminders" style="whiteSpace=wrap;html=1;" vertex="1" parent="1">
                    <mxGeometry x="510" y="280" width="120" height="60" as="geometry"/>
                </mxCell>
                <mxCell id="20" style="edgeStyle=none;html=1;exitX=0.5;exitY=1;exitDx=0;exitDy=0;entryX=0.5;entryY=0;entryDx=0;entryDy=0;" edge="1" parent="1" source="9" target="18">
                    <mxGeometry relative="1" as="geometry"/>
                </mxCell>
                <mxCell id="9" value="Completed Reminders" style="whiteSpace=wrap;html=1;" vertex="1" parent="1">
                    <mxGeometry x="670" y="280" width="120" height="60" as="geometry"/>
                </mxCell>
                <mxCell id="42" style="edgeStyle=orthogonalEdgeStyle;html=1;exitX=0.5;exitY=1;exitDx=0;exitDy=0;entryX=0.5;entryY=0;entryDx=0;entryDy=0;" edge="1" parent="1" source="10" target="41">
                    <mxGeometry relative="1" as="geometry"/>
                </mxCell>
                <mxCell id="10" value="Add Button" style="whiteSpace=wrap;html=1;fillColor=#000033;" vertex="1" parent="1">
                    <mxGeometry x="353.5" y="280" width="120" height="60" as="geometry"/>
                </mxCell>
                <mxCell id="26" style="edgeStyle=orthogonalEdgeStyle;html=1;exitX=0.5;exitY=1;exitDx=0;exitDy=0;entryX=0.5;entryY=0;entryDx=0;entryDy=0;" edge="1" parent="1" source="17" target="24">
                    <mxGeometry relative="1" as="geometry"/>
                </mxCell>
                <mxCell id="27" style="edgeStyle=orthogonalEdgeStyle;html=1;exitX=0.5;exitY=1;exitDx=0;exitDy=0;" edge="1" parent="1" source="17" target="23">
                    <mxGeometry relative="1" as="geometry"/>
                </mxCell>
                <mxCell id="28" style="edgeStyle=orthogonalEdgeStyle;html=1;exitX=0.5;exitY=1;exitDx=0;exitDy=0;entryX=0.5;entryY=0;entryDx=0;entryDy=0;" edge="1" parent="1" source="17" target="22">
                    <mxGeometry relative="1" as="geometry"/>
                </mxCell>
                <mxCell id="29" style="edgeStyle=orthogonalEdgeStyle;html=1;exitX=0.5;exitY=1;exitDx=0;exitDy=0;entryX=0.5;entryY=0;entryDx=0;entryDy=0;" edge="1" parent="1" source="17" target="21">
                    <mxGeometry relative="1" as="geometry"/>
                </mxCell>
                <mxCell id="17" value="Reminder Cards" style="whiteSpace=wrap;html=1;" vertex="1" parent="1">
                    <mxGeometry x="510" y="380" width="120" height="60" as="geometry"/>
                </mxCell>
                <mxCell id="36" style="edgeStyle=orthogonalEdgeStyle;html=1;exitX=0.5;exitY=1;exitDx=0;exitDy=0;" edge="1" parent="1" source="18" target="32">
                    <mxGeometry relative="1" as="geometry"/>
                </mxCell>
                <mxCell id="37" style="edgeStyle=orthogonalEdgeStyle;html=1;exitX=0.5;exitY=1;exitDx=0;exitDy=0;entryX=0.5;entryY=0;entryDx=0;entryDy=0;" edge="1" parent="1" source="18" target="33">
                    <mxGeometry relative="1" as="geometry"/>
                </mxCell>
                <mxCell id="39" style="edgeStyle=orthogonalEdgeStyle;html=1;exitX=0.5;exitY=1;exitDx=0;exitDy=0;" edge="1" parent="1" source="18" target="34">
                    <mxGeometry relative="1" as="geometry"/>
                </mxCell>
                <mxCell id="18" value="Completed Cards" style="whiteSpace=wrap;html=1;" vertex="1" parent="1">
                    <mxGeometry x="670" y="380" width="120" height="60" as="geometry"/>
                </mxCell>
                <mxCell id="21" value="Delete Button" style="whiteSpace=wrap;html=1;fillColor=#000033;" vertex="1" parent="1">
                    <mxGeometry x="510" y="480" width="120" height="60" as="geometry"/>
                </mxCell>
                <mxCell id="22" value="Task Name" style="whiteSpace=wrap;html=1;" vertex="1" parent="1">
                    <mxGeometry x="360" y="480" width="120" height="60" as="geometry"/>
                </mxCell>
                <mxCell id="23" value="Date" style="whiteSpace=wrap;html=1;" vertex="1" parent="1">
                    <mxGeometry x="210" y="480" width="120" height="60" as="geometry"/>
                </mxCell>
                <mxCell id="24" value="Done" style="whiteSpace=wrap;html=1;" vertex="1" parent="1">
                    <mxGeometry x="60" y="480" width="120" height="60" as="geometry"/>
                </mxCell>
                <mxCell id="31" value="&lt;meta charset=&quot;utf-8&quot;&gt;&lt;span&gt;&lt;/span&gt;&lt;span&gt;&lt;/span&gt;&lt;span style=&quot;&quot;&gt;&lt;/span&gt;" style="text;whiteSpace=wrap;html=1;" vertex="1" parent="1">
                    <mxGeometry x="1120" y="490" width="30" height="20" as="geometry"/>
                </mxCell>
                <mxCell id="32" value="Delete Button" style="whiteSpace=wrap;html=1;fillColor=#000033;" vertex="1" parent="1">
                    <mxGeometry x="980" y="480" width="120" height="60" as="geometry"/>
                </mxCell>
                <mxCell id="33" value="Task Name" style="whiteSpace=wrap;html=1;" vertex="1" parent="1">
                    <mxGeometry x="830" y="480" width="120" height="60" as="geometry"/>
                </mxCell>
                <mxCell id="34" value="Date" style="whiteSpace=wrap;html=1;" vertex="1" parent="1">
                    <mxGeometry x="670" y="480" width="120" height="60" as="geometry"/>
                </mxCell>
                <mxCell id="40" value="Fetches Data + Assigns it to a State Variable" style="text;html=1;align=center;verticalAlign=middle;resizable=0;points=[];autosize=1;strokeColor=none;fillColor=none;" vertex="1" parent="1">
                    <mxGeometry x="470" y="150" width="250" height="20" as="geometry"/>
                </mxCell>
                <mxCell id="41" value="Create Reminder" style="ellipse;whiteSpace=wrap;html=1;" vertex="1" parent="1">
                    <mxGeometry x="374" y="360" width="80" height="80" as="geometry"/>
                </mxCell>
                <mxCell id="44" value="Filters the array&lt;br&gt;&amp;nbsp; via completed = false" style="text;html=1;align=center;verticalAlign=middle;resizable=0;points=[];autosize=1;strokeColor=none;fillColor=none;fontStyle=0" vertex="1" parent="1">
                    <mxGeometry x="500" y="340" width="140" height="30" as="geometry"/>
                </mxCell>
                <mxCell id="45" value="Filters the array&lt;br&gt;&amp;nbsp; via completed = true" style="text;html=1;align=center;verticalAlign=middle;resizable=0;points=[];autosize=1;strokeColor=none;fillColor=none;" vertex="1" parent="1">
                    <mxGeometry x="660" y="340" width="130" height="30" as="geometry"/>
                </mxCell>
                <mxCell id="47" value="Toggles completed from false to true" style="text;html=1;align=center;verticalAlign=middle;resizable=0;points=[];autosize=1;strokeColor=none;fillColor=none;" vertex="1" parent="1">
                    <mxGeometry y="540" width="210" height="20" as="geometry"/>
                </mxCell>
            </root>
        </mxGraphModel>
    </diagram>
</mxfile>